<svg xmlns="http://www.w3.org/2000/svg" width="850" height="600" style="font-family:Lato,&quot;Helvetica Neue&quot;,Helvetica,Arial,&quot;Liberation Sans&quot;,sans-serif;font-size:18px;background-color:#fff;text-rendering:geometricPrecision;-webkit-font-smoothing:antialiased" version="1.1" viewBox="0 0 850 600"><defs><style>@import url(/fonts.css);</style></defs><defs><pattern id="noDataPattern" width="4" height="4" patternTransform="rotate(-45 2 2)" patternUnits="userSpaceOnUse"><path stroke="#ccc" stroke-width=".7" d="M-1 2h6"/></pattern></defs><path fill="#fff" d="M0 0h850v600H0z" class="background-fill"/><g class="HeaderView"><g transform="translate(769 16)"><svg xmlns="http://www.w3.org/2000/svg" width="65" height="36" fill="none" className="owidLogo" viewBox="0 0 65 36"><path fill="#002147" d="M0 0h64.8v36H0z"/><path fill="#CE261E" d="M0 33.3h64.8V36H0z"/><path fill="#fff" d="M13.8 10.57c0 .64-.11 1.23-.32 1.77a4.2 4.2 0 0 1-.9 1.4 4.08 4.08 0 0 1-1.38.94c-.54.22-1.14.33-1.8.33-.65 0-1.25-.11-1.8-.33a4.15 4.15 0 0 1-1.39-.93 4.2 4.2 0 0 1-.9-1.4A4.83 4.83 0 0 1 5 10.56c0-.63.1-1.22.32-1.76a4.18 4.18 0 0 1 .9-1.4 4.08 4.08 0 0 1 1.38-.93 4.68 4.68 0 0 1 1.8-.34c.66 0 1.26.11 1.8.34a4.08 4.08 0 0 1 2.28 2.33c.21.54.32 1.13.32 1.76Zm-1.66 0c0-.47-.06-.9-.2-1.27a2.67 2.67 0 0 0-.53-.97 2.33 2.33 0 0 0-.87-.6A2.94 2.94 0 0 0 9.4 7.5c-.42 0-.8.07-1.14.21-.34.14-.63.35-.87.61a2.74 2.74 0 0 0-.55.97 3.96 3.96 0 0 0-.19 1.27c0 .48.06.9.2 1.29a2.42 2.42 0 0 0 1.42 1.56c.33.14.71.2 1.13.2.43 0 .8-.06 1.14-.2a2.37 2.37 0 0 0 1.4-1.56 4.01 4.01 0 0 0 .2-1.29Zm3.96-1.81v3.9c0 .39.09.68.26.89.18.2.44.3.79.3.25 0 .5-.06.72-.17a2.58 2.58 0 0 0 .63-.47V8.76H20v6.15h-.91c-.2 0-.32-.09-.38-.27l-.1-.49a4.65 4.65 0 0 1-.4.35 2.58 2.58 0 0 1-.43.27 2.35 2.35 0 0 1-.5.17 2.35 2.35 0 0 1-.57.07c-.34 0-.64-.06-.9-.17a1.82 1.82 0 0 1-.64-.49 2.16 2.16 0 0 1-.4-.73 3.23 3.23 0 0 1-.14-.95V8.76h1.48Zm5.23 6.15V8.76h.87c.15 0 .26.02.32.08s.1.15.12.29l.09.74c.22-.38.47-.68.77-.9.3-.22.63-.33 1-.33.3 0 .55.07.75.21l-.19 1.11c-.01.07-.04.13-.08.16a.28.28 0 0 1-.16.04 1.01 1.01 0 0 1-.25-.04 1.65 1.65 0 0 0-.41-.04c-.3 0-.57.08-.8.25-.21.17-.4.42-.55.75v3.83h-1.48Zm6.02-8.67h1.35a.57.57 0 0 1 .35.1c.1.06.16.15.2.26l1.47 5.2a10.12 10.12 0 0 1 .19.9 5.97 5.97 0 0 1 .22-.9l1.7-5.2a.57.57 0 0 1 .2-.25.54.54 0 0 1 .34-.11h.48a.57.57 0 0 1 .34.1.5.5 0 0 1 .2.26l1.69 5.2c.08.25.16.53.22.85a31.71 31.71 0 0 1 .19-.86l1.47-5.19c.03-.1.1-.18.19-.25a.56.56 0 0 1 .34-.11h1.27l-2.7 8.67h-1.45L33.7 9l-.08-.25a9.5 9.5 0 0 1-.07-.28 4.04 4.04 0 0 1-.15.53L31.5 14.9h-1.46l-2.7-8.67Zm15.42 2.42c.46 0 .88.07 1.25.22s.7.36.96.63.47.6.61 1 .22.83.22 1.31c0 .5-.08.93-.22 1.32a2.85 2.85 0 0 1-.61 1 2.65 2.65 0 0 1-.96.64 3.35 3.35 0 0 1-1.25.22 3.4 3.4 0 0 1-1.25-.22 2.71 2.71 0 0 1-.97-.63 2.92 2.92 0 0 1-.62-1 3.8 3.8 0 0 1-.21-1.33c0-.48.07-.92.21-1.31a2.75 2.75 0 0 1 1.58-1.63 3.4 3.4 0 0 1 1.26-.22Zm0 5.2c.51 0 .9-.17 1.13-.51.25-.35.38-.85.38-1.52s-.13-1.17-.38-1.51c-.24-.35-.62-.53-1.13-.53-.52 0-.9.18-1.15.53-.25.35-.37.85-.37 1.51s.12 1.17.37 1.52c.25.34.63.51 1.15.51Zm3.95 1.05V8.76h.87c.15 0 .26.02.32.08s.1.15.12.29l.1.74c.21-.38.47-.68.76-.9.3-.22.63-.33 1-.33.3 0 .56.07.76.21l-.2 1.11c0 .07-.03.13-.07.16a.28.28 0 0 1-.17.04 1.01 1.01 0 0 1-.24-.04 1.65 1.65 0 0 0-.42-.04c-.3 0-.57.08-.79.25-.22.17-.4.42-.56.75v3.83h-1.48ZM52.96 6v8.91h-1.48V6h1.48Zm5.77 8.91c-.19 0-.32-.09-.38-.27l-.12-.6a3.68 3.68 0 0 1-.4.4 2.5 2.5 0 0 1-.98.5 2.37 2.37 0 0 1-.6.06c-.33 0-.64-.07-.92-.2a2.1 2.1 0 0 1-.73-.61 3.03 3.03 0 0 1-.46-1 5.07 5.07 0 0 1-.17-1.34c0-.45.07-.88.19-1.27s.3-.73.53-1.02c.24-.29.51-.51.84-.67a2.38 2.38 0 0 1 1.09-.25 2.1 2.1 0 0 1 1.54.6V6h1.48v8.91h-.9Zm-1.97-1.08c.3 0 .57-.07.78-.2.22-.12.42-.3.62-.54v-2.76a1.45 1.45 0 0 0-.56-.43 1.6 1.6 0 0 0-.63-.13c-.23 0-.43.04-.61.13a1.21 1.21 0 0 0-.47.38c-.12.17-.22.39-.28.65a4.3 4.3 0 0 0-.02 1.84c.06.25.14.45.25.61.1.16.24.27.4.34.15.07.33.1.52.1Zm-40.43 6.93v6.15h-1.48v-6.15h1.48Zm.22-1.8a.84.84 0 0 1-.07.36.96.96 0 0 1-.21.3 1 1 0 0 1-.3.2.96.96 0 0 1-.38.07.95.95 0 0 1-.36-.07 1.02 1.02 0 0 1-.5-.5.96.96 0 0 1 0-.73 1 1 0 0 1 .2-.3.93.93 0 0 1 .3-.2.9.9 0 0 1 .73 0 .91.91 0 0 1 .3.2.94.94 0 0 1 .3.67Zm1.22 7.95v-6.15h.9c.2 0 .32.09.38.27l.1.48a2.93 2.93 0 0 1 .84-.61 2.3 2.3 0 0 1 1.07-.24c.34 0 .63.06.9.18.25.1.47.27.64.48.18.2.3.45.4.73.09.29.13.6.13.95v3.91h-1.48V23c0-.38-.08-.67-.26-.87-.17-.21-.43-.32-.78-.32-.26 0-.5.06-.72.18a2.58 2.58 0 0 0-.64.47v4.45h-1.48Zm16.45-4.34c0 .64-.1 1.22-.32 1.76-.21.53-.5.99-.9 1.37a4 4 0 0 1-1.38.9 4.87 4.87 0 0 1-1.8.31h-3.3v-8.67h3.3a4.79 4.79 0 0 1 1.8.32 4 4 0 0 1 1.39.9c.38.37.68.83.9 1.36.2.53.31 1.12.31 1.75Zm-1.65 0c0-.47-.06-.9-.2-1.27a2.68 2.68 0 0 0-.54-.96 2.33 2.33 0 0 0-.86-.6 2.94 2.94 0 0 0-1.14-.22h-1.69v6.1h1.69c.42 0 .8-.06 1.14-.2.34-.14.63-.34.86-.6a2.75 2.75 0 0 0 .55-.96 4.01 4.01 0 0 0 .19-1.29Zm7.41 4.34h-.67a.75.75 0 0 1-.33-.06c-.07-.04-.13-.13-.17-.25l-.14-.44c-.15.14-.3.26-.46.37a2.8 2.8 0 0 1-.46.26c-.16.08-.33.13-.51.17a3.07 3.07 0 0 1-1.32-.05 1.62 1.62 0 0 1-.57-.32 1.45 1.45 0 0 1-.37-.52 1.85 1.85 0 0 1-.13-.73c0-.23.06-.46.18-.68.12-.23.33-.44.61-.62.29-.18.67-.33 1.14-.45a8.01 8.01 0 0 1 1.75-.2v-.36c0-.42-.08-.72-.26-.92-.17-.2-.42-.3-.76-.3a1.84 1.84 0 0 0-1.01.28l-.33.19a.66.66 0 0 1-.33.08.43.43 0 0 1-.26-.08.61.61 0 0 1-.17-.2l-.27-.46c.7-.65 1.56-.98 2.56-.98.36 0 .68.06.96.18a1.99 1.99 0 0 1 1.16 1.25c.1.29.16.6.16.96v3.88ZM37.1 26c.15 0 .3-.01.42-.04a1.81 1.81 0 0 0 .69-.33c.1-.09.22-.19.32-.3v-1.04c-.43.02-.79.06-1.08.12a2.8 2.8 0 0 0-.7.2.92.92 0 0 0-.37.3.66.66 0 0 0-.11.36c0 .26.07.45.22.56.16.11.36.17.61.17ZM43.22 27c-.53 0-.94-.15-1.23-.45-.29-.3-.43-.72-.43-1.25v-3.44h-.63a.31.31 0 0 1-.2-.08c-.06-.05-.09-.13-.09-.23v-.6l.99-.15.31-1.68a.3.3 0 0 1 .11-.2.36.36 0 0 1 .22-.06h.77v1.94h1.62v1.06h-1.62v3.33c0 .2.05.35.14.45a.49.49 0 0 0 .39.17.73.73 0 0 0 .39-.1l.12-.07a.2.2 0 0 1 .11-.04.16.16 0 0 1 .11.04c.03.02.06.05.09.1l.44.71c-.21.18-.46.32-.74.41a2.77 2.77 0 0 1-.87.14Zm7.2-.1h-.66a.75.75 0 0 1-.33-.06c-.08-.04-.14-.13-.18-.25l-.13-.44c-.16.14-.31.26-.47.37a2.8 2.8 0 0 1-.46.26c-.16.08-.33.13-.5.17a3.07 3.07 0 0 1-1.33-.05 1.62 1.62 0 0 1-.57-.32 1.45 1.45 0 0 1-.36-.52 1.85 1.85 0 0 1-.14-.73c0-.23.06-.46.18-.68.13-.23.33-.44.62-.62.28-.18.66-.33 1.13-.45a8.01 8.01 0 0 1 1.76-.2v-.36c0-.42-.1-.72-.27-.92-.17-.2-.42-.3-.75-.3a1.84 1.84 0 0 0-1.02.28l-.33.19a.66.66 0 0 1-.33.08.43.43 0 0 1-.25-.08.61.61 0 0 1-.18-.2l-.27-.46c.7-.65 1.56-.98 2.56-.98.36 0 .68.06.96.18a1.99 1.99 0 0 1 1.17 1.25c.1.29.15.6.15.96v3.88ZM47.54 26c.16 0 .3-.01.42-.04a1.88 1.88 0 0 0 .69-.33l.33-.3v-1.04c-.44.02-.8.06-1.09.12a2.8 2.8 0 0 0-.7.2.92.92 0 0 0-.37.3.66.66 0 0 0-.11.36c0 .26.08.45.23.56.15.11.36.17.6.17Z"/></svg></g><a href="/grapher/global-pasture" rel="noopener" style="font-family:&quot;Playfair Display&quot;,Georgia,&quot;Times New Roman&quot;,&quot;Liberation Serif&quot;,serif" target="_blank"><text x="16" y="39.5" fill="#5b5b5b" font-size="24.25" font-weight="600"><tspan x="16" y="39.52">How much global land is used as pasture for livestock? World</tspan></text></a><g class="markdown-text-wrap"><text x="16" y="63.3" fill="#5b5b5b" style="font-size:14.625px;line-height:1.2"><tspan x="16" y="63.3">The extent of global pasture used for livestock grazing. It does not include cropland used to grow animal feed.</tspan></text></g></g><g style="pointer-events:none"><g class="LineChart"><defs><clipPath id="boundsClip-42"><path d="M94.57 72.65h838V543.6h-838z"/></clipPath></defs><path fill="none" d="M16 82.65h818V533.6H16z"/><g class="DualAxisView"><g class="HorizontalAxis"><path stroke="#999" stroke-width="1" d="M104.6 513.1v5M634.3 513.1v5M179 513.1v5M253.5 513.1v5M327.9 513.1v5M402.4 513.1v5M476.8 513.1v5M551.3 513.1v5"/><text x="104.57" y="531.6" fill="#5b5b5b" font-size="13.5" text-anchor="start">600</text><text x="634.3" y="531.6" fill="#5b5b5b" font-size="13.5" text-anchor="end">2023</text><text x="179" y="531.6" fill="#5b5b5b" font-size="13.5" text-anchor="middle">800</text><text x="253.5" y="531.6" fill="#5b5b5b" font-size="13.5" text-anchor="middle">1000</text><text x="327.9" y="531.6" fill="#5b5b5b" font-size="13.5" text-anchor="middle">1200</text><text x="402.4" y="531.6" fill="#5b5b5b" font-size="13.5" text-anchor="middle">1400</text><text x="476.8" y="531.6" fill="#5b5b5b" font-size="13.5" text-anchor="middle">1600</text><text x="551.3" y="531.6" fill="#5b5b5b" font-size="13.5" text-anchor="middle">1800</text></g><g class="VerticalAxis"><text x="99.57" y="513.1" fill="#5b5b5b" dy=".32em" font-size="13.5" text-anchor="end">0 ha</text><text x="99.57" y="450.3" fill="#5b5b5b" dy=".32em" font-size="13.5" text-anchor="end">500 million ha</text><text x="99.57" y="387.5" fill="#5b5b5b" dy=".32em" font-size="13.5" text-anchor="end">1 billion ha</text><text x="99.57" y="324.7" fill="#5b5b5b" dy=".32em" font-size="13.5" text-anchor="end">1.5 billion ha</text><text x="99.57" y="261.9" fill="#5b5b5b" dy=".32em" font-size="13.5" text-anchor="end">2 billion ha</text><text x="99.57" y="199.1" fill="#5b5b5b" dy=".32em" font-size="13.5" text-anchor="end">2.5 billion ha</text><text x="99.57" y="136.3" fill="#5b5b5b" dy=".32em" font-size="13.5" text-anchor="end">3 billion ha</text></g><g class="AxisGridLines horizontalLines"><path stroke="#999" stroke-width="1" d="M104.57 513.1H634.3"/><path stroke="#ddd" stroke-dasharray="3,2" stroke-width="1" d="M104.57 450.3H634.3M104.57 387.5H634.3M104.57 324.7H634.3M104.57 261.9H634.3M104.57 199.1H634.3M104.57 136.3H634.3"/></g></g><g clip-path="url(#boundsClip-42)"><g class="LineLabels" style="cursor:default"><g class="legendMark"><text x="638.3" y="108.1" fill="#97091d" font-size="13.5" font-weight="400"><tspan x="638.3" y="108.09">UN FAO</tspan></text></g><g class="legendMark"><text x="638.3" y="123.6" fill="#9a5129" font-size="13.5" font-weight="400"><tspan x="638.3" y="123.59">HYDE 3.3 (Goldewijk et al.)</tspan></text></g><g class="legendMark"><text x="638.3" y="164.2" fill="#3c4e66" font-size="13.5" font-weight="400"><tspan x="638.3" y="164.19">Taylor and Rising (2021)</tspan></text></g></g><g class="Lines"><g><path fill="none" stroke="#ddd" stroke-linecap="round" stroke-linejoin="round" stroke-width="1" d="m104.6 483.8 37.2-2.5 37.2-3.7 37.2-4.6 37.3-2.7 37.2-11 37.2-6.4 37.3-1.4 37.2 3.7 37.2-5.1 37.2-6.6 37.3-5.7 3.7-.7 3.7-2.6 3.7-2 3.7-2.8 3.8-4.7 3.7-3.4 3.7-3.7 3.7-6.8 3.8-4.2 3.7-1.9 3.7-7.2 3.7-4.7 3.8-8.2 3.7-8 3.7-8.6 3.7-8.8 3.7 1.5 3.8-11.1 3.7-12.6 3.7-21.6 3.7-17.7 3.8-17 3.7-21.6 3.7-23.3 3.7-36.1.4-5.7.4-6.4.3-6.5.4-6.5.4-6.6.4-6.6.3-6.8.4-6.7.4-6.2.3-5.6.4-3.1.4-2.4h.4l.3-.5.4-.5.4-.8.4-.8.3-1.1.4.4.4.1.3-2.8.4-1.2.4-1.1.4-1.4.3-1.3.4-.4.4-.8.3-.7.4-.7.4-1.3.4-1.5.3-1.1.4-1.1.4-1.1.4-1.4.3-.1.4-1.3.4-1.6.3-1.1.4-.8.4-.6.4-1 .3-1.2.4-.6.4-.7.3-1.3.4-1.4.4-.9.4-.1.3-.9.4-.7.4 1.3.4.4.3 2.9.4-3 .4.1.3.6.4 1.6.4 4.8h.4l.3 1.4.4-.5.4 1.6.3.3.4 3.2.4.8.4-2.6.3 2.2.4-.2.4.2.4-.3.3.5.4.6"/></g><g><path fill="none" stroke="#ddd" stroke-linecap="round" stroke-linejoin="round" stroke-width="1" d="m611.2 125.2.4-.8.4-.3.3-.8.4-1.2.4-1 .4-1.3.3-2.8.4.2.4 1.2.3-2.3.4-1.3.4-1.3.4-1.5.3-.8.4.6h.4l.3-.8.4-.2.4-1.2.4-.2.3-.7.4-.3.4-1.3.4-1.9.3.5.4-1.5.4-2.2.3-1.4.4-1.2.4-.1.4-5.3.3 2.2.4-2.9.4.3.3-1 .4-1.8.4-1.6.4.2.3-.7.4.1.4.9.4 3 .3 5.8.4-.2.4.1.3 1.2.4 2.1.4 1.7.4.4.3-1 .4 1.6.4 1.9.3.5.4 3.5.4.8.4-3.1.3 2 .4-.3.4 1.1.4-.5"/></g><g><path fill="none" stroke="#ddd" stroke-linecap="round" stroke-linejoin="round" stroke-width="1" d="m543.8 456.3 3.8-2.6 3.7-1.5 3.7-3.9 3.7-3 3.8-5.3 3.7-5.1 3.7-8 3.7-6.9 3.7-8.4 3.8-14.2 3.7-20.5 3.7-18.9 3.7-26.5L596 301l3.7-22.5 3.7-31.2 3.7-25.9 3.7-68.6 3.8-.1 3.7-4.5 3.7-8.1 3.7 8.6 3.8 10.5"/></g><g><path fill="none" stroke="#fff" stroke-linecap="butt" stroke-linejoin="round" stroke-width="2.5" d="m104.6 483.8 37.2-2.5 37.2-3.7 37.2-4.6 37.3-2.7 37.2-11 37.2-6.4 37.3-1.4 37.2 3.7 37.2-5.1 37.2-6.6 37.3-5.7 3.7-.7 3.7-2.6 3.7-2 3.7-2.8 3.8-4.7 3.7-3.4 3.7-3.7 3.7-6.8 3.8-4.2 3.7-1.9 3.7-7.2 3.7-4.7 3.8-8.2 3.7-8 3.7-8.6 3.7-8.8 3.7 1.5 3.8-11.1 3.7-12.6 3.7-21.6 3.7-17.7 3.8-17 3.7-21.6 3.7-23.3 3.7-36.1.4-5.7.4-6.4.3-6.5.4-6.5.4-6.6.4-6.6.3-6.8.4-6.7.4-6.2.3-5.6.4-3.1.4-2.4h.4l.3-.5.4-.5.4-.8.4-.8.3-1.1.4.4.4.1.3-2.8.4-1.2.4-1.1.4-1.4.3-1.3.4-.4.4-.8.3-.7.4-.7.4-1.3.4-1.5.3-1.1.4-1.1.4-1.1.4-1.4.3-.1.4-1.3.4-1.6.3-1.1.4-.8.4-.6.4-1 .3-1.2.4-.6.4-.7.3-1.3.4-1.4.4-.9.4-.1.3-.9.4-.7.4 1.3.4.4.3 2.9.4-3 .4.1.3.6.4 1.6.4 4.8h.4l.3 1.4.4-.5.4 1.6.3.3.4 3.2.4.8.4-2.6.3 2.2.4-.2.4.2.4-.3.3.5.4.6"/><path fill="none" stroke="#9a5129" stroke-linecap="butt" stroke-linejoin="round" stroke-width="1.5" d="m104.6 483.8 37.2-2.5 37.2-3.7 37.2-4.6 37.3-2.7 37.2-11 37.2-6.4 37.3-1.4 37.2 3.7 37.2-5.1 37.2-6.6 37.3-5.7 3.7-.7 3.7-2.6 3.7-2 3.7-2.8 3.8-4.7 3.7-3.4 3.7-3.7 3.7-6.8 3.8-4.2 3.7-1.9 3.7-7.2 3.7-4.7 3.8-8.2 3.7-8 3.7-8.6 3.7-8.8 3.7 1.5 3.8-11.1 3.7-12.6 3.7-21.6 3.7-17.7 3.8-17 3.7-21.6 3.7-23.3 3.7-36.1.4-5.7.4-6.4.3-6.5.4-6.5.4-6.6.4-6.6.3-6.8.4-6.7.4-6.2.3-5.6.4-3.1.4-2.4h.4l.3-.5.4-.5.4-.8.4-.8.3-1.1.4.4.4.1.3-2.8.4-1.2.4-1.1.4-1.4.3-1.3.4-.4.4-.8.3-.7.4-.7.4-1.3.4-1.5.3-1.1.4-1.1.4-1.1.4-1.4.3-.1.4-1.3.4-1.6.3-1.1.4-.8.4-.6.4-1 .3-1.2.4-.6.4-.7.3-1.3.4-1.4.4-.9.4-.1.3-.9.4-.7.4 1.3.4.4.3 2.9.4-3 .4.1.3.6.4 1.6.4 4.8h.4l.3 1.4.4-.5.4 1.6.3.3.4 3.2.4.8.4-2.6.3 2.2.4-.2.4.2.4-.3.3.5.4.6"/><g><circle cx="104.6" cy="483.8" r="1.8" fill="#9a5129"/><circle cx="141.8" cy="481.3" r="1.8" fill="#9a5129"/><circle cx="179" cy="477.6" r="1.8" fill="#9a5129"/><circle cx="216.2" cy="473" r="1.8" fill="#9a5129"/><circle cx="253.5" cy="470.3" r="1.8" fill="#9a5129"/><circle cx="290.7" cy="459.3" r="1.8" fill="#9a5129"/><circle cx="327.9" cy="452.9" r="1.8" fill="#9a5129"/><circle cx="365.2" cy="451.5" r="1.8" fill="#9a5129"/><circle cx="402.4" cy="455.2" r="1.8" fill="#9a5129"/><circle cx="439.6" cy="450.1" r="1.8" fill="#9a5129"/><circle cx="476.8" cy="443.5" r="1.8" fill="#9a5129"/><circle cx="514.1" cy="437.8" r="1.8" fill="#9a5129"/><circle cx="517.8" cy="437.1" r="1.8" fill="#9a5129"/><circle cx="521.5" cy="434.5" r="1.8" fill="#9a5129"/><circle cx="525.2" cy="432.5" r="1.8" fill="#9a5129"/><circle cx="528.9" cy="429.7" r="1.8" fill="#9a5129"/><circle cx="532.7" cy="425" r="1.8" fill="#9a5129"/><circle cx="536.4" cy="421.6" r="1.8" fill="#9a5129"/><circle cx="540.1" cy="417.9" r="1.8" fill="#9a5129"/><circle cx="543.8" cy="411.1" r="1.8" fill="#9a5129"/><circle cx="547.6" cy="406.9" r="1.8" fill="#9a5129"/><circle cx="551.3" cy="405" r="1.8" fill="#9a5129"/><circle cx="555" cy="397.8" r="1.8" fill="#9a5129"/><circle cx="558.7" cy="393.1" r="1.8" fill="#9a5129"/><circle cx="562.5" cy="384.9" r="1.8" fill="#9a5129"/><circle cx="566.2" cy="376.9" r="1.8" fill="#9a5129"/><circle cx="569.9" cy="368.3" r="1.8" fill="#9a5129"/><circle cx="573.6" cy="359.5" r="1.8" fill="#9a5129"/><circle cx="577.3" cy="361" r="1.8" fill="#9a5129"/><circle cx="581.1" cy="349.9" r="1.8" fill="#9a5129"/><circle cx="584.8" cy="337.3" r="1.8" fill="#9a5129"/><circle cx="588.5" cy="315.7" r="1.8" fill="#9a5129"/><circle cx="592.2" cy="298" r="1.8" fill="#9a5129"/><circle cx="596" cy="281" r="1.8" fill="#9a5129"/><circle cx="599.7" cy="259.4" r="1.8" fill="#9a5129"/><circle cx="603.4" cy="236.1" r="1.8" fill="#9a5129"/><circle cx="607.1" cy="200" r="1.8" fill="#9a5129"/><circle cx="607.5" cy="194.3" r="1.8" fill="#9a5129"/><circle cx="607.9" cy="187.9" r="1.8" fill="#9a5129"/><circle cx="608.2" cy="181.4" r="1.8" fill="#9a5129"/><circle cx="608.6" cy="174.9" r="1.8" fill="#9a5129"/><circle cx="609" cy="168.3" r="1.8" fill="#9a5129"/><circle cx="609.4" cy="161.7" r="1.8" fill="#9a5129"/><circle cx="609.7" cy="154.9" r="1.8" fill="#9a5129"/><circle cx="610.1" cy="148.2" r="1.8" fill="#9a5129"/><circle cx="610.5" cy="142" r="1.8" fill="#9a5129"/><circle cx="610.8" cy="136.4" r="1.8" fill="#9a5129"/><circle cx="611.2" cy="133.3" r="1.8" fill="#9a5129"/><circle cx="611.6" cy="130.9" r="1.8" fill="#9a5129"/><circle cx="612" cy="130.9" r="1.8" fill="#9a5129"/><circle cx="612.3" cy="130.4" r="1.8" fill="#9a5129"/><circle cx="612.7" cy="129.9" r="1.8" fill="#9a5129"/><circle cx="613.1" cy="129.1" r="1.8" fill="#9a5129"/><circle cx="613.5" cy="128.3" r="1.8" fill="#9a5129"/><circle cx="613.8" cy="127.2" r="1.8" fill="#9a5129"/><circle cx="614.2" cy="127.6" r="1.8" fill="#9a5129"/><circle cx="614.6" cy="127.7" r="1.8" fill="#9a5129"/><circle cx="614.9" cy="124.9" r="1.8" fill="#9a5129"/><circle cx="615.3" cy="123.7" r="1.8" fill="#9a5129"/><circle cx="615.7" cy="122.6" r="1.8" fill="#9a5129"/><circle cx="616.1" cy="121.2" r="1.8" fill="#9a5129"/><circle cx="616.4" cy="119.9" r="1.8" fill="#9a5129"/><circle cx="616.8" cy="119.5" r="1.8" fill="#9a5129"/><circle cx="617.2" cy="118.7" r="1.8" fill="#9a5129"/><circle cx="617.5" cy="118" r="1.8" fill="#9a5129"/><circle cx="617.9" cy="117.3" r="1.8" fill="#9a5129"/><circle cx="618.3" cy="116" r="1.8" fill="#9a5129"/><circle cx="618.7" cy="114.5" r="1.8" fill="#9a5129"/><circle cx="619" cy="113.4" r="1.8" fill="#9a5129"/><circle cx="619.4" cy="112.3" r="1.8" fill="#9a5129"/><circle cx="619.8" cy="111.2" r="1.8" fill="#9a5129"/><circle cx="620.2" cy="109.8" r="1.8" fill="#9a5129"/><circle cx="620.5" cy="109.7" r="1.8" fill="#9a5129"/><circle cx="620.9" cy="108.4" r="1.8" fill="#9a5129"/><circle cx="621.3" cy="106.8" r="1.8" fill="#9a5129"/><circle cx="621.6" cy="105.7" r="1.8" fill="#9a5129"/><circle cx="622" cy="104.9" r="1.8" fill="#9a5129"/><circle cx="622.4" cy="104.3" r="1.8" fill="#9a5129"/><circle cx="622.8" cy="103.3" r="1.8" fill="#9a5129"/><circle cx="623.1" cy="102.1" r="1.8" fill="#9a5129"/><circle cx="623.5" cy="101.5" r="1.8" fill="#9a5129"/><circle cx="623.9" cy="100.8" r="1.8" fill="#9a5129"/><circle cx="624.2" cy="99.5" r="1.8" fill="#9a5129"/><circle cx="624.6" cy="98.1" r="1.8" fill="#9a5129"/><circle cx="625" cy="97.2" r="1.8" fill="#9a5129"/><circle cx="625.4" cy="97.1" r="1.8" fill="#9a5129"/><circle cx="625.7" cy="96.2" r="1.8" fill="#9a5129"/><circle cx="626.1" cy="95.5" r="1.8" fill="#9a5129"/><circle cx="626.5" cy="96.8" r="1.8" fill="#9a5129"/><circle cx="626.9" cy="97.2" r="1.8" fill="#9a5129"/><circle cx="627.2" cy="100.1" r="1.8" fill="#9a5129"/><circle cx="627.6" cy="97.1" r="1.8" fill="#9a5129"/><circle cx="628" cy="97.2" r="1.8" fill="#9a5129"/><circle cx="628.3" cy="97.8" r="1.8" fill="#9a5129"/><circle cx="628.7" cy="99.4" r="1.8" fill="#9a5129"/><circle cx="629.1" cy="104.2" r="1.8" fill="#9a5129"/><circle cx="629.5" cy="104.2" r="1.8" fill="#9a5129"/><circle cx="629.8" cy="105.6" r="1.8" fill="#9a5129"/><circle cx="630.2" cy="105.1" r="1.8" fill="#9a5129"/><circle cx="630.6" cy="106.7" r="1.8" fill="#9a5129"/><circle cx="630.9" cy="107" r="1.8" fill="#9a5129"/><circle cx="631.3" cy="110.2" r="1.8" fill="#9a5129"/><circle cx="631.7" cy="111" r="1.8" fill="#9a5129"/><circle cx="632.1" cy="108.4" r="1.8" fill="#9a5129"/><circle cx="632.4" cy="110.6" r="1.8" fill="#9a5129"/><circle cx="632.8" cy="110.4" r="1.8" fill="#9a5129"/><circle cx="633.2" cy="110.6" r="1.8" fill="#9a5129"/><circle cx="633.6" cy="110.3" r="1.8" fill="#9a5129"/><circle cx="633.9" cy="110.8" r="1.8" fill="#9a5129"/><circle cx="634.3" cy="111.4" r="1.8" fill="#9a5129"/></g></g><g><path fill="none" stroke="#fff" stroke-linecap="butt" stroke-linejoin="round" stroke-width="2.5" d="m611.2 125.2.4-.8.4-.3.3-.8.4-1.2.4-1 .4-1.3.3-2.8.4.2.4 1.2.3-2.3.4-1.3.4-1.3.4-1.5.3-.8.4.6h.4l.3-.8.4-.2.4-1.2.4-.2.3-.7.4-.3.4-1.3.4-1.9.3.5.4-1.5.4-2.2.3-1.4.4-1.2.4-.1.4-5.3.3 2.2.4-2.9.4.3.3-1 .4-1.8.4-1.6.4.2.3-.7.4.1.4.9.4 3 .3 5.8.4-.2.4.1.3 1.2.4 2.1.4 1.7.4.4.3-1 .4 1.6.4 1.9.3.5.4 3.5.4.8.4-3.1.3 2 .4-.3.4 1.1.4-.5"/><path fill="none" stroke="#97091d" stroke-linecap="butt" stroke-linejoin="round" stroke-width="1.5" d="m611.2 125.2.4-.8.4-.3.3-.8.4-1.2.4-1 .4-1.3.3-2.8.4.2.4 1.2.3-2.3.4-1.3.4-1.3.4-1.5.3-.8.4.6h.4l.3-.8.4-.2.4-1.2.4-.2.3-.7.4-.3.4-1.3.4-1.9.3.5.4-1.5.4-2.2.3-1.4.4-1.2.4-.1.4-5.3.3 2.2.4-2.9.4.3.3-1 .4-1.8.4-1.6.4.2.3-.7.4.1.4.9.4 3 .3 5.8.4-.2.4.1.3 1.2.4 2.1.4 1.7.4.4.3-1 .4 1.6.4 1.9.3.5.4 3.5.4.8.4-3.1.3 2 .4-.3.4 1.1.4-.5"/><g><circle cx="611.2" cy="125.2" r="1.8" fill="#97091d"/><circle cx="611.6" cy="124.4" r="1.8" fill="#97091d"/><circle cx="612" cy="124.1" r="1.8" fill="#97091d"/><circle cx="612.3" cy="123.3" r="1.8" fill="#97091d"/><circle cx="612.7" cy="122.1" r="1.8" fill="#97091d"/><circle cx="613.1" cy="121.1" r="1.8" fill="#97091d"/><circle cx="613.5" cy="119.8" r="1.8" fill="#97091d"/><circle cx="613.8" cy="117" r="1.8" fill="#97091d"/><circle cx="614.2" cy="117.2" r="1.8" fill="#97091d"/><circle cx="614.6" cy="118.4" r="1.8" fill="#97091d"/><circle cx="614.9" cy="116.1" r="1.8" fill="#97091d"/><circle cx="615.3" cy="114.8" r="1.8" fill="#97091d"/><circle cx="615.7" cy="113.5" r="1.8" fill="#97091d"/><circle cx="616.1" cy="112" r="1.8" fill="#97091d"/><circle cx="616.4" cy="111.2" r="1.8" fill="#97091d"/><circle cx="616.8" cy="111.8" r="1.8" fill="#97091d"/><circle cx="617.2" cy="111.8" r="1.8" fill="#97091d"/><circle cx="617.5" cy="111" r="1.8" fill="#97091d"/><circle cx="617.9" cy="110.8" r="1.8" fill="#97091d"/><circle cx="618.3" cy="109.6" r="1.8" fill="#97091d"/><circle cx="618.7" cy="109.4" r="1.8" fill="#97091d"/><circle cx="619" cy="108.7" r="1.8" fill="#97091d"/><circle cx="619.4" cy="108.4" r="1.8" fill="#97091d"/><circle cx="619.8" cy="107.1" r="1.8" fill="#97091d"/><circle cx="620.2" cy="105.2" r="1.8" fill="#97091d"/><circle cx="620.5" cy="105.7" r="1.8" fill="#97091d"/><circle cx="620.9" cy="104.2" r="1.8" fill="#97091d"/><circle cx="621.3" cy="102" r="1.8" fill="#97091d"/><circle cx="621.6" cy="100.6" r="1.8" fill="#97091d"/><circle cx="622" cy="99.4" r="1.8" fill="#97091d"/><circle cx="622.4" cy="99.3" r="1.8" fill="#97091d"/><circle cx="622.8" cy="94" r="1.8" fill="#97091d"/><circle cx="623.1" cy="96.2" r="1.8" fill="#97091d"/><circle cx="623.5" cy="93.3" r="1.8" fill="#97091d"/><circle cx="623.9" cy="93.6" r="1.8" fill="#97091d"/><circle cx="624.2" cy="92.6" r="1.8" fill="#97091d"/><circle cx="624.6" cy="90.8" r="1.8" fill="#97091d"/><circle cx="625" cy="89.2" r="1.8" fill="#97091d"/><circle cx="625.4" cy="89.4" r="1.8" fill="#97091d"/><circle cx="625.7" cy="88.7" r="1.8" fill="#97091d"/><circle cx="626.1" cy="88.8" r="1.8" fill="#97091d"/><circle cx="626.5" cy="89.7" r="1.8" fill="#97091d"/><circle cx="626.9" cy="92.7" r="1.8" fill="#97091d"/><circle cx="627.2" cy="98.5" r="1.8" fill="#97091d"/><circle cx="627.6" cy="98.3" r="1.8" fill="#97091d"/><circle cx="628" cy="98.4" r="1.8" fill="#97091d"/><circle cx="628.3" cy="99.6" r="1.8" fill="#97091d"/><circle cx="628.7" cy="101.7" r="1.8" fill="#97091d"/><circle cx="629.1" cy="103.4" r="1.8" fill="#97091d"/><circle cx="629.5" cy="103.8" r="1.8" fill="#97091d"/><circle cx="629.8" cy="102.8" r="1.8" fill="#97091d"/><circle cx="630.2" cy="104.4" r="1.8" fill="#97091d"/><circle cx="630.6" cy="106.3" r="1.8" fill="#97091d"/><circle cx="630.9" cy="106.8" r="1.8" fill="#97091d"/><circle cx="631.3" cy="110.3" r="1.8" fill="#97091d"/><circle cx="631.7" cy="111.1" r="1.8" fill="#97091d"/><circle cx="632.1" cy="108" r="1.8" fill="#97091d"/><circle cx="632.4" cy="110" r="1.8" fill="#97091d"/><circle cx="632.8" cy="109.7" r="1.8" fill="#97091d"/><circle cx="633.2" cy="110.8" r="1.8" fill="#97091d"/><circle cx="633.6" cy="110.3" r="1.8" fill="#97091d"/></g></g><g><path fill="none" stroke="#fff" stroke-linecap="butt" stroke-linejoin="round" stroke-width="2.5" d="m543.8 456.3 3.8-2.6 3.7-1.5 3.7-3.9 3.7-3 3.8-5.3 3.7-5.1 3.7-8 3.7-6.9 3.7-8.4 3.8-14.2 3.7-20.5 3.7-18.9 3.7-26.5L596 301l3.7-22.5 3.7-31.2 3.7-25.9 3.7-68.6 3.8-.1 3.7-4.5 3.7-8.1 3.7 8.6 3.8 10.5"/><path fill="none" stroke="#3c4e66" stroke-linecap="butt" stroke-linejoin="round" stroke-width="1.5" d="m543.8 456.3 3.8-2.6 3.7-1.5 3.7-3.9 3.7-3 3.8-5.3 3.7-5.1 3.7-8 3.7-6.9 3.7-8.4 3.8-14.2 3.7-20.5 3.7-18.9 3.7-26.5L596 301l3.7-22.5 3.7-31.2 3.7-25.9 3.7-68.6 3.8-.1 3.7-4.5 3.7-8.1 3.7 8.6 3.8 10.5"/><g><circle cx="543.8" cy="456.3" r="1.8" fill="#3c4e66"/><circle cx="547.6" cy="453.7" r="1.8" fill="#3c4e66"/><circle cx="551.3" cy="452.2" r="1.8" fill="#3c4e66"/><circle cx="555" cy="448.3" r="1.8" fill="#3c4e66"/><circle cx="558.7" cy="445.3" r="1.8" fill="#3c4e66"/><circle cx="562.5" cy="440" r="1.8" fill="#3c4e66"/><circle cx="566.2" cy="434.9" r="1.8" fill="#3c4e66"/><circle cx="569.9" cy="426.9" r="1.8" fill="#3c4e66"/><circle cx="573.6" cy="420" r="1.8" fill="#3c4e66"/><circle cx="577.3" cy="411.6" r="1.8" fill="#3c4e66"/><circle cx="581.1" cy="397.4" r="1.8" fill="#3c4e66"/><circle cx="584.8" cy="376.9" r="1.8" fill="#3c4e66"/><circle cx="588.5" cy="358" r="1.8" fill="#3c4e66"/><circle cx="592.2" cy="331.5" r="1.8" fill="#3c4e66"/><circle cx="596" cy="301" r="1.8" fill="#3c4e66"/><circle cx="599.7" cy="278.5" r="1.8" fill="#3c4e66"/><circle cx="603.4" cy="247.3" r="1.8" fill="#3c4e66"/><circle cx="607.1" cy="221.4" r="1.8" fill="#3c4e66"/><circle cx="610.8" cy="152.8" r="1.8" fill="#3c4e66"/><circle cx="614.6" cy="152.7" r="1.8" fill="#3c4e66"/><circle cx="618.3" cy="148.2" r="1.8" fill="#3c4e66"/><circle cx="622" cy="140.1" r="1.8" fill="#3c4e66"/><circle cx="625.7" cy="148.7" r="1.8" fill="#3c4e66"/><circle cx="629.5" cy="159.2" r="1.8" fill="#3c4e66"/></g></g></g></g></g></g><g class="SourcesFooter" style="fill:#5b5b5b"><g class="markdown-text-wrap"><text x="16" y="562.7" style="font-size:13.5px;line-height:1.2"><tspan x="16" y="562.7"><tspan style="font-weight:700">Data source:</tspan> Taylor &amp; Rising (2021); Food and Agriculture Organization of the United Nations (2024); HYDE (2023)</tspan></text></g><text x="16" y="580.9" font-size="13.5"><tspan x="16" y="580.9"><a href="https://ourworldindata.org/land-use" style="fill:#5b5b5b" target="_blank">OurWorldInData.org/land-use</a> | <a href="https://creativecommons.org/licenses/by/4.0/" style="fill:#5b5b5b" target="_blank">CC BY</a></tspan></text></g></svg>