<svg xmlns="http://www.w3.org/2000/svg" width="850" height="600" style="font-family:Lato,&quot;Helvetica Neue&quot;,Helvetica,Arial,&quot;Liberation Sans&quot;,sans-serif;font-size:18px;background-color:#fff;text-rendering:geometricPrecision;-webkit-font-smoothing:antialiased" version="1.1" viewBox="0 0 850 600"><defs><style>@import url(/fonts.css);</style></defs><defs><pattern id="noDataPattern" width="4" height="4" patternTransform="rotate(-45 2 2)" patternUnits="userSpaceOnUse"><path stroke="#ccc" stroke-width=".7" d="M-1 2h6"/></pattern></defs><path fill="#fff" d="M0 0h850v600H0z" class="background-fill"/><g class="HeaderView"><g transform="translate(769 16)"><svg xmlns="http://www.w3.org/2000/svg" width="65" height="36" fill="none" className="owidLogo" viewBox="0 0 65 36"><path fill="#002147" d="M0 0h64.8v36H0z"/><path fill="#CE261E" d="M0 33.3h64.8V36H0z"/><path fill="#fff" d="M13.8 10.57c0 .64-.11 1.23-.32 1.77a4.2 4.2 0 0 1-.9 1.4 4.08 4.08 0 0 1-1.38.94c-.54.22-1.14.33-1.8.33-.65 0-1.25-.11-1.8-.33a4.15 4.15 0 0 1-1.39-.93 4.2 4.2 0 0 1-.9-1.4A4.83 4.83 0 0 1 5 10.56c0-.63.1-1.22.32-1.76a4.18 4.18 0 0 1 .9-1.4 4.08 4.08 0 0 1 1.38-.93 4.68 4.68 0 0 1 1.8-.34c.66 0 1.26.11 1.8.34a4.08 4.08 0 0 1 2.28 2.33c.21.54.32 1.13.32 1.76Zm-1.66 0c0-.47-.06-.9-.2-1.27a2.67 2.67 0 0 0-.53-.97 2.33 2.33 0 0 0-.87-.6A2.94 2.94 0 0 0 9.4 7.5c-.42 0-.8.07-1.14.21-.34.14-.63.35-.87.61a2.74 2.74 0 0 0-.55.97 3.96 3.96 0 0 0-.19 1.27c0 .48.06.9.2 1.29a2.42 2.42 0 0 0 1.42 1.56c.33.14.71.2 1.13.2.43 0 .8-.06 1.14-.2a2.37 2.37 0 0 0 1.4-1.56 4.01 4.01 0 0 0 .2-1.29Zm3.96-1.81v3.9c0 .39.09.68.26.89.18.2.44.3.79.3.25 0 .5-.06.72-.17a2.58 2.58 0 0 0 .63-.47V8.76H20v6.15h-.91c-.2 0-.32-.09-.38-.27l-.1-.49a4.65 4.65 0 0 1-.4.35 2.58 2.58 0 0 1-.43.27 2.35 2.35 0 0 1-.5.17 2.35 2.35 0 0 1-.57.07c-.34 0-.64-.06-.9-.17a1.82 1.82 0 0 1-.64-.49 2.16 2.16 0 0 1-.4-.73 3.23 3.23 0 0 1-.14-.95V8.76h1.48Zm5.23 6.15V8.76h.87c.15 0 .26.02.32.08s.1.15.12.29l.09.74c.22-.38.47-.68.77-.9.3-.22.63-.33 1-.33.3 0 .55.07.75.21l-.19 1.11c-.01.07-.04.13-.08.16a.28.28 0 0 1-.16.04 1.01 1.01 0 0 1-.25-.04 1.65 1.65 0 0 0-.41-.04c-.3 0-.57.08-.8.25-.21.17-.4.42-.55.75v3.83h-1.48Zm6.02-8.67h1.35a.57.57 0 0 1 .35.1c.1.06.16.15.2.26l1.47 5.2a10.12 10.12 0 0 1 .19.9 5.97 5.97 0 0 1 .22-.9l1.7-5.2a.57.57 0 0 1 .2-.25.54.54 0 0 1 .34-.11h.48a.57.57 0 0 1 .34.1.5.5 0 0 1 .2.26l1.69 5.2c.08.25.16.53.22.85a31.71 31.71 0 0 1 .19-.86l1.47-5.19c.03-.1.1-.18.19-.25a.56.56 0 0 1 .34-.11h1.27l-2.7 8.67h-1.45L33.7 9l-.08-.25a9.5 9.5 0 0 1-.07-.28 4.04 4.04 0 0 1-.15.53L31.5 14.9h-1.46l-2.7-8.67Zm15.42 2.42c.46 0 .88.07 1.25.22s.7.36.96.63.47.6.61 1 .22.83.22 1.31c0 .5-.08.93-.22 1.32a2.85 2.85 0 0 1-.61 1 2.65 2.65 0 0 1-.96.64 3.35 3.35 0 0 1-1.25.22 3.4 3.4 0 0 1-1.25-.22 2.71 2.71 0 0 1-.97-.63 2.92 2.92 0 0 1-.62-1 3.8 3.8 0 0 1-.21-1.33c0-.48.07-.92.21-1.31a2.75 2.75 0 0 1 1.58-1.63 3.4 3.4 0 0 1 1.26-.22Zm0 5.2c.51 0 .9-.17 1.13-.51.25-.35.38-.85.38-1.52s-.13-1.17-.38-1.51c-.24-.35-.62-.53-1.13-.53-.52 0-.9.18-1.15.53-.25.35-.37.85-.37 1.51s.12 1.17.37 1.52c.25.34.63.51 1.15.51Zm3.95 1.05V8.76h.87c.15 0 .26.02.32.08s.1.15.12.29l.1.74c.21-.38.47-.68.76-.9.3-.22.63-.33 1-.33.3 0 .56.07.76.21l-.2 1.11c0 .07-.03.13-.07.16a.28.28 0 0 1-.17.04 1.01 1.01 0 0 1-.24-.04 1.65 1.65 0 0 0-.42-.04c-.3 0-.57.08-.79.25-.22.17-.4.42-.56.75v3.83h-1.48ZM52.96 6v8.91h-1.48V6h1.48Zm5.77 8.91c-.19 0-.32-.09-.38-.27l-.12-.6a3.68 3.68 0 0 1-.4.4 2.5 2.5 0 0 1-.98.5 2.37 2.37 0 0 1-.6.06c-.33 0-.64-.07-.92-.2a2.1 2.1 0 0 1-.73-.61 3.03 3.03 0 0 1-.46-1 5.07 5.07 0 0 1-.17-1.34c0-.45.07-.88.19-1.27s.3-.73.53-1.02c.24-.29.51-.51.84-.67a2.38 2.38 0 0 1 1.09-.25 2.1 2.1 0 0 1 1.54.6V6h1.48v8.91h-.9Zm-1.97-1.08c.3 0 .57-.07.78-.2.22-.12.42-.3.62-.54v-2.76a1.45 1.45 0 0 0-.56-.43 1.6 1.6 0 0 0-.63-.13c-.23 0-.43.04-.61.13a1.21 1.21 0 0 0-.47.38c-.12.17-.22.39-.28.65a4.3 4.3 0 0 0-.02 1.84c.06.25.14.45.25.61.1.16.24.27.4.34.15.07.33.1.52.1Zm-40.43 6.93v6.15h-1.48v-6.15h1.48Zm.22-1.8a.84.84 0 0 1-.07.36.96.96 0 0 1-.21.3 1 1 0 0 1-.3.2.96.96 0 0 1-.38.07.95.95 0 0 1-.36-.07 1.02 1.02 0 0 1-.5-.5.96.96 0 0 1 0-.73 1 1 0 0 1 .2-.3.93.93 0 0 1 .3-.2.9.9 0 0 1 .73 0 .91.91 0 0 1 .3.2.94.94 0 0 1 .3.67Zm1.22 7.95v-6.15h.9c.2 0 .32.09.38.27l.1.48a2.93 2.93 0 0 1 .84-.61 2.3 2.3 0 0 1 1.07-.24c.34 0 .63.06.9.18.25.1.47.27.64.48.18.2.3.45.4.73.09.29.13.6.13.95v3.91h-1.48V23c0-.38-.08-.67-.26-.87-.17-.21-.43-.32-.78-.32-.26 0-.5.06-.72.18a2.58 2.58 0 0 0-.64.47v4.45h-1.48Zm16.45-4.34c0 .64-.1 1.22-.32 1.76-.21.53-.5.99-.9 1.37a4 4 0 0 1-1.38.9 4.87 4.87 0 0 1-1.8.31h-3.3v-8.67h3.3a4.79 4.79 0 0 1 1.8.32 4 4 0 0 1 1.39.9c.38.37.68.83.9 1.36.2.53.31 1.12.31 1.75Zm-1.65 0c0-.47-.06-.9-.2-1.27a2.68 2.68 0 0 0-.54-.96 2.33 2.33 0 0 0-.86-.6 2.94 2.94 0 0 0-1.14-.22h-1.69v6.1h1.69c.42 0 .8-.06 1.14-.2.34-.14.63-.34.86-.6a2.75 2.75 0 0 0 .55-.96 4.01 4.01 0 0 0 .19-1.29Zm7.41 4.34h-.67a.75.75 0 0 1-.33-.06c-.07-.04-.13-.13-.17-.25l-.14-.44c-.15.14-.3.26-.46.37a2.8 2.8 0 0 1-.46.26c-.16.08-.33.13-.51.17a3.07 3.07 0 0 1-1.32-.05 1.62 1.62 0 0 1-.57-.32 1.45 1.45 0 0 1-.37-.52 1.85 1.85 0 0 1-.13-.73c0-.23.06-.46.18-.68.12-.23.33-.44.61-.62.29-.18.67-.33 1.14-.45a8.01 8.01 0 0 1 1.75-.2v-.36c0-.42-.08-.72-.26-.92-.17-.2-.42-.3-.76-.3a1.84 1.84 0 0 0-1.01.28l-.33.19a.66.66 0 0 1-.33.08.43.43 0 0 1-.26-.08.61.61 0 0 1-.17-.2l-.27-.46c.7-.65 1.56-.98 2.56-.98.36 0 .68.06.96.18a1.99 1.99 0 0 1 1.16 1.25c.1.29.16.6.16.96v3.88ZM37.1 26c.15 0 .3-.01.42-.04a1.81 1.81 0 0 0 .69-.33c.1-.09.22-.19.32-.3v-1.04c-.43.02-.79.06-1.08.12a2.8 2.8 0 0 0-.7.2.92.92 0 0 0-.37.3.66.66 0 0 0-.11.36c0 .26.07.45.22.56.16.11.36.17.61.17ZM43.22 27c-.53 0-.94-.15-1.23-.45-.29-.3-.43-.72-.43-1.25v-3.44h-.63a.31.31 0 0 1-.2-.08c-.06-.05-.09-.13-.09-.23v-.6l.99-.15.31-1.68a.3.3 0 0 1 .11-.2.36.36 0 0 1 .22-.06h.77v1.94h1.62v1.06h-1.62v3.33c0 .2.05.35.14.45a.49.49 0 0 0 .39.17.73.73 0 0 0 .39-.1l.12-.07a.2.2 0 0 1 .11-.04.16.16 0 0 1 .11.04c.03.02.06.05.09.1l.44.71c-.21.18-.46.32-.74.41a2.77 2.77 0 0 1-.87.14Zm7.2-.1h-.66a.75.75 0 0 1-.33-.06c-.08-.04-.14-.13-.18-.25l-.13-.44c-.16.14-.31.26-.47.37a2.8 2.8 0 0 1-.46.26c-.16.08-.33.13-.5.17a3.07 3.07 0 0 1-1.33-.05 1.62 1.62 0 0 1-.57-.32 1.45 1.45 0 0 1-.36-.52 1.85 1.85 0 0 1-.14-.73c0-.23.06-.46.18-.68.13-.23.33-.44.62-.62.28-.18.66-.33 1.13-.45a8.01 8.01 0 0 1 1.76-.2v-.36c0-.42-.1-.72-.27-.92-.17-.2-.42-.3-.75-.3a1.84 1.84 0 0 0-1.02.28l-.33.19a.66.66 0 0 1-.33.08.43.43 0 0 1-.25-.08.61.61 0 0 1-.18-.2l-.27-.46c.7-.65 1.56-.98 2.56-.98.36 0 .68.06.96.18a1.99 1.99 0 0 1 1.17 1.25c.1.29.15.6.15.96v3.88ZM47.54 26c.16 0 .3-.01.42-.04a1.88 1.88 0 0 0 .69-.33l.33-.3v-1.04c-.44.02-.8.06-1.09.12a2.8 2.8 0 0 0-.7.2.92.92 0 0 0-.37.3.66.66 0 0 0-.11.36c0 .26.08.45.23.56.15.11.36.17.6.17Z"/></svg></g><a href="/grapher/global-cropland" rel="noopener" style="font-family:&quot;Playfair Display&quot;,Georgia,&quot;Times New Roman&quot;,&quot;Liberation Serif&quot;,serif" target="_blank"><text x="16" y="40" fill="#5b5b5b" font-size="24.75" font-weight="600"><tspan x="16" y="40.01">Global cropland is still increasing, World</tspan></text></a><g class="markdown-text-wrap"><text x="16" y="63.9" fill="#5b5b5b" style="font-size:14.625px;line-height:1.2"><tspan x="16" y="63.9">Cropland is land used to grow crops, excluding pasture used for livestock grazing.</tspan></text></g></g><g style="pointer-events:none"><g class="LineChart"><defs><clipPath id="boundsClip-36"><path d="M94.57 73.25h838V543.6h-838z"/></clipPath></defs><path fill="none" d="M16 83.25h818V533.6H16z"/><g class="DualAxisView"><g class="HorizontalAxis"><path stroke="#999" stroke-width="1" d="M104.6 513.1v5M634.3 513.1v5M168.9 513.1v5M233.3 513.1v5M297.7 513.1v5M362 513.1v5M426.4 513.1v5M490.8 513.1v5M555.1 513.1v5"/><text x="104.57" y="531.6" fill="#5b5b5b" font-size="13.5" text-anchor="start">1200</text><text x="634.3" y="531.6" fill="#5b5b5b" font-size="13.5" text-anchor="end">2023</text><text x="168.9" y="531.6" fill="#5b5b5b" font-size="13.5" text-anchor="middle">1300</text><text x="233.3" y="531.6" fill="#5b5b5b" font-size="13.5" text-anchor="middle">1400</text><text x="297.7" y="531.6" fill="#5b5b5b" font-size="13.5" text-anchor="middle">1500</text><text x="362" y="531.6" fill="#5b5b5b" font-size="13.5" text-anchor="middle">1600</text><text x="426.4" y="531.6" fill="#5b5b5b" font-size="13.5" text-anchor="middle">1700</text><text x="490.8" y="531.6" fill="#5b5b5b" font-size="13.5" text-anchor="middle">1800</text><text x="555.1" y="531.6" fill="#5b5b5b" font-size="13.5" text-anchor="middle">1900</text></g><g class="VerticalAxis"><text x="99.57" y="513.1" fill="#5b5b5b" dy=".32em" font-size="13.5" text-anchor="end">0 ha</text><text x="99.57" y="466" fill="#5b5b5b" dy=".32em" font-size="13.5" text-anchor="end">200 million ha</text><text x="99.57" y="418.9" fill="#5b5b5b" dy=".32em" font-size="13.5" text-anchor="end">400 million ha</text><text x="99.57" y="371.8" fill="#5b5b5b" dy=".32em" font-size="13.5" text-anchor="end">600 million ha</text><text x="99.57" y="324.7" fill="#5b5b5b" dy=".32em" font-size="13.5" text-anchor="end">800 million ha</text><text x="99.57" y="277.6" fill="#5b5b5b" dy=".32em" font-size="13.5" text-anchor="end">1 billion ha</text><text x="99.57" y="230.5" fill="#5b5b5b" dy=".32em" font-size="13.5" text-anchor="end">1.2 billion ha</text><text x="99.57" y="183.4" fill="#5b5b5b" dy=".32em" font-size="13.5" text-anchor="end">1.4 billion ha</text><text x="99.57" y="136.3" fill="#5b5b5b" dy=".32em" font-size="13.5" text-anchor="end">1.6 billion ha</text><text x="99.57" y="89.3" fill="#5b5b5b" dy=".32em" font-size="13.5" text-anchor="end">1.8 billion ha</text></g><g class="AxisGridLines horizontalLines"><path stroke="#999" stroke-width="1" d="M104.57 513.1H634.3"/><path stroke="#ddd" stroke-dasharray="3,2" stroke-width="1" d="M104.57 466H634.3M104.57 418.9H634.3M104.57 371.8H634.3M104.57 324.7H634.3M104.57 277.6H634.3M104.57 230.5H634.3M104.57 183.4H634.3M104.57 136.3H634.3M104.57 89.3H634.3"/></g></g><g clip-path="url(#boundsClip-36)"><g class="LineLabels" style="cursor:default"><g class="legendMark"><text x="638.3" y="132.8" fill="#9a5129" font-size="13.5" font-weight="400"><tspan x="638.3" y="132.84">HYDE 3.3 (Goldewijk et al.)</tspan></text></g><g class="legendMark"><text x="638.3" y="148.3" fill="#97091d" font-size="13.5" font-weight="400"><tspan x="638.3" y="148.34">UN FAO</tspan></text></g><g class="legendMark"><text x="638.3" y="192.1" fill="#3c4e66" font-size="13.5" font-weight="400"><tspan x="638.3" y="192.09">Taylor and Rising (2021)</tspan></text></g></g><g class="Lines"><g><path fill="none" stroke="#ddd" stroke-linecap="round" stroke-linejoin="round" stroke-width="1" d="m104.6 450.3 64.3-.8 64.4 5.6 64.4-8.5 64.3-3.9 64.4-7 6.4-3.3 6.5-3.4 6.4-3.2 6.4-3.1 6.5-3.2 6.4-3.2 6.5-3.3 6.4-3.7 6.4-4 6.5-4.5 6.4-5.4 6.4-5.9 6.5-6.7 6.4-8.7 6.4-7.8 6.5-10.7 6.4-8 6.5-16.1 6.4-15.6 6.4-14.8 6.5-22.2 6.4-9.4 6.4-18.2 6.5-15.3 6.4-6.5.7-2.6.6-3 .6-3.2.7-3.2.6-3.3.7-3.4.6-3.5.7-3.5.6-3.4.6-2.2.7-2 .6-.4.7-1.8.6-.5.7-1.3.6.7.7-.8.6-2.8.6-3.6.7 1 .6 1.1.7.2.6-1.4.7.6.6.4.6-.9.7.5.6-1.4.7-.5.6-.5.7-.1.6-2.6.7-1.1.6-4.3.6-3.9.7-2.2.6-1.5.7-.6.6-.7.7-1.2.6-1.3.6.6.7-.7.6-.2.7-.6h.6l.7-1.4h.6l.7-.8h.6l.6.8.7.9.6-.4.7-1.5.6-2.1.7.8.6-.2.6-.9.7-.7.6-1.4.7-2.9.6-2.9.7-1.1.6-1 .7-4.4.6-1.5.6-1.7.7-2.5.6-.7.7-2.1.6-2.3.7-2.2.6-2.1"/></g><g><path fill="none" stroke="#ddd" stroke-linecap="round" stroke-linejoin="round" stroke-width="1" d="m594.4 195.8.6-.7.7-1.3.6-.5.7-.8.6.1.7-.4.6-2.9.6-1.9.7.3.6.7.7-1.4.6-.5.7-.7.6-.1.6-1.6.7-1.5.6-2.6.7-1.5.6-.8.7-1 .6-2.4.7-1.4.6-3.7.6-3.4.7-.7.6-.8.7.1.6-.1.7-.5.6-.6.6.5.7-.1.6.1.7-.1.6-.1.7-1.4.6-.1.7-1 .6.3.6-.7.7.2.6-1.3.7-1.2.6-1.4.7.1.6-.5.6-.2.7-1.8.6-.6.7-2.4.6-1.7.7-1.1.6-.9.7-1.4.6-.7.6-1.5.7-1 .6-.1.7-1.1.6-.9"/></g><g><path fill="none" stroke="#ddd" stroke-linecap="round" stroke-linejoin="round" stroke-width="1" d="m477.9 429.7 6.4-2.9 6.5-3.2 6.4-4 6.4-4.5 6.5-5.7 6.4-7.6 6.4-8.2 6.5-9.1 6.4-7.1 6.5-14.9 6.4-14.7 6.4-15.2 6.5-18.4 6.4-11.8 6.4-17.5 6.5-16 6.4-11.4 6.4-31.1 6.5-9.2 6.4-3.8 6.5-9.8 6.4-7.1 6.4-9.4"/></g><g><path fill="none" stroke="#fff" stroke-linecap="butt" stroke-linejoin="round" stroke-width="2.5" d="m104.6 450.3 64.3-.8 64.4 5.6 64.4-8.5 64.3-3.9 64.4-7 6.4-3.3 6.5-3.4 6.4-3.2 6.4-3.1 6.5-3.2 6.4-3.2 6.5-3.3 6.4-3.7 6.4-4 6.5-4.5 6.4-5.4 6.4-5.9 6.5-6.7 6.4-8.7 6.4-7.8 6.5-10.7 6.4-8 6.5-16.1 6.4-15.6 6.4-14.8 6.5-22.2 6.4-9.4 6.4-18.2 6.5-15.3 6.4-6.5.7-2.6.6-3 .6-3.2.7-3.2.6-3.3.7-3.4.6-3.5.7-3.5.6-3.4.6-2.2.7-2 .6-.4.7-1.8.6-.5.7-1.3.6.7.7-.8.6-2.8.6-3.6.7 1 .6 1.1.7.2.6-1.4.7.6.6.4.6-.9.7.5.6-1.4.7-.5.6-.5.7-.1.6-2.6.7-1.1.6-4.3.6-3.9.7-2.2.6-1.5.7-.6.6-.7.7-1.2.6-1.3.6.6.7-.7.6-.2.7-.6h.6l.7-1.4h.6l.7-.8h.6l.6.8.7.9.6-.4.7-1.5.6-2.1.7.8.6-.2.6-.9.7-.7.6-1.4.7-2.9.6-2.9.7-1.1.6-1 .7-4.4.6-1.5.6-1.7.7-2.5.6-.7.7-2.1.6-2.3.7-2.2.6-2.1"/><path fill="none" stroke="#9a5129" stroke-linecap="butt" stroke-linejoin="round" stroke-width="1.5" d="m104.6 450.3 64.3-.8 64.4 5.6 64.4-8.5 64.3-3.9 64.4-7 6.4-3.3 6.5-3.4 6.4-3.2 6.4-3.1 6.5-3.2 6.4-3.2 6.5-3.3 6.4-3.7 6.4-4 6.5-4.5 6.4-5.4 6.4-5.9 6.5-6.7 6.4-8.7 6.4-7.8 6.5-10.7 6.4-8 6.5-16.1 6.4-15.6 6.4-14.8 6.5-22.2 6.4-9.4 6.4-18.2 6.5-15.3 6.4-6.5.7-2.6.6-3 .6-3.2.7-3.2.6-3.3.7-3.4.6-3.5.7-3.5.6-3.4.6-2.2.7-2 .6-.4.7-1.8.6-.5.7-1.3.6.7.7-.8.6-2.8.6-3.6.7 1 .6 1.1.7.2.6-1.4.7.6.6.4.6-.9.7.5.6-1.4.7-.5.6-.5.7-.1.6-2.6.7-1.1.6-4.3.6-3.9.7-2.2.6-1.5.7-.6.6-.7.7-1.2.6-1.3.6.6.7-.7.6-.2.7-.6h.6l.7-1.4h.6l.7-.8h.6l.6.8.7.9.6-.4.7-1.5.6-2.1.7.8.6-.2.6-.9.7-.7.6-1.4.7-2.9.6-2.9.7-1.1.6-1 .7-4.4.6-1.5.6-1.7.7-2.5.6-.7.7-2.1.6-2.3.7-2.2.6-2.1"/><g><circle cx="104.6" cy="450.3" r="1.8" fill="#9a5129"/><circle cx="168.9" cy="449.5" r="1.8" fill="#9a5129"/><circle cx="233.3" cy="455.1" r="1.8" fill="#9a5129"/><circle cx="297.7" cy="446.6" r="1.8" fill="#9a5129"/><circle cx="362" cy="442.7" r="1.8" fill="#9a5129"/><circle cx="426.4" cy="435.7" r="1.8" fill="#9a5129"/><circle cx="432.8" cy="432.4" r="1.8" fill="#9a5129"/><circle cx="439.3" cy="429" r="1.8" fill="#9a5129"/><circle cx="445.7" cy="425.8" r="1.8" fill="#9a5129"/><circle cx="452.1" cy="422.7" r="1.8" fill="#9a5129"/><circle cx="458.6" cy="419.5" r="1.8" fill="#9a5129"/><circle cx="465" cy="416.3" r="1.8" fill="#9a5129"/><circle cx="471.5" cy="413" r="1.8" fill="#9a5129"/><circle cx="477.9" cy="409.3" r="1.8" fill="#9a5129"/><circle cx="484.3" cy="405.3" r="1.8" fill="#9a5129"/><circle cx="490.8" cy="400.8" r="1.8" fill="#9a5129"/><circle cx="497.2" cy="395.4" r="1.8" fill="#9a5129"/><circle cx="503.6" cy="389.5" r="1.8" fill="#9a5129"/><circle cx="510.1" cy="382.8" r="1.8" fill="#9a5129"/><circle cx="516.5" cy="374.1" r="1.8" fill="#9a5129"/><circle cx="522.9" cy="366.3" r="1.8" fill="#9a5129"/><circle cx="529.4" cy="355.6" r="1.8" fill="#9a5129"/><circle cx="535.8" cy="347.6" r="1.8" fill="#9a5129"/><circle cx="542.3" cy="331.5" r="1.8" fill="#9a5129"/><circle cx="548.7" cy="315.9" r="1.8" fill="#9a5129"/><circle cx="555.1" cy="301.1" r="1.8" fill="#9a5129"/><circle cx="561.6" cy="278.9" r="1.8" fill="#9a5129"/><circle cx="568" cy="269.5" r="1.8" fill="#9a5129"/><circle cx="574.4" cy="251.3" r="1.8" fill="#9a5129"/><circle cx="580.9" cy="236" r="1.8" fill="#9a5129"/><circle cx="587.3" cy="229.5" r="1.8" fill="#9a5129"/><circle cx="588" cy="226.9" r="1.8" fill="#9a5129"/><circle cx="588.6" cy="223.9" r="1.8" fill="#9a5129"/><circle cx="589.2" cy="220.7" r="1.8" fill="#9a5129"/><circle cx="589.9" cy="217.5" r="1.8" fill="#9a5129"/><circle cx="590.5" cy="214.2" r="1.8" fill="#9a5129"/><circle cx="591.2" cy="210.8" r="1.8" fill="#9a5129"/><circle cx="591.8" cy="207.3" r="1.8" fill="#9a5129"/><circle cx="592.5" cy="203.8" r="1.8" fill="#9a5129"/><circle cx="593.1" cy="200.4" r="1.8" fill="#9a5129"/><circle cx="593.7" cy="198.2" r="1.8" fill="#9a5129"/><circle cx="594.4" cy="196.2" r="1.8" fill="#9a5129"/><circle cx="595" cy="195.8" r="1.8" fill="#9a5129"/><circle cx="595.7" cy="194" r="1.8" fill="#9a5129"/><circle cx="596.3" cy="193.5" r="1.8" fill="#9a5129"/><circle cx="597" cy="192.2" r="1.8" fill="#9a5129"/><circle cx="597.6" cy="192.9" r="1.8" fill="#9a5129"/><circle cx="598.3" cy="192.1" r="1.8" fill="#9a5129"/><circle cx="598.9" cy="189.3" r="1.8" fill="#9a5129"/><circle cx="599.5" cy="185.7" r="1.8" fill="#9a5129"/><circle cx="600.2" cy="186.7" r="1.8" fill="#9a5129"/><circle cx="600.8" cy="187.8" r="1.8" fill="#9a5129"/><circle cx="601.5" cy="188" r="1.8" fill="#9a5129"/><circle cx="602.1" cy="186.6" r="1.8" fill="#9a5129"/><circle cx="602.8" cy="187.2" r="1.8" fill="#9a5129"/><circle cx="603.4" cy="187.6" r="1.8" fill="#9a5129"/><circle cx="604" cy="186.7" r="1.8" fill="#9a5129"/><circle cx="604.7" cy="187.2" r="1.8" fill="#9a5129"/><circle cx="605.3" cy="185.8" r="1.8" fill="#9a5129"/><circle cx="606" cy="185.3" r="1.8" fill="#9a5129"/><circle cx="606.6" cy="184.8" r="1.8" fill="#9a5129"/><circle cx="607.3" cy="184.7" r="1.8" fill="#9a5129"/><circle cx="607.9" cy="182.1" r="1.8" fill="#9a5129"/><circle cx="608.6" cy="181" r="1.8" fill="#9a5129"/><circle cx="609.2" cy="176.7" r="1.8" fill="#9a5129"/><circle cx="609.8" cy="172.8" r="1.8" fill="#9a5129"/><circle cx="610.5" cy="170.6" r="1.8" fill="#9a5129"/><circle cx="611.1" cy="169.1" r="1.8" fill="#9a5129"/><circle cx="611.8" cy="168.5" r="1.8" fill="#9a5129"/><circle cx="612.4" cy="167.8" r="1.8" fill="#9a5129"/><circle cx="613.1" cy="166.6" r="1.8" fill="#9a5129"/><circle cx="613.7" cy="165.3" r="1.8" fill="#9a5129"/><circle cx="614.3" cy="165.9" r="1.8" fill="#9a5129"/><circle cx="615" cy="165.2" r="1.8" fill="#9a5129"/><circle cx="615.6" cy="165" r="1.8" fill="#9a5129"/><circle cx="616.3" cy="164.4" r="1.8" fill="#9a5129"/><circle cx="616.9" cy="164.4" r="1.8" fill="#9a5129"/><circle cx="617.6" cy="163" r="1.8" fill="#9a5129"/><circle cx="618.2" cy="163" r="1.8" fill="#9a5129"/><circle cx="618.9" cy="162.2" r="1.8" fill="#9a5129"/><circle cx="619.5" cy="162.2" r="1.8" fill="#9a5129"/><circle cx="620.1" cy="163" r="1.8" fill="#9a5129"/><circle cx="620.8" cy="163.9" r="1.8" fill="#9a5129"/><circle cx="621.4" cy="163.5" r="1.8" fill="#9a5129"/><circle cx="622.1" cy="162" r="1.8" fill="#9a5129"/><circle cx="622.7" cy="159.9" r="1.8" fill="#9a5129"/><circle cx="623.4" cy="160.7" r="1.8" fill="#9a5129"/><circle cx="624" cy="160.5" r="1.8" fill="#9a5129"/><circle cx="624.6" cy="159.6" r="1.8" fill="#9a5129"/><circle cx="625.3" cy="158.9" r="1.8" fill="#9a5129"/><circle cx="625.9" cy="157.5" r="1.8" fill="#9a5129"/><circle cx="626.6" cy="154.6" r="1.8" fill="#9a5129"/><circle cx="627.2" cy="151.7" r="1.8" fill="#9a5129"/><circle cx="627.9" cy="150.6" r="1.8" fill="#9a5129"/><circle cx="628.5" cy="149.6" r="1.8" fill="#9a5129"/><circle cx="629.2" cy="145.2" r="1.8" fill="#9a5129"/><circle cx="629.8" cy="143.7" r="1.8" fill="#9a5129"/><circle cx="630.4" cy="142" r="1.8" fill="#9a5129"/><circle cx="631.1" cy="139.5" r="1.8" fill="#9a5129"/><circle cx="631.7" cy="138.8" r="1.8" fill="#9a5129"/><circle cx="632.4" cy="136.7" r="1.8" fill="#9a5129"/><circle cx="633" cy="134.4" r="1.8" fill="#9a5129"/><circle cx="633.7" cy="132.2" r="1.8" fill="#9a5129"/><circle cx="634.3" cy="130.1" r="1.8" fill="#9a5129"/></g></g><g><path fill="none" stroke="#fff" stroke-linecap="butt" stroke-linejoin="round" stroke-width="2.5" d="m594.4 195.8.6-.7.7-1.3.6-.5.7-.8.6.1.7-.4.6-2.9.6-1.9.7.3.6.7.7-1.4.6-.5.7-.7.6-.1.6-1.6.7-1.5.6-2.6.7-1.5.6-.8.7-1 .6-2.4.7-1.4.6-3.7.6-3.4.7-.7.6-.8.7.1.6-.1.7-.5.6-.6.6.5.7-.1.6.1.7-.1.6-.1.7-1.4.6-.1.7-1 .6.3.6-.7.7.2.6-1.3.7-1.2.6-1.4.7.1.6-.5.6-.2.7-1.8.6-.6.7-2.4.6-1.7.7-1.1.6-.9.7-1.4.6-.7.6-1.5.7-1 .6-.1.7-1.1.6-.9"/><path fill="none" stroke="#97091d" stroke-linecap="butt" stroke-linejoin="round" stroke-width="1.5" d="m594.4 195.8.6-.7.7-1.3.6-.5.7-.8.6.1.7-.4.6-2.9.6-1.9.7.3.6.7.7-1.4.6-.5.7-.7.6-.1.6-1.6.7-1.5.6-2.6.7-1.5.6-.8.7-1 .6-2.4.7-1.4.6-3.7.6-3.4.7-.7.6-.8.7.1.6-.1.7-.5.6-.6.6.5.7-.1.6.1.7-.1.6-.1.7-1.4.6-.1.7-1 .6.3.6-.7.7.2.6-1.3.7-1.2.6-1.4.7.1.6-.5.6-.2.7-1.8.6-.6.7-2.4.6-1.7.7-1.1.6-.9.7-1.4.6-.7.6-1.5.7-1 .6-.1.7-1.1.6-.9"/><g><circle cx="594.4" cy="195.8" r="1.8" fill="#97091d"/><circle cx="595" cy="195.1" r="1.8" fill="#97091d"/><circle cx="595.7" cy="193.8" r="1.8" fill="#97091d"/><circle cx="596.3" cy="193.3" r="1.8" fill="#97091d"/><circle cx="597" cy="192.5" r="1.8" fill="#97091d"/><circle cx="597.6" cy="192.6" r="1.8" fill="#97091d"/><circle cx="598.3" cy="192.2" r="1.8" fill="#97091d"/><circle cx="598.9" cy="189.3" r="1.8" fill="#97091d"/><circle cx="599.5" cy="187.4" r="1.8" fill="#97091d"/><circle cx="600.2" cy="187.7" r="1.8" fill="#97091d"/><circle cx="600.8" cy="188.4" r="1.8" fill="#97091d"/><circle cx="601.5" cy="187" r="1.8" fill="#97091d"/><circle cx="602.1" cy="186.5" r="1.8" fill="#97091d"/><circle cx="602.8" cy="185.8" r="1.8" fill="#97091d"/><circle cx="603.4" cy="185.7" r="1.8" fill="#97091d"/><circle cx="604" cy="184.1" r="1.8" fill="#97091d"/><circle cx="604.7" cy="182.6" r="1.8" fill="#97091d"/><circle cx="605.3" cy="180" r="1.8" fill="#97091d"/><circle cx="606" cy="178.5" r="1.8" fill="#97091d"/><circle cx="606.6" cy="177.7" r="1.8" fill="#97091d"/><circle cx="607.3" cy="176.7" r="1.8" fill="#97091d"/><circle cx="607.9" cy="174.3" r="1.8" fill="#97091d"/><circle cx="608.6" cy="172.9" r="1.8" fill="#97091d"/><circle cx="609.2" cy="169.2" r="1.8" fill="#97091d"/><circle cx="609.8" cy="165.8" r="1.8" fill="#97091d"/><circle cx="610.5" cy="165.1" r="1.8" fill="#97091d"/><circle cx="611.1" cy="164.3" r="1.8" fill="#97091d"/><circle cx="611.8" cy="164.4" r="1.8" fill="#97091d"/><circle cx="612.4" cy="164.3" r="1.8" fill="#97091d"/><circle cx="613.1" cy="163.8" r="1.8" fill="#97091d"/><circle cx="613.7" cy="163.2" r="1.8" fill="#97091d"/><circle cx="614.3" cy="163.7" r="1.8" fill="#97091d"/><circle cx="615" cy="163.6" r="1.8" fill="#97091d"/><circle cx="615.6" cy="163.7" r="1.8" fill="#97091d"/><circle cx="616.3" cy="163.6" r="1.8" fill="#97091d"/><circle cx="616.9" cy="163.5" r="1.8" fill="#97091d"/><circle cx="617.6" cy="162.1" r="1.8" fill="#97091d"/><circle cx="618.2" cy="162" r="1.8" fill="#97091d"/><circle cx="618.9" cy="161" r="1.8" fill="#97091d"/><circle cx="619.5" cy="161.3" r="1.8" fill="#97091d"/><circle cx="620.1" cy="160.6" r="1.8" fill="#97091d"/><circle cx="620.8" cy="160.8" r="1.8" fill="#97091d"/><circle cx="621.4" cy="159.5" r="1.8" fill="#97091d"/><circle cx="622.1" cy="158.3" r="1.8" fill="#97091d"/><circle cx="622.7" cy="156.9" r="1.8" fill="#97091d"/><circle cx="623.4" cy="157" r="1.8" fill="#97091d"/><circle cx="624" cy="156.5" r="1.8" fill="#97091d"/><circle cx="624.6" cy="156.3" r="1.8" fill="#97091d"/><circle cx="625.3" cy="154.5" r="1.8" fill="#97091d"/><circle cx="625.9" cy="153.9" r="1.8" fill="#97091d"/><circle cx="626.6" cy="151.5" r="1.8" fill="#97091d"/><circle cx="627.2" cy="149.8" r="1.8" fill="#97091d"/><circle cx="627.9" cy="148.7" r="1.8" fill="#97091d"/><circle cx="628.5" cy="147.8" r="1.8" fill="#97091d"/><circle cx="629.2" cy="146.4" r="1.8" fill="#97091d"/><circle cx="629.8" cy="145.7" r="1.8" fill="#97091d"/><circle cx="630.4" cy="144.2" r="1.8" fill="#97091d"/><circle cx="631.1" cy="143.2" r="1.8" fill="#97091d"/><circle cx="631.7" cy="143.1" r="1.8" fill="#97091d"/><circle cx="632.4" cy="142" r="1.8" fill="#97091d"/><circle cx="633" cy="141.1" r="1.8" fill="#97091d"/></g></g><g><path fill="none" stroke="#fff" stroke-linecap="butt" stroke-linejoin="round" stroke-width="2.5" d="m477.9 429.7 6.4-2.9 6.5-3.2 6.4-4 6.4-4.5 6.5-5.7 6.4-7.6 6.4-8.2 6.5-9.1 6.4-7.1 6.5-14.9 6.4-14.7 6.4-15.2 6.5-18.4 6.4-11.8 6.4-17.5 6.5-16 6.4-11.4 6.4-31.1 6.5-9.2 6.4-3.8 6.5-9.8 6.4-7.1 6.4-9.4"/><path fill="none" stroke="#3c4e66" stroke-linecap="butt" stroke-linejoin="round" stroke-width="1.5" d="m477.9 429.7 6.4-2.9 6.5-3.2 6.4-4 6.4-4.5 6.5-5.7 6.4-7.6 6.4-8.2 6.5-9.1 6.4-7.1 6.5-14.9 6.4-14.7 6.4-15.2 6.5-18.4 6.4-11.8 6.4-17.5 6.5-16 6.4-11.4 6.4-31.1 6.5-9.2 6.4-3.8 6.5-9.8 6.4-7.1 6.4-9.4"/><g><circle cx="477.9" cy="429.7" r="1.8" fill="#3c4e66"/><circle cx="484.3" cy="426.8" r="1.8" fill="#3c4e66"/><circle cx="490.8" cy="423.6" r="1.8" fill="#3c4e66"/><circle cx="497.2" cy="419.6" r="1.8" fill="#3c4e66"/><circle cx="503.6" cy="415.1" r="1.8" fill="#3c4e66"/><circle cx="510.1" cy="409.4" r="1.8" fill="#3c4e66"/><circle cx="516.5" cy="401.8" r="1.8" fill="#3c4e66"/><circle cx="522.9" cy="393.6" r="1.8" fill="#3c4e66"/><circle cx="529.4" cy="384.5" r="1.8" fill="#3c4e66"/><circle cx="535.8" cy="377.4" r="1.8" fill="#3c4e66"/><circle cx="542.3" cy="362.5" r="1.8" fill="#3c4e66"/><circle cx="548.7" cy="347.8" r="1.8" fill="#3c4e66"/><circle cx="555.1" cy="332.6" r="1.8" fill="#3c4e66"/><circle cx="561.6" cy="314.2" r="1.8" fill="#3c4e66"/><circle cx="568" cy="302.4" r="1.8" fill="#3c4e66"/><circle cx="574.4" cy="284.9" r="1.8" fill="#3c4e66"/><circle cx="580.9" cy="268.9" r="1.8" fill="#3c4e66"/><circle cx="587.3" cy="257.5" r="1.8" fill="#3c4e66"/><circle cx="593.7" cy="226.4" r="1.8" fill="#3c4e66"/><circle cx="600.2" cy="217.2" r="1.8" fill="#3c4e66"/><circle cx="606.6" cy="213.4" r="1.8" fill="#3c4e66"/><circle cx="613.1" cy="203.6" r="1.8" fill="#3c4e66"/><circle cx="619.5" cy="196.5" r="1.8" fill="#3c4e66"/><circle cx="625.9" cy="187.1" r="1.8" fill="#3c4e66"/></g></g></g></g></g></g><g class="SourcesFooter" style="fill:#5b5b5b"><g class="markdown-text-wrap"><text x="16" y="562.7" style="font-size:13.5px;line-height:1.2"><tspan x="16" y="562.7"><tspan style="font-weight:700">Data source:</tspan> Taylor &amp; Rising (2021); Food and Agriculture Organization of the United Nations (2024); HYDE (2023)</tspan></text></g><text x="16" y="580.9" font-size="13.5"><tspan x="16" y="580.9"><a href="https://ourworldindata.org/land-use" style="fill:#5b5b5b" target="_blank">OurWorldInData.org/land-use</a> | <a href="https://creativecommons.org/licenses/by/4.0/" style="fill:#5b5b5b" target="_blank">CC BY</a></tspan></text></g></svg>