<svg xmlns="http://www.w3.org/2000/svg" width="850" height="600" style="font-family:Lato,&quot;Helvetica Neue&quot;,Helvetica,Arial,&quot;Liberation Sans&quot;,sans-serif;font-size:18px;background-color:#fff;text-rendering:geometricPrecision;-webkit-font-smoothing:antialiased" version="1.1" viewBox="0 0 850 600"><defs><style>@import url(/fonts.css);</style></defs><defs><pattern id="noDataPattern" width="4" height="4" patternTransform="rotate(-45 2 2)" patternUnits="userSpaceOnUse"><path stroke="#ccc" stroke-width=".7" d="M-1 2h6"/></pattern></defs><path fill="#fff" d="M0 0h850v600H0z" class="background-fill"/><g class="HeaderView"><g transform="translate(769 16)"><svg xmlns="http://www.w3.org/2000/svg" width="65" height="36" fill="none" className="owidLogo" viewBox="0 0 65 36"><path fill="#002147" d="M0 0h64.8v36H0z"/><path fill="#CE261E" d="M0 33.3h64.8V36H0z"/><path fill="#fff" d="M13.8 10.57c0 .64-.11 1.23-.32 1.77a4.2 4.2 0 0 1-.9 1.4 4.08 4.08 0 0 1-1.38.94c-.54.22-1.14.33-1.8.33-.65 0-1.25-.11-1.8-.33a4.15 4.15 0 0 1-1.39-.93 4.2 4.2 0 0 1-.9-1.4A4.83 4.83 0 0 1 5 10.56c0-.63.1-1.22.32-1.76a4.18 4.18 0 0 1 .9-1.4 4.08 4.08 0 0 1 1.38-.93 4.68 4.68 0 0 1 1.8-.34c.66 0 1.26.11 1.8.34a4.08 4.08 0 0 1 2.28 2.33c.21.54.32 1.13.32 1.76Zm-1.66 0c0-.47-.06-.9-.2-1.27a2.67 2.67 0 0 0-.53-.97 2.33 2.33 0 0 0-.87-.6A2.94 2.94 0 0 0 9.4 7.5c-.42 0-.8.07-1.14.21-.34.14-.63.35-.87.61a2.74 2.74 0 0 0-.55.97 3.96 3.96 0 0 0-.19 1.27c0 .48.06.9.2 1.29a2.42 2.42 0 0 0 1.42 1.56c.33.14.71.2 1.13.2.43 0 .8-.06 1.14-.2a2.37 2.37 0 0 0 1.4-1.56 4.01 4.01 0 0 0 .2-1.29Zm3.96-1.81v3.9c0 .39.09.68.26.89.18.2.44.3.79.3.25 0 .5-.06.72-.17a2.58 2.58 0 0 0 .63-.47V8.76H20v6.15h-.91c-.2 0-.32-.09-.38-.27l-.1-.49a4.65 4.65 0 0 1-.4.35 2.58 2.58 0 0 1-.43.27 2.35 2.35 0 0 1-.5.17 2.35 2.35 0 0 1-.57.07c-.34 0-.64-.06-.9-.17a1.82 1.82 0 0 1-.64-.49 2.16 2.16 0 0 1-.4-.73 3.23 3.23 0 0 1-.14-.95V8.76h1.48Zm5.23 6.15V8.76h.87c.15 0 .26.02.32.08s.1.15.12.29l.09.74c.22-.38.47-.68.77-.9.3-.22.63-.33 1-.33.3 0 .55.07.75.21l-.19 1.11c-.01.07-.04.13-.08.16a.28.28 0 0 1-.16.04 1.01 1.01 0 0 1-.25-.04 1.65 1.65 0 0 0-.41-.04c-.3 0-.57.08-.8.25-.21.17-.4.42-.55.75v3.83h-1.48Zm6.02-8.67h1.35a.57.57 0 0 1 .35.1c.1.06.16.15.2.26l1.47 5.2a10.12 10.12 0 0 1 .19.9 5.97 5.97 0 0 1 .22-.9l1.7-5.2a.57.57 0 0 1 .2-.25.54.54 0 0 1 .34-.11h.48a.57.57 0 0 1 .34.1.5.5 0 0 1 .2.26l1.69 5.2c.08.25.16.53.22.85a31.71 31.71 0 0 1 .19-.86l1.47-5.19c.03-.1.1-.18.19-.25a.56.56 0 0 1 .34-.11h1.27l-2.7 8.67h-1.45L33.7 9l-.08-.25a9.5 9.5 0 0 1-.07-.28 4.04 4.04 0 0 1-.15.53L31.5 14.9h-1.46l-2.7-8.67Zm15.42 2.42c.46 0 .88.07 1.25.22s.7.36.96.63.47.6.61 1 .22.83.22 1.31c0 .5-.08.93-.22 1.32a2.85 2.85 0 0 1-.61 1 2.65 2.65 0 0 1-.96.64 3.35 3.35 0 0 1-1.25.22 3.4 3.4 0 0 1-1.25-.22 2.71 2.71 0 0 1-.97-.63 2.92 2.92 0 0 1-.62-1 3.8 3.8 0 0 1-.21-1.33c0-.48.07-.92.21-1.31a2.75 2.75 0 0 1 1.58-1.63 3.4 3.4 0 0 1 1.26-.22Zm0 5.2c.51 0 .9-.17 1.13-.51.25-.35.38-.85.38-1.52s-.13-1.17-.38-1.51c-.24-.35-.62-.53-1.13-.53-.52 0-.9.18-1.15.53-.25.35-.37.85-.37 1.51s.12 1.17.37 1.52c.25.34.63.51 1.15.51Zm3.95 1.05V8.76h.87c.15 0 .26.02.32.08s.1.15.12.29l.1.74c.21-.38.47-.68.76-.9.3-.22.63-.33 1-.33.3 0 .56.07.76.21l-.2 1.11c0 .07-.03.13-.07.16a.28.28 0 0 1-.17.04 1.01 1.01 0 0 1-.24-.04 1.65 1.65 0 0 0-.42-.04c-.3 0-.57.08-.79.25-.22.17-.4.42-.56.75v3.83h-1.48ZM52.96 6v8.91h-1.48V6h1.48Zm5.77 8.91c-.19 0-.32-.09-.38-.27l-.12-.6a3.68 3.68 0 0 1-.4.4 2.5 2.5 0 0 1-.98.5 2.37 2.37 0 0 1-.6.06c-.33 0-.64-.07-.92-.2a2.1 2.1 0 0 1-.73-.61 3.03 3.03 0 0 1-.46-1 5.07 5.07 0 0 1-.17-1.34c0-.45.07-.88.19-1.27s.3-.73.53-1.02c.24-.29.51-.51.84-.67a2.38 2.38 0 0 1 1.09-.25 2.1 2.1 0 0 1 1.54.6V6h1.48v8.91h-.9Zm-1.97-1.08c.3 0 .57-.07.78-.2.22-.12.42-.3.62-.54v-2.76a1.45 1.45 0 0 0-.56-.43 1.6 1.6 0 0 0-.63-.13c-.23 0-.43.04-.61.13a1.21 1.21 0 0 0-.47.38c-.12.17-.22.39-.28.65a4.3 4.3 0 0 0-.02 1.84c.06.25.14.45.25.61.1.16.24.27.4.34.15.07.33.1.52.1Zm-40.43 6.93v6.15h-1.48v-6.15h1.48Zm.22-1.8a.84.84 0 0 1-.07.36.96.96 0 0 1-.21.3 1 1 0 0 1-.3.2.96.96 0 0 1-.38.07.95.95 0 0 1-.36-.07 1.02 1.02 0 0 1-.5-.5.96.96 0 0 1 0-.73 1 1 0 0 1 .2-.3.93.93 0 0 1 .3-.2.9.9 0 0 1 .73 0 .91.91 0 0 1 .3.2.94.94 0 0 1 .3.67Zm1.22 7.95v-6.15h.9c.2 0 .32.09.38.27l.1.48a2.93 2.93 0 0 1 .84-.61 2.3 2.3 0 0 1 1.07-.24c.34 0 .63.06.9.18.25.1.47.27.64.48.18.2.3.45.4.73.09.29.13.6.13.95v3.91h-1.48V23c0-.38-.08-.67-.26-.87-.17-.21-.43-.32-.78-.32-.26 0-.5.06-.72.18a2.58 2.58 0 0 0-.64.47v4.45h-1.48Zm16.45-4.34c0 .64-.1 1.22-.32 1.76-.21.53-.5.99-.9 1.37a4 4 0 0 1-1.38.9 4.87 4.87 0 0 1-1.8.31h-3.3v-8.67h3.3a4.79 4.79 0 0 1 1.8.32 4 4 0 0 1 1.39.9c.38.37.68.83.9 1.36.2.53.31 1.12.31 1.75Zm-1.65 0c0-.47-.06-.9-.2-1.27a2.68 2.68 0 0 0-.54-.96 2.33 2.33 0 0 0-.86-.6 2.94 2.94 0 0 0-1.14-.22h-1.69v6.1h1.69c.42 0 .8-.06 1.14-.2.34-.14.63-.34.86-.6a2.75 2.75 0 0 0 .55-.96 4.01 4.01 0 0 0 .19-1.29Zm7.41 4.34h-.67a.75.75 0 0 1-.33-.06c-.07-.04-.13-.13-.17-.25l-.14-.44c-.15.14-.3.26-.46.37a2.8 2.8 0 0 1-.46.26c-.16.08-.33.13-.51.17a3.07 3.07 0 0 1-1.32-.05 1.62 1.62 0 0 1-.57-.32 1.45 1.45 0 0 1-.37-.52 1.85 1.85 0 0 1-.13-.73c0-.23.06-.46.18-.68.12-.23.33-.44.61-.62.29-.18.67-.33 1.14-.45a8.01 8.01 0 0 1 1.75-.2v-.36c0-.42-.08-.72-.26-.92-.17-.2-.42-.3-.76-.3a1.84 1.84 0 0 0-1.01.28l-.33.19a.66.66 0 0 1-.33.08.43.43 0 0 1-.26-.08.61.61 0 0 1-.17-.2l-.27-.46c.7-.65 1.56-.98 2.56-.98.36 0 .68.06.96.18a1.99 1.99 0 0 1 1.16 1.25c.1.29.16.6.16.96v3.88ZM37.1 26c.15 0 .3-.01.42-.04a1.81 1.81 0 0 0 .69-.33c.1-.09.22-.19.32-.3v-1.04c-.43.02-.79.06-1.08.12a2.8 2.8 0 0 0-.7.2.92.92 0 0 0-.37.3.66.66 0 0 0-.11.36c0 .26.07.45.22.56.16.11.36.17.61.17ZM43.22 27c-.53 0-.94-.15-1.23-.45-.29-.3-.43-.72-.43-1.25v-3.44h-.63a.31.31 0 0 1-.2-.08c-.06-.05-.09-.13-.09-.23v-.6l.99-.15.31-1.68a.3.3 0 0 1 .11-.2.36.36 0 0 1 .22-.06h.77v1.94h1.62v1.06h-1.62v3.33c0 .2.05.35.14.45a.49.49 0 0 0 .39.17.73.73 0 0 0 .39-.1l.12-.07a.2.2 0 0 1 .11-.04.16.16 0 0 1 .11.04c.03.02.06.05.09.1l.44.71c-.21.18-.46.32-.74.41a2.77 2.77 0 0 1-.87.14Zm7.2-.1h-.66a.75.75 0 0 1-.33-.06c-.08-.04-.14-.13-.18-.25l-.13-.44c-.16.14-.31.26-.47.37a2.8 2.8 0 0 1-.46.26c-.16.08-.33.13-.5.17a3.07 3.07 0 0 1-1.33-.05 1.62 1.62 0 0 1-.57-.32 1.45 1.45 0 0 1-.36-.52 1.85 1.85 0 0 1-.14-.73c0-.23.06-.46.18-.68.13-.23.33-.44.62-.62.28-.18.66-.33 1.13-.45a8.01 8.01 0 0 1 1.76-.2v-.36c0-.42-.1-.72-.27-.92-.17-.2-.42-.3-.75-.3a1.84 1.84 0 0 0-1.02.28l-.33.19a.66.66 0 0 1-.33.08.43.43 0 0 1-.25-.08.61.61 0 0 1-.18-.2l-.27-.46c.7-.65 1.56-.98 2.56-.98.36 0 .68.06.96.18a1.99 1.99 0 0 1 1.17 1.25c.1.29.15.6.15.96v3.88ZM47.54 26c.16 0 .3-.01.42-.04a1.88 1.88 0 0 0 .69-.33l.33-.3v-1.04c-.44.02-.8.06-1.09.12a2.8 2.8 0 0 0-.7.2.92.92 0 0 0-.37.3.66.66 0 0 0-.11.36c0 .26.08.45.23.56.15.11.36.17.6.17Z"/></svg></g><a href="/grapher/land-use-palm-oil" rel="noopener" style="font-family:&quot;Playfair Display&quot;,Georgia,&quot;Times New Roman&quot;,&quot;Liberation Serif&quot;,serif" target="_blank"><text x="16" y="40" fill="#5b5b5b" font-size="24.75" font-weight="600"><tspan x="16" y="40.01">Land use for palm oil production, 2022</tspan></text></a></g><g style="pointer-events:none"><g class="mapTab"><g class="ChoroplethMap" clip-path="url(#boundsClip-41)"><defs><clipPath id="boundsClip-41"><path d="M16 52h818v459.3H16z"/></clipPath></defs><g class="subunits"><g class="noDataFeatures" transform="matrix(.87476 0 0 .87476 -57.52 92.06)"><defs><pattern id="noDataPatternForMapChart-World" width="4" height="4" patternTransform="matrix(.80835 -.80835 .80835 .80835 -.83 2)" patternUnits="userSpaceOnUse"><path stroke="#ccc" stroke-width=".7" d="M-1 2h6"/></pattern></defs><path fill="url(#noDataPatternForMapChart-World)" fill-opacity="1" stroke="#aaa" stroke-opacity="1" stroke-width=".34" d="m633.3 142.5 2.8 1.1 1.8-.4.2-1.3 1.9-.5 1.2-.9-.1-2.4 2-.6.1-1.1 1.4.8.8.1 1.4.1 2 .6.8.4 1.6-1 1 .6.4-1.4 1.5.1.3-.5-.1-1.2.8-1 1.5.6v1l.8.1.5 2.5 1.2 1 .7-.6 1-.3 1.2-1.4 1.8.3h2.5l.7.8-1.3.4-1.1.5-2.8.4-2.5.6-1.1 1.3.9 1.3.6 1.5-.9 1.3.4 1.1-.5 1.1-2.4-.1 1.5 2-1.5.8-.7 1.8.5 1.8-.8.8-1-.2-1.8.4-.1.8h-1.9l-1.1 1.7.3 2.6-3.1 1.2-1.8-.2-.4.6-1.6-.4-2.5.5-4.5-1.6 1.8-2.7-.5-1.9-2-.5-.6-2-1.3-2.4.8-1.6-1.2-.5.3-2.2ZM531.4 126.9v.8l-.8.4v1l-1 1.4-.5-.2-.1-.6-1.4-1-.3-1.5v-2l.2-.9-.4-.5-.3-.9 1-1.5.2.6.6-.3.6.8.6.3.3 1.1-.3 1 .5 1.3ZM511.2 179.2l-8.8 5.8-7.5 5.9-3.7 1.3-2.9.3-.1-1.9-1.2-.5-1.6-.8-.6-1.5-8.8-6.5-8.8-6.6-9.6-7.3.1-.6V163l4.2-2.2 2.6-.5 2.1-.8 1-1.5 3-1.2.1-2.2 1.5-.3 1.2-1.1 3.3-.5.5-1.2-.7-.6-.9-3.2-.1-1.8-.9-2 2.4-1.6 2.7-.5 1.6-1.3 2.4-.9 4.2-.5 4.1-.3 1.3.5 2.3-1.2h2.6l1.1.7 1.7-.2-.5 1.5.5 2.9-.5 2.5-1.5 1.7.2 2.2 2.2 1.8v.8l1.6 1.2 1.2 5.4.9 2.7.2 1.4-.4 2.4.2 1.4-.3 1.7.3 1.8-1 1.3 1.6 2.2.1 1.3.9 1.7 1.2-.6 2.1 1.4ZM483.4 121.7l.2-.1h.2l.3.1V122l-.6.2-.1-.1v-.2ZM317.7 198.6l-.1.2-.3-.1-.1-.1v-.1l.2-.2.4.2v.1Zm0-1.6v.1l-.3-.1.1-.4.2.1ZM330.9 414.3h-3.7l-2.8-6.5 1.4 1.4 2.1 2.1 3.6 1.8 3.4.7-.4 1.4-2 .1Zm-14.3-97.2 5.3 4.9 2.2.5 3.4 2.2 2.8 1.2.5 1.3-1.9 4.6 2.7.8 2.9.5 2-.5 2-2.3.2-2.7 1.2-.6 1.5 1.8.2 2.4-2 1.7-1.5 1.2-2.6 2.9-2.8 4.1-.2 2.4-.2 3.1.6 3-.4.7.1 2 .2 1.5 3.7 2.6v2.1l1.9 1.3.1 1.5-1.5 3.8-3.3 1.6-4.8.7-2.8-.3.9 1.8.1 2.2.9 1.5-1.2 1.1-2.4.4-2.7-1.1-.7.8 1.2 2.9 1.9.9 1.1-.9 1.1 1.5-1.9 1-1.4 1.8.6 3-.1 1.6h-2.2l-1.4 1.5v2.2l3.1 2.2 2.4.6.1 2.6-2.2 1.7-.2 3.4-1.7 1.2-.4 1.3 1.9 3 2.2 1.7-1-.1-2.3-.5-5.6-.4-1.7-1.7-.9-2.1-1.4.2-1.3-1.1-1.4-3.1 1.3-1.3v-1.8l-.8-1.5.3-2.5-.5-4-.9-1.7.8-.6-.6-1.1-1.3-.6.3-1.2-1.4-1.1-1.7-3.5.8-.6-1.6-3.6-.3-3.1-.2-2.7 1.2-1.1-1.5-2.9-.8-2.8 1.4-1.9-.6-2.5.7-3-.6-2.8-.8-.5-2.3-5.2 1-3.1-.8-2.9.4-2.8 1.3-2.8 1.5-1.9-1-1.2.4-.9-.7-5.1 2.6-1.4.6-3.2-.4-.7 1.9-2.8 3.5.8 1.7 2.2.8-2.5 3 .2ZM586.4 126.2l3.3-.5.7.8 1 .5-.4.7 1.5 1.1-.5.9 1.2.8 1.2.5.5 2.1-.9.1-1.3-1.7-.1-.5h-1.1l-.9-.8-.5.1-1.1-.9-2-.7v-1.5ZM835.5 373l1.7 1 1.6-.4 2.3-.6 1.3.2-2.1 3.5-1.5 1.1-1.9 2.4-.3-.8-3.1 2-.4-.1-1.4-.1.2-2.6 1-1.9.3-2.6.9-1.4Zm23.7-81.5.6 2.4 1.9-1.2.6 1.3 1.1 1.2-.5 1.3.1 2.6.1 1.5.6.4.2 2.6-.6 1.5.4 2.1 2.5 1.5 1.5 1.5 1.5 1.3-.5.7 1 1.9.3 3.3 1.2-.7.7 1.3.8-.4-.4 3.2 1.4 1.8.9 1.2 1.4 2.4-.1 2.4-.5 1.7-.8 1.9.3 2.6-1.1 2.6-1 1.4-1.8 2.7-.7 1.8-1.4 2.1-2.4 2.8-2.6 1.4-2 2.4-1.6 1.5-2.1 2.6-1.7 1.5-1.9 2.2-1.4 2.1-.4.9-2 1.1-2.9.1-2.9 1.2-1.8 1.2-2.3 1.3-1.3-1.3-1.2-.6 1.3-1.5-1.7.5-3.4 2.2-1.7-.8-1.1-.5-1.3-.2-1.9-.9-.6-1.8.7-2.3.1-1.5-.6-1.2-2.2-.4 1.5-1.5.4-2.2-2.2 2.1-2.5.5 2.1-1.6 1.2-1.8 1.7-1.4.7-2.3-3.1 2.6-2.1 1-2 2.4-1.4-1.2.8-1.6-.7-2.2-.8-1.1.7-.7-2.5-1.9h-1.7l-1.9-1.5-4.7.3-3.7 1-3.2 1.1-2.4-.2-3.3 1.5-2.4.7-1.1 1.6-1.5 1.2-2.1.1-1.7.2-2-.5-2 .3-1.8.2-2.1 1.6-.7-.2-1.6.9-1.6.9-1.8-.1h-1.7l-1.9-1.9-1.1-.6.7-1.7 1.4-.4.7-.7.3-1.1 1.1-2.1.3-1.8-.4-3 .2-1.7.6-1.8-.5-1.9.2-.9-.8-1.2.3-2.4-.9-2.4v-1.2l.8 1.3-.2-2.8 1.1.8.5 1.2.3-1.5-.7-2.4-.1-1-.4-.9.6-1.7.7-.7.6-1.6.1-1.7 1.4-2.2-.2 2.3 1.5-2.1 2.3-1 1.5-1.3 2.2-1.1 1.2-.2.7.4 2.2-1.2 1.7-.3.5-.7.7-.2h1.5l2.9-.8 1.7-1.4.9-1.6 1.8-1.5.4-1.2.3-1.7 2.3-2.5.7 2.6 1.2-.6-.7-1.4 1-1.5 1.1.6.7-2.3 1.6-1.4.8-1.2 1.4-.5.2-.9 1.1.4.2-.8 1.2-.4 1.3-.4 1.8 1.4 1.2 1.7 1.6.1 1.7.2-.4-1.6 1.6-2.4 1.3-.8-.3-.8 1.4-1.7 1.7-1.1 1.3.4 2.3-.6.2-1.5-1.9-1 1.5-.4 1.7.7 1.2 1.2 2.2.8.8-.3 1.5.9 1.6-.8 1 .2.7-.5 1 1.5-.9 1.6-1.2 1.2-.9.1.1 1.2-.9 1.5-1.2 1.5v.8l1.9 1.7 1.8 1 1.2 1 1.6 1.8h.7l1.3.8.2.9 2.3 1 2-1 .8-1.6.8-1.4.6-1.6 1.2-2.4-.1-1.5.3-.9-.1-1.7.7-2.3.6-.6-.3-1 .9-1.6.7-1.6.2-.9 1.1-1.1.5 1.4v1.9l.6.4v1.3l.7 1.5v1.7ZM519.8 105.3l-.1 1.2h-1.3l.5.6-.7 1.9-.4.5-2 .1-1.2.7-1.9-.3-3.5-.7-.6-1-2.3.5-.2.5-1.5-.4-1.3-.1v-.3l-.7-.1.1-.1v-.1l-.2-.1.1-.1-.2-.2.3-.3-.2-.4.8-.2 1.2.8.3-.8 2.1.2 1.6-.6 1.1.1.8.6.2-.5-.5-1.9.8-.4.8-1.3 1.8.9 1.2-1.2.8-.2 1.9.9 1.1-.1 1.1.5-.2.4Z" cursor="pointer"/><path fill="url(#noDataPatternForMapChart-World)" fill-opacity="1" stroke="#aaa" stroke-opacity="1" stroke-width=".34" d="m594 133.2-1.8-.4-1.5-1.4-.6-1.1.5-.1.9.8h1.1l.1.5Zm3-8 1.2-1.2 1.6 1.6 1.7 2.1 1.1.1 1 .9-2 .2v2.3l-.2 1.1-.8.7.4 1.5-.6.1-1.8-1.6.5-1.4-.9-.9-.8.2-2.5 2.2-.5-2.1-1.2-.5-1.2-.8.5-.9-1.5-1.1.4-.7-1-.5-.7-.8.5-.5 2 .9 1.3.1.3-.3-1.5-1.6.5-.4.7.1 2.1 1.8 1.1.2ZM278.5 178.3l-.6.2-.5-1.7-.8-.9.8-1.9.8.1.6 2.5Zm.6-8.5-2.9.5v-1.1l1.2-.2 1.7.1Zm2.1 0-.8 2.2-.4-.4.3-1.6-1-1.2.1-.3ZM610.9 172l-.1.2-.1-.1-.2-.4v-.2l-.2-.5.1-.1h.3l-.1.1.2.2ZM721.6 183.5l.3 2.2-1-.5.5 2.5-1-1.6-.3-1.5-.8-1.5-1.3-1.8-2.4-.1.4 1.3-.6 1.6-1.2-.6-.3.6-.8-.3-1-.3-.8-2.5-1.2-2.3.2-1.8-1.8-.8.4-1.1 1.5-1.1-2.2-1.6.6-2.1 2.3 1.3 1.2.2.6 2.1 2.6.4h2.4l1.5.5-.7 2.5-1.2.2-.5 1.7 1.6 1.6.2-1.9.7-.1ZM322.7 210.6h-.1l-.3-.1v-.6h.2l.3.5ZM532.7 88.5h2.2l2.2-1.1.3-1.6 1.7-.9-.5-1.3 1.3-.4 2.2-1.1 2.4.7.5.7 1.1-.4 2.3.7.4 1.3-.3.8 1.8 1.9 1 .5v.5l1.6.5.8.8-.7.6-1.9-.1-.4.3.8 1 .9 1.8-2 .2-.5.6.1 1.5-1-.3-2 .1-.7-.7-.8.5-.9-.4h-1.9l-2.6-.7-2.4-.2H536l-1.1.8-1.1.1-.2-1.3-.9-1.3 1.2-.6-.1-1.1-.8-1.1ZM489.3 96.1l2.1-.6 1.5 1.3 1.3.7-.2 1.9-.6.1-.2 1.7-2.1-1.4-1.2.3-1.6-1.4-1.1-1.2h-1.1l-.3-1 1.8-.6ZM245.9 196.3v-.4l.3-.2.5.4 1.2-1.9h.5l-.1.5h.5l-.1.8-.6 1.3.1.5-.4 1 .2.3-.5 1.5-.6.8-.5.1-.6 1.1h-.8l.6-3.4ZM716 166.2l1.3 1 .2 1.9-2.1.1-2.2-.2-1.6.4-2.5-1.1-.2-.6 1.2-2.3 1.3-.7 2 .7h1.3ZM305.3 318.6l-1.8.4-1.5-4.2-1.8-3.4.5-2.9-1.5-1.3-.5-2.1-1.5-2.1 1.3-3.2-1.3-2.6.5-1-.6-1.1.9-1.5-.1-2.6v-2.1l.5-1-2.6-4.9 2 .3 1.3-.1.6-.9 2.2-1.2 1.4-1.1 3.4-.6-.2 2.3.4 1.2-.1 2 3.1 2.7 3 .5 1.1 1.1 1.8.6 1.1.9h1.7l1.6.8.2 1.8.6.9.1 1.3h-.7l1.2 3.5 5.1.2-.3 1.7.4 1.2 1.5.8.8 1.9-.3 2.4-.6 1.3.4 1.7-.7.6-.2-.9-2.6-1.5-2.4-.1-4.5.9-1 2.7.1 1.6-.7 3.6-.4-.6-3-.2-.8 2.5-1.7-2.2-3.5-.8ZM525.4 114.9h.9l-.5 1.3 1.3 1.2-.3 1.4-.5.1-.4.3-.8.7-.2 1.6-2.2-1.1-1-1.3-1-.6-1.2-1.1-.6-1-1.3-1.4.4-1.2 1 .7.4-.6 1.1-.1 2.1.5h1.7ZM556.7 316.6l-3.8 2.2-2.4 2.3-1 2-.8 1.1-1.4.3-.5 1.4-.4 1-1.6.7-2.1-.2-1.2-.8-1.1-.4-1.3.7-.7 1.4-1.3 1-1.3 1.3-1.9.3-.5-1.1.3-1.8-1.4-2.9-.7-.4.3-8.8 2.6-.1.4-10.8 1.9-.1 4.1-1 1 1.2 1.7-1.2h.8l1.5-.6.5.2.9 2.4.5.5.7 1.8 2.9 3.3 1.1.3-.1 1.1.7 1.9 2 .5ZM783.9 236.4l1-1.2 2.2-1.6-.1 1.5v1.9l-1.3-.1-.5 1ZM534.3 116.8l.9 1.2.9-.2 1.9.5 3.5.1 1.1-.7 2.8-.7 1.9 1 1.4.4-1.1 1.2-.6 2.1 1 1.7-2.1-.4-2.4 1 .2 1.4-2.2.3-1.9-1-1.8.8-1.8-.1-.4-2-1.3-.9.3-.4-.3-.4.3-.9.9-1-1.3-1.3-.4-1ZM472.5 220.9l-1.8-.8-1.3.2-.9.7-1.2-.6-.4-1-1.2-.7-.2-1.7.7-1.3v-1l2.1-2.5.4-2.1.7-.7 1.3.4 1.1-.6.4-.8 2-1.4.5-.9 2.5-1.3 1.4-.4.7.6h1.7l-.2 1.4.3 1.4 1.5 2 .1 1.4 3.1.7-.1 2.1-.6.9-1.3.3-.5 1.3-.9.3h-2.3l-1.3-.3-.8.5-1.2-.2-4.6.1-.1 1.8ZM329.4 109.9l1.6.4 2.3-.1-1.6 1.3-.9.1-2.6-1.2-.3-1 1.2-.9Zm6.8-7.5-1.1.1-2.7-.9-1.7-1.4.9-.3 2.8.8 1.9 1.2Zm-144.6 1.8-1.5.4-2.9-1.4v-1l-1.4-1 .1-.9-2-.5.3-1.6.7-.6 1.9.6 1.1.4 2 .3v1l.3 1.4 1.5 1.2Zm159.3-6.4-2.4 2.5 1.8-.9 1.4.6-1.1 1 1.8.8 1.3-.7 2 .9-1.3 2.1 1.8-.5-.2 1.6.3 1.8-1.7 2.6-1.1.1-1.4-.5 1.2-2.4-.6-.4-3.4 2.5-1.4-.1 2-1.3-2-.8-2.6.2-4.5-.1-.1-.8 1.8-1.1-.8-.8 2.5-1.7 3.9-4.7 1.9-1.6 2.3-1 1.1.1-.7.8Zm-168.5-9.7 2.4-.2-3.4 3.3.1 2.3h-.9l-.3-1.4.3-1.3-.4-.9.6-1.2.9-1Zm132.5-22.7-1.7 1.5-.8-.3-.1-.8.2-.2 1.3-.8.9.1Zm-4.6-1.5-3.4 1.5h-1.4v-.8l2.4-1.2h2.8Zm-1.4-7.8-.5 1.1 1.3-.4.7.7 1.6.9 1.8.8-.6 1.3 1.6-.2.9.9-2.3.8-2.8-.6-.4-1.2-2.9 1.4-3.9 1.4.3-1.6-2.9.3 2.7-1.3 1.7-2.1 2.3-2.5Zm21.1-3.9-2.3.1.3-1.3 1.8-1.4 2-.4 1.1.7-.7 1.1-.4.4Zm-35-5.1-2 .9-1.9-.8-1.8.3-1.7-1.1 2.4-.8 2.3-1.1 1.4.7.8.5.1.5Zm24.8 67-1-1.7 1.4-4-.7-.8-1.8.5-.5-.8-2.6 2.2-1.5 2.3-1.3 1.3-1.2.5-.8.2-.5.7h-8l-1.3.6-3.3 2.1-.4.2-1.2 1.2h-4.6l-1.3.5.2.6-.1.9-.2.3-3.7 1.4-2.6.5-3.4 1.6h-.6l-.7-.5-.1-.4.2-.3.9-1 1.7-1.7 1.4-1.7.6-2.6.5-2.7-1.9-1.4.5-.5-.2-.4h-.6l-.3-.5.2-.7-.6.3h-.6l.3-.3-.5-.3.1-.8-1.4-.9-1.5-1-1.8-1.2-1.7-1-2.4.8h-.8l-2.5-.7-2.1.3-1.9-.9-2.1-.4-1.6-.2-.4-.5.4-1.6h-.8l-.6 1.1H193.8l-2.6-2.9-.8-1.2-3.3-1.2.7-2.6 1.6-1.8-1.9-1.2 1.5-2.3-1-2.1 1.2-1.5 2.4-1.3 1.4-1.8-2.1-1.8.6-3.2.6-2-.8-1.3-.4-1.1.3-1.5-3 .9-3.6 1.6-.1-1.8-.3-1.3-1.3-.7-2-.1 16.8-15.3 11.5-9.6 2.8.6 1.6 1.2 1.7.3 3-1.1 3.3-.8 2.5.3 4.1-1.1 3.9-.6.1 1 2.1-.6 1.8-1.2 1 .3.7 2.3 4.5-1.7-1.9 1.9 2.8-.4 1.6-.8 2.1.2 1.8 1 3.6 1 2.2.4 2.1-.2 1.3 1.3-4 1.3 3 .6 5.6-.3 2.1-.5.7 1.6 3.3-1.3-1-1.1 2.1-.9 2.5-.1 1.8-.3 1 .6.7 1.4 2.3-.2 2.5 1.2 3.4-.4h2.8l1.1-1.6 2.1-.4 2.3.8-2 2.5 2.9-2.1 1.6.1 2.9-2.6-.7-1.5-1.4-1.1 2.7-2.7 3.8-1.8 2.1.4 1 1.1.1 2.8-2.7 1.2 3.1.5-2 2.6 4.1-2 1.1 1.7-2 1.9.6 1.7 3.4-1.8 3.1-2.3 2.2-2.7 2.5.2 2.6.3 1.7 1.3-.8 1.3-2.4 1.3.4 1.4-1.1 1.3-5.1 1.8-3.1.4-1.5-.8-1.5 1.3-3.5 2.2-1.4 1.2-3.7 1.8-3 .2-2.4 1.1-1.4 1.8-2.7.3-4 2.2-4.5 3.1-2.3 2.1-2.3 3.3 2.8.4-.7 2.6-.4 2.2 3.4-.6 3.3 1.2 1.6 1.1.8 1.3 2.3.8 1.7 1.2 3.6.2 2.2.3-1.7 2.4-.8 2.9.1 3.2 2 2.8 2.2-1 2.7-2.9 1-4.6-.8-1.5 4.3-1.3 3.5-2 2.2-2 .8-1.9-.2-2.3-1.4-2.1 4.1-2.9.5-2.5 1.8-4.3 1.8-.6 3.2.7 2 .3 2.1-.7 1.4.9 1.7 1.6.1 1 3.6.2-1.2 2.3-1.1 3.5 1.8.5.8 1.6 3.8-1.5 3.5-3.1 2-1.3.5 2.5 1.2 3.5 1 3.4-1.6 1.8 2.3 1.6 1.3 1.6 3.3.7 1.1.9v2.5l1.6.3.5 1.1-.9 3.3-2 1.1-2 1-4.2 1-3.7 2.4-4 .5-4.7-.6-3.5-.1-2.5.2-2.7 2.1-3.4 1.3-4.8 3.9-3.7 2.7 2.2-.5 5.2-3.8 5.7-2.5 3.6-.3 1.6 1.5-2.9 2-.3 3.1v2.2l2.7 1.5 4-.4 3.4-3.3-.5 2.1 1.2 1.1-3.5 1.9-5.8 1.8-2.8 1.2-3.3 2.1-1.8-.2.7-2.5 5-2.5-3.9.1Zm-49.9-76.9-2.2 1.1 4.9-.7 1.2 1.2 3.5-1.2.8.7-1 2.5 2-1.1 1.4-2.5 2-.3 1.4.4 1 1-1.3 2.3-1.2 1.8 2 1.2 2.4 1.2-1.3 1.1-3.3.2.4 1-1.5.9-3.2-.4-2.7-.7-2.4.2-4.4.9-5.3.3-3.7.3.1-1.2-1.9-.7-2 .3-.3-2 1.5-.3 3.4-.4 2.6.1 3-.5-3.1-.5-4.3.2-2.6-.1v-.9l5.5-1h-3l-2.5-.6 3.7-1.9 2.4-.9 6.7-1.5Zm18.6-.8-3.3 1.6-1.1-1.7 1-.3 2.6-.1Zm51 .8-.4.7-1.9-.1h-1.9l-2.3.3-.4-.2-1-1.2.8-.9 1-.2 4 .3Zm-18.7-.1.1 1.5 3.4-2 5.5-1 1.1 2.5-1.6 1.6 4.3-.7 2.5-.9 3.2 1.2 1.7 1.2-.5 1 3.8-.5.9 1.6 4 .9 1 1.1.4 2.3-4.3 1.2 3.6 1.7 2.8.6 1.6 2.3 3 .2-1.6 1.8-5.1 3.1-1.9-1.1-1.7-2.6-2.8.4-1.1 1.5 1.3 1.5 2.1 1.2.4.7v2.7l-1.7 1.9-2.2-.7-4-2.2 1.7 2.4 1.3 1.6-.2 1-5.1-1.1-3.6-1.6-1.7-1.3 1.1-.8-2.3-1.4-2.2-1.2-.4.7-6.1.5-1.2-1 2.6-1.9 3.8-.1 4.3-.3-.1-.9 1.5-1.4 4.2-2.5.1-1.1-.2-.9-2.2-1.3-3.3-.8 1.6-.7-.9-1.6-1.6-.1-.9-.9-1.6.8-3.7.3-6.6-.6-3.4-.7-2.8-.4-.9-.8 3-1.2h-2.7l1.6-2.5 3.3-2.2 2.8-.9 5.3-.7Zm-23.7-1.7 1.7.5 3.5-.3-.2.7-2.8 1.2 1.7 1-2.4 2.2-4 1-1.6-.2-.4-1-2.7-1.9.8-.7 3.5.3-.5-1.6Zm10.6 2.6-3.7 1.8-2-.1.9-2.1 1.2-1.2 1.9-1 2.5-.7 3.7.1 2.9.6-4.7 2.1Zm-54.4 3.4-6.4 1.2.3-1.1-2.7-1.3 2-1 3.5-1.8 3.6-1.6.2-1.4 6.6-.4 1.9.5 4.5.1.9.7.7 1-3 .6-6.5 1.7-4.4 1.7Zm58.8-8.7-1.9.9-2.5-.1-1.5-.7 2.1-1 3.2-.6.7.8Zm-4.3-4 .2 1.1-1.3 1.2-2.7 1.7-3.2.2-1.6-.4 1.6-1.3-3.1.2 2-1.8 1.8.1 3.6-.8 2.3.1Zm-18.4 1.2-.4.8 2.1-.4 1.7.1-1 1.2-2.4 1.1-6.5.3-5.8 1.1h-2.8l.7-.8 5-1-8.5.3-1.9-.4 5.4-2.3 2.6-.6 3.9.7 1.4 1.4 2.9.2.2-2.2 2.7-.8 1.5.2Zm26.1-2 1.1.7h3.4l.7.7-1.3.9 1.5.5.6.6 2.3.1 2.4.2 3.3-.5 3.8-.2 2.7.1 1.1.9-.4 1-1.7.6-3.1.5-2.1-.3-5.5.4h-3.7l-2.7-.3-4-.7.7-1.3 1-1.2-.7-1-3.3-.2-1.3-.7 1.8-1Zm-35.6-1.2-2.7 1.7-2.5.8-1.8.1-4.6.9-3.3.4-1.7-.5 5.4-1.7 5.7-1.5 2.6.1Zm38.1.2-.8.1-3.1-.1.3-.7 3.4.1.8.4Zm-27.6-.4-4.1.7-1.6-.7 2.4-.7 2.8-.3 2 .4Zm3.7-2-2.7.5h-2.8l.5-.3 2.6-.7.8.1Zm21.9 1.2-3 .5-.8-.5.3-.8 1-.9h2.1l.8.2 1.1.7Zm-6.4-.5-.5.9-2.5-.3-1.9-.7-3.7-.1 2.5-.6-1.3-.5 1.1-.9 2.8.3 3.5.8Zm25.5-2.9 1.2.7-3 .6-5.1 1.6-3.1.2-3.3-.3-.7-.9 1-.8 2.1-.5h-3.1l-.9-.7.1-1 2.3-.9 1.9-.5 1.9-.2-.1-.4 3.9-.1.7 1 2.3.4 2.2.4Zm37.2-6.6 4 .2 3.2.2 2.4.5-.5.4-4.6.8-4.2.4-1.9.4h3.6l-4.9 1.2-3.2.5-4.4 1.7-3.8.3-1.5.5-5.3.2 2 .3-1.5.3.3 1.1-2.3.8-3.3.6-1.7.9-3 .6-.3.5 3.1-.1-.5.6-6 1.4-4-.7-5.5.4-2.3-.3-3.2-.1.9-1.1 3.8-.5.9-1.6 1.2-.2 3.6 1-.8-1.4-2.3-.5 2.3-.8 3.6-.5 1.3-.8-1.3-.8.5-1.1 4.4.1 1.1.2 3.4-.7-3.5-.2-5.9.1-2.1-.6-.4-.8-1.1-.6.4-.6 2.9-.4h1.9l3.5-.3 3.2-.7 1.9.1 1.1.5 2.3-.9 2.5-.3 3-.2 4.9-.1.6.2 4.9-.3 3.3.1ZM415.8 205.2l-.1.1h-.2l-.2-.3.1-.1.3-.2.1.1.1.2Zm3-.8h-.1l-.1-.2v-.2l.1-.2h.2l.1.2v.3Zm-.7.4-.2.3-.3-.1-.4-.5v-.2l.1-.2v-.3h.2v.2l.4.4Zm1.5-3.8.3.1h.1l.2.1v.3l-.1.2-.3.1h-.2l-.1-.1.2-.4Zm-3-1.1.1.1-.1.1-.4-.1h-.1l-.2.3-.2-.4v-.1l.1-.1.3.1Zm3.1-.1-.1.1-.1-.2-.1-.3.2-.1h.1Zm-5.2-.5-.4.1-.2-.1.1-.2.3-.1.2.2Zm-.7-.4-.3.1-.1-.1v-.2l-.1-.1v-.1l.6-.3h.3l.1.3-.1.1ZM518.3 211.2l.3-1.4-1.7-.1v-1.9l-1.2-1.1 1.1-4 3.3-2.8.1-4 .8-6.1.6-1.3-1.1-1-.1-1-1-.8-.7-4.6 2.5-1.7 10.6 5.8 10.6 5.8.5 11.9-2.2-.2-1.2 2.2-.6 1.9.5.7-.8.9.3 1.3-.6 1.2-.3 1.1.9-.1.6 1.1.1 1.8 1 .9v.7l-1.7.5-1.3 1.2-1.9 3.3-2.5 1.4-2.5-.2-.8.3.3 1.1-1.4 1-1.1 1.2-3.3 1.2-.7-.7-.4-.1-.5.8-2.2.2.4-.8-.9-2.1-.3-1.2-1.2-.5-1.6-1.8.6-1.4 1.2.3.7-.2h1.5l-1.5-2.7.1-2-.2-2Z" cursor="pointer"/><path fill="url(#noDataPatternForMapChart-World)" fill-opacity="1" stroke="#aaa" stroke-opacity="1" stroke-width=".34" d="m324.4 407.8 2.8 6.5h3.7l-.2 1.2-1.5.9-1.1-.1-1.5-.3-2-.8-2.5-.4-3.5-1.6-3-1.6-4.6-3.2 2.1.6 4.1 1.9 3.4 1.1.6-1.3-.2-2 1.6-1.2Zm-19.1-89.2.4.7-.6 3.2-2.6 1.4.7 5.1-.4.9 1 1.2-1.5 1.9-1.3 2.8-.4 2.8.8 2.9-1 3.1 2.3 5.2.8.5.6 2.8-.7 3 .6 2.5-1.4 1.9.8 2.8 1.5 2.9-1.2 1.1.2 2.7.3 3.1 1.6 3.6-.8.6 1.7 3.5 1.4 1.1-.3 1.2 1.3.6.6 1.1-.8.6.9 1.7.5 4-.3 2.5.8 1.5v1.8l-1.3 1.3 1.4 3.1 1.3 1.1 1.4-.2.9 2.1 1.7 1.7 5.6.4 2.3.5-2-.1-.8.8-1.6 1 .8 2.7-.9.1-3-1-3.4-2-3.6-1.6-1.6-1.9-.1-1.7-1.9-1.9-2.4-5-.1-2.8 1.6-2.3-3.9-.8 1.3-2.7-1-4.9 3.1 1.1-.9-6.2-1.9-.8.5 3.7-1.6-.4-.7-4.3-.9-5.5.5-2-1.6-3-1.1-3.4 1-.1.3-4.8.5-4.8.1-4.5-1.5-4.6.2-2.4-1-3.8.9-3.6-.4-5.9v-6.2l.1-6.8-.8-4.9-1-4.3 1.3-.7.6-1.6 1.5 2.1.5 2.1 1.5 1.3-.5 2.9 1.8 3.4 1.5 4.2ZM595.8 287.2l-.3.1-.1-.2v-.1h.2Zm1.8-.7.2.4v.3l-.1.1-.1-.1-.2-.2-.5-.3h.5v-.1l.1-.1Zm-2.6-.6v.1l-.4-.3-.2-.2.1-1 .1-.1.1-.1.1.1v.7l.2.4.1.3ZM524.7 111.8l.7 1.2.8.8-.8 1.1-1.1-.6h-1.7l-2.1-.5-1.1.1-.4.6-1-.7-.4 1.2 1.3 1.4.6 1 1.2 1.1 1 .6 1 1.3 2.2 1.1-.2.5-2.4-1.1-1.4-1.1-2.3-.9-2.2-2.1.5-.3-1.2-1.2-.1-1-1.6-.5-.7 1.3-.7-1V113l1.7.1.4-.5.9.5.9.1-.1-.9.8-.3.2-1.1 1.8-.8.8.3 1.8 1.3 2.1.6ZM266 180.1l2.2.2h2.1l2.3 1 .9 1.2 2.4-.4.9.7 1.9 1.9 1.5 1.3h.9l1.5.6-.3.9 1.9.1 1.8 1.2-.4.7-1.8.4-1.7.2-1.8-.3-3.8.3 2-1.7-1-.7-1.7-.2-.8-.9-.4-1.7-1.5.1-2.3-.8-.7-.7-3.3-.4-.9-.6 1.1-.8-2.5-.1-2.1 1.5-1.1.1-.5.7-1.3.4-1.1-.3 1.5-1 .7-1.1 1.3-.6 1.4-.6 2-.3ZM562.2 144h.1l.3-.7h1.8l2.2-.9-1.6 1.3.3.6.1.2-2.4 1.2-1.3-.4-.7-1.2ZM519.6 103.9l-1.1-.5-1.1.1-1.9-.9-.8.2-1.2 1.2-1.8-.9-1.4-1.3-1.3-.7-.3-1.2-.5-.9 1.7-.6.8-.7 1.6-.6.5-.6.6.4 1-.3 1.2.9 1.8.3-.1.8 1.3.6.3-.8 1.6.3.3 1 1.7.1 1.2 1.5h-.7l-.3.5-.5.1-.1.7-.4.1v.3l-.8.3h-1ZM508.1 83.6l-1.2 2.3-2.4-1.6-.4-1.1 3.2-1Zm-6 1.8-1.4.5-1.7-.4-1-1.6-.2-2.9.3-.7.6-.9 1.9-.2.7-.7 1.7-.8v1.4l-.6.9.4.8 1.2.4-.5 1.1-.7-.3-1.4 2ZM593.9 211.7l.7.9v1.3l-1.5.7 1.2.8-1 1.6-.6-.5-.6.2h-1.5l-.1-.9-.2-.9.8-1.4.9-1.3 1.2.2ZM318.4 204l-.3.1v-.5l-.2-.4.1-.2v-.1l.4.1.1.2v.5ZM811.7 276.8l.3-.7 2.4-.7 1.8-.1.9-.3 1 .3-1.1.8-2.9 1.4-2.2.8v-.9ZM576.1 183.7h-30.9l-.5-11.2-.6-10.7-.9-2.4.5-1.9-.5-1.3.8-1.4 3.4-.1 2.5.8 2.6.9 1.2.5 1.9-1 1-.8 2.2-.3 1.9.4.8 1.5.5-1 2.1.7 2 .2 1.2-.7 2.1 5.1-.6 1.2-.3 2.3-.6 1.6-.6.5-.9-1-1.3-1.3-2.1-4.3-.3.3 1.3 3.1 1.9 3.1 2.3 4.7 1 1.6 1 1.7 2.5 3.3-.5.6.2 1.9 3.2 2.7ZM248 209.6l-.4.7h-1.5l-.9-.3-1-.6-1.5-.2-.7-.6.1-.5 1-.7.5-.4-.1-.3.7-.2.7.3.5.6.8.4.1.4 1.1-.3.6.2.3.3Z" cursor="pointer"/><path fill="url(#noDataPatternForMapChart-World)" fill-opacity="1" stroke="#aaa" stroke-opacity="1" stroke-width=".34" d="m592 212.2-.9-1-1.2-1.8-1.2-.9-.7-1.1-2.4-1.2h-1.8l-.7-.7-1.5.8-1.6-1.4-.8 2.2-3.1-.6-.3-1.2 1-4.4.1-2 .8-1 1.9-.5 1.2-1.7 1.8 3.5.8 2.8 1.5 1.5 3.8 2.8 1.5 1.7 1.5 1.8.9 1 1.3.9-.7.7ZM532.8 77.5v-1.7l-.8.4-1.5-1-.5-1.6 2.6-.8 2.6-.4 2.4.5 2.2-.1.4.5-1.2 1.6 1.2 2.6-.8.9h-1.8l-2-1.1-1-.3ZM562.8 330.6l-.6 1.4-1.6.3-1.4-1.6v-1.1l.8-1.1.3-.9.8-.2 1.3.5.3 1.4Z" cursor="pointer"/><path fill="url(#noDataPatternForMapChart-World)" fill-opacity="1" stroke="#aaa" stroke-opacity="1" stroke-width=".34" d="M583.8 206.2h1.8l2.4 1.2.7 1.1 1.2.9 1.2 1.8.9 1-.9 1.3-.8 1.4.2.9.1.9h1.5l.6-.2.6.5-.5 1.1 1 1.7 1.1 1.4 1 1.1 8.8 3.6h2.2l-7.3 9-3.5.1-2.3 2.2h-1.7l-.7 1h-1.8l-1.1-1-2.4 1.2-.8 1.3-1.8-.3-.6-.3-.6.1-.8-.1-3.4-2.5h-1.9l-.9-1v-1.7l-1.4-.5-1.6-3.3-1.3-.7-.5-1.2-1.3-1.5-1.7-.2.9-1.7 1.4-.1.4-.9-.1-2.7.7-3.2 1.2-.8.2-1.2 1.1-2.3 1.6-1.5.9-3 .3-2.6 3.1.6.8-2.2 1.6 1.4 1.5-.8ZM948.8 302.3l.7.9-.8 1.5-1.7.5-1.4-.4.1-1.3 1.2-1.1 1.2.4Zm3-1.6-1.8.6-.1-1.1 1.5-.6.8-.2 1.8-.9-.3 1.4Zm-945.3-.9-.2.1-.3-1.4.5-.2ZM535.3 47.2l.2 1.8 3.4 1.7-1.3 2 3 3-.8 2.2 2.3 2-.4 1.8 3.5 1.8-.4 1.4-1.6 1.6-3.8 3.5-3.8.2-3.5 1-3.4.6-1.5-1.5-2.1-.9v-2.7l-1.4-2.5.7-1.6L526 61l4.1-2.9 1.2-.6-.4-1.1-3-1.3-.9-1-.9-4-3.3-1.7-2.9-1.3 1.1-.6 2.4 1.3 2.5-.1 2.2.6 1.6-1.1.5-1.9 2.8-.9 2.7 1ZM503.2 123l-.7 2.3-1.1-.6-.7-2 .5-1.1 1.5-1.2Zm-10-21.8.5.2h.7l1.1.7 3.4.6-1.1 2-.3 2.1-.6.5-1.1-.3.1.8-1.6 1.6v1.3l1.1-.4.8 1.3v.8l.7 1.1-.8.9.7 2.3 1.3.4-.2 1.3-2.1 1.7-4.8-.8-3.5.9-.3 1.8-2.8.4-2.7-1.3-.9.6-4.4-1.3-1-1.2 1.3-1.8.5-5.9-2.4-3.1-1.8-1.5-3.5-1.1-.2-2.1 3-.7 3.9.8-.7-3.3 2.2 1.2 5.4-2.3.7-2.4 2-.5.3 1h1.1l1.1 1.2 1.6 1.4 1.2-.3ZM334.8 243l.7-1.3.2-1.3.5-1.3-1-1.8-.1-2.1 1.4-2.6.9.4 2 .7 2.7 2.5.4 1.3-1.6 2.7-.9 2.2-1 1.2-1.3.2-.3-.8-.6-.2-.8.9ZM640.9 396.2l1.1.9 2.1.4-.1.5-1.2 1.4-3.6.1.5-1.5.8-1.2ZM581.2 124.8l.1-1.2-1-2.1-1.6-1.1-1.4-.3-1-.9.2-.4 2.1.5 3.7.5 3.6 1.4.5.6 1.4-.5 2.4.6 1 1.3 1.6.7-.5.4 1.5 1.6-.3.3-1.3-.1-2-.9-.5.5-3.3.5-2.6-1.5Z" cursor="pointer"/><path fill="url(#noDataPatternForMapChart-World)" fill-opacity="1" stroke="#aaa" stroke-opacity="1" stroke-width=".34" d="m502.1 85.4.1 1.1 2.3.7v1l2.3-.5 1.2-.8 2.6 1.1 1.1.9.7 1.5-.6.8.9 1 .7 1.5-.1 1 1.1 1.9-1 .3-.6-.4-.5.6-1.6.6-.8.7-1.7.6.5.9.3 1.2 1.3.7 1.4 1.3-.8 1.3-.8.4.5 1.9-.2.5-.8-.6-1.1-.1-1.6.6-2.1-.2-.3.8-1.2-.8-.8.2-2.5-.9-.5.6h-2l.3-2.1 1.1-2-3.4-.6-1.1-.7v-1.3l-.4-.7.2-1.9-.5-3.1h1.3l.6-1.1.4-2.6-.4-1 .4-.6 1.8-.1.5.6 1.4-1.4-.5-1.1-.2-1.6 1.7.4ZM539.3 142.3l1.5 1 1.9-.1 1.9.2v.5l1.3-.4-.2.9-3.6.3v-.5l-3.1-.6Zm4.4-15.3-1.5-.1-1.3-.3-2.9.8 1.9 1.6-1.2.5h-1.4l-1.4-1.5-.4.7.7 1.7 1.4 1.5-.9.6 1.5 1.4 1.3.9.2 1.7-2.4-.8.9 1.5-1.6.3 1.2 2.7h-1.7l-2.1-1.3-1.1-2.4-.6-2-1.1-1.4-1.4-1.7-.2-.9 1-1.4v-1l.8-.4v-.8l1.6-.3.8-.6h1.4l.3-.5.5-.1 1.8.1 1.8-.8 1.9 1 2.2-.3-.2-1.4 1.3.7-.6 1.9ZM405.9 16.6l6-1.1 5.4.1 2.4-.6 5.6-.2 12.4.2 9.3 1.4-3.1.7-6.2.1-8.6.1.6.4 5.8-.2 4.6.6 3.3-.6 1.1.7-2.1 1.1 4.3-.7 8-.7 4.7.3.8.8-6.9 1.4-1 .4-5.4.4 3.8.1-2.3 1.5-1.7 1.4-.6 2.5 1.7 1.4-2.7.1-3 .7 2.9 1.2v2l-2 .2 1.9 2-4 .2 1.8 1-.7.8-2.7.4h-2.6l2 1.7-.2 1-3.5-1-1.1.7 2.4.6 2.1 1.5.3 2-3.5.5-1.2-1-2-1.4.2 1.7-2.5 1.3 5 .1 2.6.1-5.6 2.2-5.8 2.1-5.9.8h-2.2l-2.3 1-3.5 2.8-4.8 1.8-1.4.1-2.9.7-3.1.6-2.2 1.6-.7 1.9-1.6 1.8-4 2.1.1 2.1-1.7 2.3-1.9 2.7-3 .1-2.4-2.2h-4.2l-1.5-1.5-.4-2.7-2.3-3.3-.3-1.8.7-2.4-1.7-2.4 1.5-1.9-.9-.9 3.3-3.1 3.4-.9 1.2-1.1 1.3-2-2.6.9-1.2.4-1.9.4-2-.9.8-1.7 1.4-1.3h1.8l3.5.6-2.5-1.5-1.2-.9-2.1.4-1.2-.7 3.3-2.2-.6-.9-.5-1.7-.7-2.5-1.7-1 .6-.9-3.8-1.4-3.6-.1-4.8.1-4.4.1-1.5-.7-1.8-1.4 5.1-.7 3.6-.1-6.9-.6-3-.9 1-.9 7.4-1 7.1-1.1 1.3-.8-3.8-.7 2.2-.8 6.9-1.3 2.5-.2.1-.9 4.2-.5 5.1-.2 5-.1 1.3.6 5-1 3.3.7 2.1.1 3 .6-3.2-1ZM316.6 213.8l-.1-.1.1-.2.2-.4.2.1-.2.5ZM321.3 224.8l1.7 1.1 1.6 1.9.1 1.6.9.1 1.4 1.4 1.1 1.1-.5 2.7-1.7.8.1.7-.5 1.6 1.2 2.1h.8l.3 1.7 1.6 2.7-.6.1-1.5-.3-.9.8-1.2.6-.8.1-.3.6-1.3-.2-1.7-1.4-.1-1.4-.7-1.5.5-2.6.7-1-.5-1.4-.9-.5.3-1.3-.6-.7-1.3.1-1.8-2.3.8-.8-.1-1.4 1.7-.5.7-.5-.9-1.2.3-1.1ZM292.3 190.5v1.7l-.3 1.1-.7.6.6.9-.2.8-1.7-.5-1.2.2-1.6-.2-1.3.5-1.3-.9.4-1 2.3.4 2 .3 1-.7-1.1-1.3.2-1.2-1.6-.4.7-.9 1.6.2ZM518.2 109l.7-1.9-.5-.6h1.3l.1-1.2 1.2.7.9.4 1.9-.4.2-.6.9-.1 1.1-.4.3.2 1-.4.5-.7.7-.2 2.6.9.5-.3 1.4.8.3.8-1.4.6-.9 2-1.2 2-1.9.6-1.4-.2-1.8.8-.8.5-2.1-.6-1.8-1.3-.8-.3-.6-1ZM451.1 54l-.7 1.7 2.1 1.8-2.9 2-6.1 1.8-1.9.5-2.6-.4-5.6-.8 2.2-1.2-4.1-1.3 3.6-.5.1-.8-4.1-.6 1.7-1.7 3.1-.4 2.8 1.8 3.3-1.5 2.4.8 3.4-1.4ZM675.1 143l3.6 3.5.4 2.5 1.4 1.5.3 1.5-1.9-.4 1.5 3.4 2.9 1.9 4 2.1-1.3 1.3-.4 2.9 2.7 1.1 2.7 1.5 3.7 1.7 3.6.4 1.7 1.5 2.1.3 3.2.7 2.2-.1v-1.2l-.7-1.9v-1.3l1.4-.6.7 2.4.2.6 2.5 1.1 1.6-.4 2.2.2 2.1-.1-.2-1.9-1.3-1 2-.3 1.9-2.3 2.5-1.9 2.3.7 1.5-1.2 1.7 1.9-.6 1.2 2.9.5.4 1.1-.7.6.6 1.8-2-.5-2.9 2.1.5 1.7-1 2.5.1 1.5-.7 2.5-2.2-.7.4 3.1-.4 1 .5 1.3-1.2.7-2.1-4.8-.7.1-.2 1.9-1.6-1.6.5-1.7 1.2-.2.7-2.5-1.5-.5h-2.4l-2.6-.4-.6-2.1-1.2-.2-2.3-1.3-.6 2.1 2.2 1.6-1.5 1.1-.4 1.1 1.8.8-.2 1.8 1.2 2.3.8 2.5-.2 1.1-1.8-.1-3.1.7.4 2.2-1.1 1.8-3.5 2.1-2.5 3.5-1.8 1.9-2.4 2 .2 1.4-1.2.7-2.3 1.1-1.2.2-.6 2.3.9 3.9.4 2.5-.9 2.8.3 5.2-1.4.1-1 2.3.8 1-2.4.9-.8 2-1 .9-2.6-2.8-1.5-4.3-1.2-3-1-1.4-1.6-2.9-1-3.8-.6-1.9-2.7-4.1-1.7-5.9-1.2-3.8-.4-3.7-.8-2.8-3.6 1.8-1.9-.4-3.8-3.6 1.1-1.1-.9-1.2-3.3-2.5 1.5-2.1h5.7l-.9-2.5-1.6-1.6-.7-2.3-1.9-1.3 2.4-3.2 3 .2 2.1-3.1 1.1-3.1 1.8-3-.5-2.2 1.8-1.7-2.4-1.5-1.3-2.1-1.6-2.6.9-1.3 4 .7 2.7-.4ZM614.1 137.8l2.1-.5 1.4-1.8 1.7.1 1-.5 1.8.2 3.1 1.6 2 .3 3.5 2.7 1.8.1.8 2.5-.2 3.7-.3 2.2 1.2.5-.8 1.6 1.3 2.4.6 2 2 .5.5 1.9-1.8 2.7 1.5 1.6 1.3 1.9 2.6 1.3.5 2.6 1.3.5.4 1.4-3.5 1.6-.5 3.5-5-.9-2.9-.7-3-.4-1.5-3.7-1.3-.6-2 .6-2.4 1.4-3.3-1-2.8-2.3-2.6-.8-2.1-2.9-2.4-4-1.3.5-1.8-1-.8 1.1-1.6-1.5-.2-1.6h-.8l.1-2.2-1.7-2.3-3.3-1.7-2.2-2.8.3-2.4 1.1-1-.5-1.8-1.8-.9-2.2-3.6-1.8-2.4.4-.9-1.4-3.5 1.5-.8.6 1.1 1.5 1.4 1.8.4.9-.1 2.5-2.2.8-.2.9.9-.5 1.4 1.8 1.6.6-.1 1.2 2.2 2.5.6 2 1.5 3.6.5 3.7-.8Z" cursor="pointer"/><path fill="url(#noDataPatternForMapChart-World)" fill-opacity="1" stroke="#aaa" stroke-opacity="1" stroke-width=".34" d="m593.6 141.5 1.8.9.5 1.8-1.1 1-.3 2.4 2.2 2.8 3.3 1.7 1.7 2.3-.1 2.2h.8l.2 1.6 1.6 1.5-1.5-.1-1.8-.2-1.5 2.8-4.8-.2-7.9-6.1-4-2.1-3.2-.8-1.5-3.7 5.2-3.1.5-3.6-.6-2.2 1.3-.8.9-1.9 1-.4 3 .4 1 .7 1.1-.5ZM466.1 88.6l.3 2.1-1.8 2.5-4.2 1.8-3.2-.5 2.1-3-1.1-2.9 3.2-2.3 1.8-1.3.4 1.5-.6 1.6 1.4-.1ZM570.5 151.4l-.3.9-1-.4-.3 2 .7.3-.6.5-.1.7 1.2-.4.2 1.2-.9 4.8-2.1-5.1.6-1-.2-.2.6-1.4.2-2.3.3-.8h.9l.2-.5.7-.1.1 1.3-.2.4ZM518.4 134.7l-.7 2.4.4.9-.4 1.6-2-1.2-1.3-.3-3.5-1.5.2-1.6 3 .3 2.5-.3Zm-15.9-8.9 1.5 2.1-.2 4-1.1-.2-1 1-.9-.8-.2-3.6-.7-1.7 1.4.1Zm10.2-15.8-.2 1.5.7 1.3-2-.5-1.8 1.1.2 1.5-.3.8.9 1.5 2.4 1.5 1.3 2.5 2.9 2.4h1.9l.6.6-.6.6 2.3 1.1 1.8.9 2.2 1.6.3.5-.3 1.1-1.5-1.4-2.2-.5-.9 1.9 1.9 1.1-.2 1.6-1 .2-1.2 2.6-1 .2-.1-.9.5-1.6.5-.7-1.1-1.7-.9-1.5-1-.4-.8-1.3-1.6-.5-1.1-1.2-1.9-.2-1.9-1.4-2.4-1.9-1.7-1.7-.9-3-1.2-.3-2-1-1.1.4-1.3 1.4-1 .2.2-1.3-1.3-.4-.7-2.3.8-.9-.7-1.1v-.8l1.1.6 1.1-.1 1.3-1 .4.4 1.2-.1.4-1.1 1.8.3 1-.5.1-1.2 1.5.4.2-.5 2.3-.5.6 1ZM276.5 194.2l1.7.3 1.4.7.3.9H278l-.8.5-1.4-.5-1.4-1.1.4-.7 1.1-.2ZM819.3 147l.8 1-.7 1.9-1.4-1-1 .7v1.8l-2-.9-.5-1.4.6-1.8 1.6.3.4-1.2Zm11.5-9 .3 2.4 1.2 1.5-.3 2.1-2.5 1.5-4.4.1-2 3.5-2.2-1.2-1.1-2.2-4.1.6-2.4 1.5h-2.9l3.5 2.2.4 5.2-1.2 1.2-1.7-1.1-.4-2.8-2-.8-1.8-2.1 2-.9.5-1.9 1.8-1.6.9-2.1 4.6-.9 3 .7v-5.4l2.4 1.5 2.1-3.1.8-1.1-.5-3.7-2.4-3.4-.1-1.9 2.3-.5 3.8 4.1 1.3 2.5-.6 3Zm-5.5-21 2.1.6.8-1.3 2.9 3.4-3.1.8-.1 3-5.2-2.1.8 3.3h-2.7l-2.2-2.9-.3-2.3 2.5-.2-2.1-4.1-.9-2.3 5 3.1Z" cursor="pointer"/><path fill="url(#noDataPatternForMapChart-World)" fill-opacity="1" stroke="#aaa" stroke-opacity="1" stroke-width=".34" d="m570.2 152.3.3-.9 3 1.2 4.5-3.3 1.5 3.7-.4.5-4.9 1.5 2.8 3-.8.5-.3 1-1.9.4-.5 1.1-1 .9-2.9-.4-.2-.5.9-4.8-.2-1.2.3-.8ZM652.1 122.6l-1.2.6-2.5 2.1-.5 2.1h-.9l-1.1-1.4-3.1-.1-1.2-2.4h-1.2l-.7-3-3.6-2.2-4 .2-2.7.5-3.1-2.7-2.3-1.1-4.3-2.2-.5-.2-5.7 1.7 3 11-1.2.2-2.3-2.4-1.9-.8-2.6.6-.8 1-.3-.7.3-1.3-.7-1-3.1-1-1.7-2.7-1.5-.8-.3-.9 2.4.3-.5-2.2 1.9-.5 2.2.4-.3-2.8-.9-1.9-2.3.2-2.2-.7-2.4 1.3-2.1.6-1.3-.5-.1-1.5-2-2-1.7.1-2.5-2 .8-2.2-.8-.6 1-3.2 2.8 1.7-.3-2.2 3.8-3.1 3.6-.1 5.7 2 3 1.2 2.1-1.2 3.6-.1 3.5 1.5.3-.9 3.3.2.1-1.4-4.4-2 1.6-1.4-.7-.8 1.9-.7-2.4-2 .7-1 8-1 .8-.7 5.1-1 1.4-1.2 4.3.6 2.1 3 2-.7 3.3.9.6 1.6 2-.2 4.4-2.7-.4.9 3.9 2.2 8.6 7.4.5-1.5 4 1.6 2.9-.7 1.5.5 1.9 1.7 1.9.6 1.6 1.2 2.8-.4 2.1 1.8-.9 1.9-1.8.3 1.2 3-.8 1.3-5.1-1 .5 5.3-.9.7-4.3 1.2 4.2 5.1-1.4.8.8 1.7-1.6-.4-1.7-1.1-3.6-.3-4.1-.1-.7.3-3.9-1.2-1.2.6.2 1.7-4.3-1-1.4.4ZM590.8 255.1l-1.9 1.2-.7 1.2-1 .3-.4 2.1-.9 1.2-.5 2-1.1 1-3.8-3-.1-1.8-9.6-6.1-.5-.3v-3.2l.8-1.3 1.3-1.9.9-2.2-1.2-3.5-.3-1.5-1.3-2.1 1.6-1.8 1.8-2 1.4.5v1.7l.9 1h1.9l3.4 2.5.8.1.6-.1.6.3 1.8.3.8-1.3 2.4-1.2 1.1 1h1.8l-2.3 3.4.1 11ZM60.7 243.9l.1.1.2.1v-.1.2h-.1v.2l.1.1h.1l.1.1v.1h.2v.1H61.1v-.1H61l-.3-.1h-.1v-.1l-.1-.1h-.2v-.2h.2-.1v.2h.2l.1.1v-.1h-.1v-.1h.1v.1h.1v-.1h-.1v-.1h.1v-.1.2l.1-.1v-.1h-.1l-.1-.1h-.1v-.1.1h-.1v-.1h.1ZM530.1 123.9l-.3-1.1-.6-.3-.6-.8.4-.7.5-.2.3-1 .4-.1.4.4.5.2.3.4.4.2.6.5h.3l-.2.7-.3.4.1.2-.5.1-1.4.5v.6ZM602.7 159.6l.7 1.3-.1.7 1.1 2.3-1.9.1-.8-1.5-2.3-.3 1.5-2.8Z" cursor="pointer"/><path fill="url(#noDataPatternForMapChart-World)" fill-opacity="1" stroke="#aaa" stroke-opacity="1" stroke-width=".34" d="m652.1 122.6.2-1.3 1.4-.4 4.3 1-.2-1.7 1.2-.6 3.9 1.2.7-.3 4.1.1 3.6.3 1.7 1.1 1.6.4-.1.7-3.3 1.6-.4 1.2-3 .3-.3 1.9-2.8-.4-1.5.6-1.9 1.4.6.7-.5.7-4.5.5-3.4-1-2.6.2-.2-1.7 2.8.5.6-.9 2 .3 2.5-2.2-3.4-1.5-1.5.7-2.2-1.1 1.5-2ZM757.7 207l.7-1.4-.2-2.6-2.4-2.6-.6-3-2.4-2.4-2-.2-.4 1-1.5.1-.8-.5-2.6 1.8-.4-2.7.2-3.2-1.8-.1-.5-1.8-1.2-1 .3-1.1 2-1.9.3.7h1.4l-.9-3.4 1.2-.4 2 2.3 1.6 2.8h3.2l1.4 2.6-1.5.8-.6 1.1 3.4 1.8 2.7 3.6 2.1 2.6 2.3 2.1.9 2.2-.1 3-2.5-1.1-.9 2ZM526.4 82.5l-.2-2.2.8-1.7 1.9-1 2.1 2.1 1.7-.1.1-2.1 1.8-.5 1 .3 2 1.1h1.8l1.2.6.4 1.4 1.1 1.7-2.2 1.1-1.3.4-2.3-1.3-1.2-.2-.4-.6-2.2.3-3.7-.2ZM570.6 149.6l-.7.1-.2.5h-.8l.6-2.4 1-2.2v-.1l1.2.2.5 1.2-1.2 1.1ZM554.3 337.3l.9.9-.9 1.5-.5 1-1.5.5-.5.9-1 .3-1.7-2.3 1.5-1.9 1.4-1.2 1.3-.6ZM518.7 181.1l-1.9 1.1-1.5-1.7-4.1-1.3-1.2-1.9-2.1-1.4-1.2.6-.9-1.7-.1-1.3-1.6-2.2 1-1.3-.3-1.8.3-1.7-.2-1.4.4-2.4-.2-1.4-.9-2.7 1.3-.7.1-1.3-.3-1.2 1.7-1.2.8-.9 1.2-.9.1-2.3 3 1 1-.3 2.2.5 3.4 1.4 1.3 2.7 2.3.6 3.7 1.2 2.8 1.5 1.2-.8 1.1-1.3-.7-2.4.7-1.4 1.7-1.4 1.8-.4 3.4.6 1 1.3h.9l.9.5 2.5.4.7 1-.8 1.4.5 1.3-.5 1.9.9 2.4.6 10.7.5 11.2.2 6h-3v1.3l-10.6-5.8-10.6-5.8ZM502.6 108l-.1.1.2.1v.1l-.1.1-.1.1-.2-.1.1-.1-.1-.2.1-.3Z" cursor="pointer"/><path fill="url(#noDataPatternForMapChart-World)" fill-opacity="1" stroke="#aaa" stroke-opacity="1" stroke-width=".34" d="m530.8 87.3-.2-.7.1-.8-1.1-.5-2.4-.5-.8-2.3 2.4-.9 3.7.2 2.2-.3.4.6 1.2.2 2.3 1.3.5 1.3-1.7.9-.3 1.6-2.2 1.1h-2.2l-.7-.9ZM494 99.4l.4.7v1.3h-.7l-.5-.2.2-1.7ZM571.5 284.7l-.8 2.3.6 4 .9-.1.9 1 1.1 2.2v3.8l-1.1.7-.9 2.1-1.7-1.9-.1-2.1.6-1.4-.1-1.2-1-.8-.7.3-1.5-1.5-1.4-.7.9-2.8.9-1.1-.4-2.5.6-2.4.5-.9-.7-2.5-1.2-1.4 2.6.6.5.8.9 1.4ZM675.4 240.3h-.1v-.2h.2v.2Zm.2-2.8h-.1v-.2h.1ZM447.9 205.9l.9-.5.4-1.8.9-.1 1.8.9 1.5-.6 1 .2.4-.7h10.6l.6-2.2-.4-.3-1.2-13-1.1-13.1h3.9l8.8 6.6 8.8 6.5.6 1.5 1.6.8 1.2.5.1 1.9 2.9-.3v7l-1.4 2-.2 1.9-2.4.4-3.5.3-1 1.1-1.7.1h-1.7l-.7-.6-1.4.4-2.5 1.3-.5.9-2 1.4-.4.8-1.1.6-1.3-.4-.7.7-.4 2.1-2.1 2.5v1l-.7 1.3.2 1.7-1.1.5-.6.4-.4-1.3-.8.3-.5-.1-.5.9h-2l-.7-.5-.4.3-.8-.8.2-.9-.4-.4-.5.3.1-1 .5-.8-1.1-1.2-.3-.9-.5-.6-.6-.1-.6.4-.9.4-.7.7-1.1-.3-.8-.7-.4-.1-.7.4h-.4l-.2-1.1.2-1-.2-1.1-1-.9-.5-1.7ZM516.4 141.9v.1h-.3l-.2-.1v-.4l.5.3ZM931.1 232.4l-.1-.1v-.2h.1Zm3.5-3.9.4.2.3-.1-.2.1h-.1l-.4-.1Z" cursor="pointer"/><path fill="url(#noDataPatternForMapChart-World)" fill-opacity="1" stroke="#aaa" stroke-opacity="1" stroke-width=".34" d="m447.9 205.9-1.7-2.1-1.6-2.2-1.7-.8-1.3-.9-1.4.1-1.3.6-1.3-.2-.9.9-.2-1.6.7-1.5.4-2.8-.2-3-.3-1.5.3-1.5-.6-1.4-1.4-1.3.6-1h10.3l-.5-4.4.7-1.5 2.5-.3v-7.7l8.5.2.1-4.6 9.6 7.3h-3.9l1.1 13.1 1.2 13 .4.3-.6 2.2h-10.6l-.4.7-1-.2-1.5.6-1.8-.9-.9.1-.4 1.8ZM630.6 311.8l-.2.1h-.4l-.2-.2.1-.1v-.2l.1-.4.2-.1.2-.1v-.3l.2-.1.2-.1.2.3.1.4v.4l-.2.1-.1.2ZM913.5 234v.1l-.2-.1.1-.1Zm-12.8-4.5-.1.1-.2-.1-.1-.2-.1-.1v-.1l.2-.1h.2l.2.3-.1.1Zm-17.9-1.6-.1-.1v-.1h.1Zm.7-.3h-.1v-.1h.1Zm-37.1-6.3v-.2h.1l.1.1-.1.1ZM542.3 105l.5-.4 1.5-.3 1.8.9 1 .1 1.2.8v1l.9.5.5 1.2 1 .8-.1.4.5.3-.6.2-1.4-.1-.3-.4-.5.3.2.5-.5.9-.2 1-.6.4-.6-1.4.1-1.2-.3-1.3-1.6-1.8-.9-1.2-.9-.9ZM497.9 118.3h-.2v-.1ZM683.9 101.9l2.2-.6 3.1-2.5 2.8-1.3 2.5.9h2.4l2.3 1.4 2.4.1 3.7.7 1.1-2-1.9-1.7.7-3 3.2 1.2 2.3.3 3.1.7 1.8 2.2 3.9 1.2 1.9-.5 2.7-.4 2.5.4 3.1 1.4 2.3 1.5h2.2l3.2.4 1.7-.7 2.7-.5 2.1-2 1.6.3 1.9 1 2.6-.3.2 2.2.2 3 1.3 1.2 1.1-.4 2.6.4 1.1-1 2.5.9 3.4 2.1.3 1-2-.3-3.2.4-1.2.8-.6 2-3 1.1-1.5 1.6-2.8-.6-1.5-.3-.2 1.9 1.4 1.2.9.9-1.2 1-.9 1.6-2.3 1.1-3.5.1-3.5 1-2 1.6-1.6-.9h-2.9l-4.4-1.8-2.6-.4-3 .4-5.3-.7-2.7.1-2.2-1.8-2.3-2.7-1.7-.4-3.7-1.8-3.4-.4-3.1-.5-1.4-1.3-.6-3.5-2.7-2.3-3.9-1.1-2.7-1.6ZM527.8 121.4l-1 1.5.3.9-.5-.2-.8-1-1.1-.6.2-.5.2-1.6.8-.7.4-.3.7.5.4.4.8.3 1 .7-.2.2-.4.7-.6.3ZM474.6 143.9l.9 2 .1 1.8.9 3.2.7.6-.5 1.2-3.3.5-1.2 1.1-1.5.3-.1 2.2-3 1.2-1 1.5-2.1.8-2.6.5-4.2 2.2v3.8h-11.4l1.9-1.7 3.8-2 1.3-.9 2.2-2.5-.5-3.7 1-2.6.4-1.6 1.7-2 2.6-1.4 1.9-1.3 1.7-3.1.9-1.8h1.8l1.5 1.3 2.4-.3 2.6.7ZM571.5 284.7l2-.2 3.2.8.7-.3 1.8-.1 1-.9h1.6l2.9-1.1 2.2-1.8.4 1.4-.3 3 .3 2.6-.1 4.7.4 1.5-.9 2.2-1.1 2.1-1.8 1.8-2.5 1.2-3 1.4-3.1 3.3-1.1.5-1.9 2.2-1.1.7-.4 2.1 1.1 2.3.4 1.8v.9l.5-.2-.2 3-.5 1.4.5.5-.4 1.2-1.2 1.1-2.2 1-3.2 1.7-1.2 1.1.1 1.3.7.2-.4 1.5h-1.9l-.1-1.3-.3-1.4-.2-1 .7-3.4-.6-2.2-1-4.2 2.9-3.4.8-2.2.4-.3.4-1.7-.4-.9.2-2.3.7-2.1.1-3.8-1.3-1-1.3-.2-.5-.7-1.2-.7-2.2.1-.1-1.1-.2-2.2 8.1-2.5 1.5 1.5.7-.3 1 .8.1 1.2-.6 1.4.1 2.1 1.7 1.9.9-2.1 1.1-.7v-3.8l-1.1-2.2-.9-1-.9.1-.6-4ZM741.3 220l-.4-2.2.6-2.3-1-1.8-.1-3.3-1.2-1.5-1.3-3.6-.9-3.9-1.5-2.5-1.5 1.6-2.7 2.1-1.5-.3-1.8-.7.5-3.7-.9-2.8-2.6-3.5.2-1.1-1.6-.4-2.2-2.4-.5-2.5 1 .5-.3-2.2 1.2-.7-.5-1.3.4-1-.4-3.1 2.2.7.7-2.5-.1-1.5 1-2.5-.5-1.7 2.9-2.1 2 .5-.6-1.8.7-.6-.4-1.1 1.4-.3 1.3 1.8 1.3.7.6 2.3.4 2.5-1.9 2.6.2 3.5 2.7-.5 1.1 2.8 1.7.6-.3 2.5 2.1 1.1 1.2.6 1.8-.9.3 1.3-2 1.9-.3 1.1-1.4.7-1.4 1.3-1.8.2-.7 3.2-1 .6 1.6 2.6 2 2.2 1.3 2-.6 2.6-.9.6.8 1.5 2 2.4.5 1.7.1 1.4 1.3 2.7-1.2 2.8ZM522 336.2l-1.8-2.3-1-2.2-.4-2.9-.6-2.2-.8-4.7.1-3.6-.3-1.6-1-1.3-1.3-2.5-1.3-3.6-.6-1.9-2-2.9-.2-2.3 1.3-.6 1.6-.5 1.7.1 1.5 1.3.4-.2 10.7-.1 1.8 1.4 6.3.5 4.9-1.3 2.2-.6 1.7.1 1 .7v.3l-1.5.6h-.8l-1.7 1.2-1-1.2-4.1 1-1.9.1-.4 10.8-2.6.1-.3 8.8-.5 11.1-2.4 1.6-1.3.2-1.6-.6-1.2-.2-.4-1.3-.9-.8ZM924.6 251.6l.1-.1.1.1v.1h-.2v-.1ZM706.8 165.9v1.3l.7 1.9v1.2l-2.2.1-3.2-.7-2.1-.3-1.7-1.5-3.6-.4-3.7-1.7-2.7-1.5-2.7-1.1.4-2.9 1.3-1.3.9-.7 2.3.9 3 1.9 1.5.5 1.2 1.4 2.1.6 2.3 1.3 3.1.7ZM495.6 89.7l.4 1-.4 2.6-.6 1.1h-1.3l.5 3.1-1.3-.7-1.5-1.3-2.1.6-1.7-.2 1.2-.8 1.8-4.3 3.1-1.2ZM912.9 313.6l1.7 1.8 1 1.4-1.2.8-1.2-.9-1.5-1.3-1.3-1.6-1.2-2.1-.1-1.1 1.1.1 1.2 1 .9 1ZM902.8 373.3l-.4 1.3 2.6-1.2-.2 1.2-1 1.3-1.9 1.4-3.4 2.2-2.2 1.1-.2 1.5h-1.9l-3 1.1-2.3 2-3.8 3-3 1.3-1.9.8h-2.1l-.7-1-2.4-.2.5-1.1 3-2.2 5.4-2.9 2-.6 2.7-1.1 3.3-1.6 2.6-1.5 2.8-2.2 1.5-.8 1.6-1.7 2.8-1.3Zm13.6-14.3-.2 3.2 1.3-2.1.7.9-1.2 2.2 1.4 1 1.5.3 2.2-1.2 1 .4-2.4 2.6-2 1.8-1.8-.1-1.3.9-.7 1.3-.8.6-2.1 1.6-2.8 2-2.8 1.2.2-.8-.7-.4 3.3-2.4.4-1.7-1.8-1.2.8-1.1 2.5-1 2-2.3 1.2-2 .2-2 .4-.5-.4-1.3-.3-2.6.2-2.2 1-.2.4 1.7 1.5.7ZM485.7 214l.1-2.1-3.1-.7-.1-1.4-1.5-2-.3-1.4.2-1.4 1.7-.1 1-1.1 3.5-.3 2.4-.4.2-1.9 1.4-2v-7l3.7-1.3 7.5-5.9 8.8-5.8 4.1 1.3 1.5 1.7 1.9-1.1.7 4.6 1 .8.1 1 1.1 1-.6 1.3-.8 6.1-.1 4-3.3 2.8-1.1 4 1.2 1.1v1.9l1.7.1-.3 1.4-.7.2-.1 1h-.5l-1.8-3.3-.6-.1-2.1 1.7-2-.9-1.5-.2-.7.5-1.6-.1-1.5 1.2-1.4.1-3.2-1.5-1.2.7-1.4-.1-1-1.1-2.6-1.1-2.9.3-.6.7-.4 1.7-.8 1.2-.1 2.7-2.1-1.7h-.9ZM796.7 122.3l.6.5-1-.2-.5 1-.1 1 1.3 2.2-.9.6-.2.6-.4.9-1.4.4-.6.8.6 1.3-.2.4 1.3.5 2 1.3v.7l-.9.2-1.7.2-.3 1.3-1.2-.1v.3l-1.5-.6v.6l-.6.2-.4-.5-.7-.3-.9-.5v-1.3l.4-.4-.5-.5-.1-1.6-.4-.5-1.6-.4-1.6-.8 1-1.9 1.8-1.6.5-2.1 1.7.9 2.2.1-1.3-1.5 3-1.3v-1.7ZM530.1 123.9h.3v-.6l1.4-.5.5-.1.9-.2h1.1l1.3.9.4 2-.5.1-.3.5h-1.4l-.8.6-1.6.3-1.1-.7-.5-1.3ZM535.3 47.2l.4-1.8-2.7-1-2.8.9-.5 1.9-1.6 1.1-2.2-.6-2.5.1-2.4-1.3-1.1.6-1.1.1v1.7l-3.8-.4-.3 1.4h-1.9l-1 1.9-1.6 2.9-2.7 3.7.8.9-.6 1h-2l-1.1 2.5.5 3.6 1.4 1.4-.4 3.2-1.6 1.9-.8 1.6-1.6-1.7-4 3.2-2.8.7-3.1-1.4-.9-3-.9-6.4 1.9-1.7 5.3-2.3 3.8-2.7 3.4-3.7 4.2-5.1 3-1.9 4.8-3.2 4-1.1 3.2.2 2.4-2.1 3.5.1 3.2-.5 6.5 1.8-2.3.7 2.5 1.6-3 1Zm-12.9-21-3.5.9-3.2-.5 1-.6-1.2-.7 3.4-.4.9.8Zm-12-4 5.9 1.6-4 .8-.6 1.6-1.4.5-.4 1.8-2.1.1-4-1.4 1.4-.8-2.7-.6-3.6-1.8-1.5-1.7 4.4-.8 1 .8 2.4-.1.5-.7 2.4-.1Zm11.4-1.5 3.5.7-2 1.2-4.8.2-5-.3-.5-.6-2.4-.1-2-.9 4.9-.5 2.5.4 1.5-.6ZM619.7 199.8l-1-2.1-2.4-5 7.6-3 1.2-6-1.4-2.2v-1.2l.6-1.2-.1-1.3 1.2-.6-.5-.4v-2h1.3l1.4 2.1 1.5 1.1 2 .4 1.6.5 1.3 1.8.8 1 1 .3v.7l-.7 1.8-.4.9-1 .9-.8 2.1-1.2-.2-.5.8-.2 1.5.5 2-.3.4H630l-1.5 1.1-.1 1.5-.6.6h-1.6l-1 .7.1 1.2-1.2.9-1.5-.3-1.7 1Zm5.9-27.3-.6-1.1.6-1 .4.3-.1 1.2ZM667 138l2.3 1.4 1.3 2.3 4.5 1.3-1.8 2.5-2.7.4-4-.7-.9 1.3 1.6 2.6 1.3 2.1 2.4 1.5-1.8 1.7.5 2.2-1.8 3-1.1 3.1-2.1 3.1-3-.2-2.4 3.2 1.9 1.3.7 2.3 1.6 1.6.9 2.5h-5.7l-1.5 2.1-2-.8-1-2.2-2.3-2.3-4.7.6H643l-3.6.5.5-3.5 3.5-1.6-.4-1.4-1.3-.5-.5-2.6-2.6-1.3-1.3-1.9-1.5-1.6 4.5 1.6 2.5-.5 1.6.4.4-.6 1.8.2 3.1-1.2-.3-2.6 1.1-1.7h1.9l.1-.8 1.8-.4 1 .2.8-.8-.5-1.8.7-1.8 1.5-.8-1.5-2 2.4.1.5-1.1-.4-1.1.9-1.3-.6-1.5-.9-1.3 1.1-1.3 2.5-.6 2.8-.4 1.1-.5ZM837.5 227.8h-.1l-.1-.2v-.3l.1-.2h.1l.1.3-.1.2ZM570.2 152.3l.2 1.9-.3.8-1.2.4.1-.7.6-.5-.7-.3.3-2Zm-2.5 2.4.2.2-.6 1ZM514.4 96.6l-1.1-1.9.1-1-.7-1.5-.9-1 .6-.8-.7-1.5 1.5-.8 3.3-1.3 2.7-1 2.3.5.3.7h2.1l2.8.3h4.1l1.2.3.7.9.3 1.3.8 1.1.1 1.1-1.2.6.9 1.3.2 1.3 1.5 2.5-.2.9-1.1.3-1.8 2.4.8 1.3-.5-.1-2.4-1.2-1.6.5-1.1-.3-1.3.6-1.3-1-.9.3-.2-.1-1.2-1.5-1.7-.1-.3-1-1.6-.3-.3.8-1.3-.6.1-.8-1.8-.3ZM458 123.8l.9-.8 1.1-.4.5 1.5h1.4l.5-.4 1.4.1.6 1.5-1.1.8-.1 2.3-.4.5-.2 1.4-1 .2.9 1.8-.7 2 .8.9-.4.8-.9 1.1.1 1-1 .8-1.3-.4-1.3.3.5-2.3-.2-1.9-1.1-.3-.5-1.1.2-2 1.1-1 .2-1.3.6-1.8-.1-1.2-.4-1.1ZM306.1 194.2l1.3.2.5.6-.8.8h-2l-1.5.1v-1.3l.4-.5ZM611.8 175.3l-.4-2.1.5-1.6.7-.4.9 1 .2 1.8-.4 1.7-.7.2Z" cursor="pointer"/><path fill="url(#noDataPatternForMapChart-World)" fill-opacity="1" stroke="#aaa" stroke-opacity="1" stroke-width=".34" d="m533.3 106 .9-.6 1.5.3h1.5l1.2.7.7-.4 1.7-.3.5-.7h1l.7.3.9.9.9 1.2 1.6 1.8.3 1.3-.1 1.2.6 1.4 1.1.5 1.1-.5 1.1.5.2.8-1.1.6-.7-.2-.2 3.6-1.4-.4-1.9-1-2.8.7-1.1.7-3.5-.1-1.9-.5-.9.2-.9-1.2-.5-.5.5-.5-.6-.4-.7.7-1.5-.9-.3-1.2-1.5-.7-.4-1-1.4-1.1 1.9-.6 1.2-2 .9-2ZM810.3 97.6l6.5 5.2-4.2-1 1.7 4.3 4.5 3 1.4 2-3-1.7v2.3l-2.2-2.5-1.8-2.9-2.6-3.2-1.1-2.2-3-3.9-3.7-2.8-3.2-4 .9-1.3-2.1-1.3.6-.4 2.3 1.9 3.3 2.8 2.3 2.8ZM530.8 87.3h-4.1l-2.8-.3.4-1.2 2.9-1 2.4.5 1.1.5-.1.8Zm-399-33.7.4.7 2.3-1.9 4.8.4.4 2.4-3.6 1.2-3.6.2-3.7 2.6-1.6.6-1.8-.1-.2-.9-1.6-.8 1.1-1.1-1.4-.5-2.8.4.3-1 1.8-.9-3.3.6-.9 1.2-2.8 1.2 15.7-10.4 1.7 1.9 1.3 2.6Zm689.3-10.8-1.9.1-1.6-.8.6-1Zm-679.5-.2-2.7.2 2.9-1.7.4-.1h1.6l1.5.7-.7.3Zm602.3-5.7-2.7.1-4.2-.3-.5-.1.4-1 1.9-.2 4 .9Zm6.1-4.4-.6.9-3.2-.2-4.8-.9-.8-.8 3.9.4Zm-11.9-1.1 1.3 1.7-6.7-.1-2.1.6-5.9-1.5-1.5-1.6 1.6-.5 4.8.1ZM589.2 43.1l-1 .2-6.4-.3-1.1-1.2-3.7-.6-.9-1.3 1.6-.6-.8-1.3 2.6-2.1-1.9-.3 3.2-2-1.2-1.1 3.3-1.2 4.8-1.5 5.5-.4 2.4-.9 3.1-.3 2 .9-.6.7-5.4 1.2-4.7 1.1-4.1 2.2-1.3 2.4L583 39l1.5 2Zm206.6 77.6h1.1l-1.8-3.5-2.2-2.6 1.3-1 3.3.5-.3-2.9-1.4-3.2.2-1.1-.6-2.6-3.3.8-1.2 1.2h-3.6l-2.8-2.8-4.2-2.1-4.7-.9-2.9-2.9-2.1-1.7-1.8-1.3-3.6-2.9-2.8-1.1-4-.8-3 .1-2.4.5-.8 1.4 1.8.7 1.2 1.6-.6.9v3.1l.9 1.3-2.1 1.8-3.4-1.1-2.6.3-1.9-1-1.6-.3-2.1 2-2.7.5-1.7.7-3.2-.4H732l-2.3-1.5-3.1-1.4-2.5-.4-2.7.4-1.9.5-3.9-1.2-1.8-2.2-3.1-.7-2.3-.3-3.2-1.2-.7 3 1.9 1.7-1.1 2-3.7-.7-2.4-.1-2.3-1.4h-2.4l-2.5-.9-2.8 1.3-3.1 2.5-2.2.6-.8.2-2.1-1.8-2.8.4-1.6-1.2-1.9-.6-1.9-1.7-1.5-.5-2.9.7-4-1.6-.5 1.5-8.6-7.4-3.9-2.2.4-.9-4.4 2.7-2 .2-.6-1.6-3.3-.9-2 .7-2.1-3-4.3-.6-1.4 1.2-5.1 1-.8.7-8 1-.7 1 2.4 2-1.9.7.7.8-1.6 1.4 4.4 2-.1 1.4-3.3-.2-.3.9-3.5-1.5-3.6.1-2.1 1.2-3-1.2-5.7-2-3.6.1-3.8 3.1.3 2.2-2.8-1.7-1 3.2.8.6-.8 2.2 2.5 2 1.7-.1 2 2 .1 1.5 1.3.5-.6 1.7-2.2.5-1.7 3.1 2.8 2.8.2 2 3.5 3.5-1.2 1.2-.3.8-1.1-.2-2.1-1.8-.7-.1-1.6-.7-1-1.3-2.4-.6-1.4.5-.5-.6-3.6-1.4-3.7-.5-2.1-.5-.2.4-3.6-2.5-2.9-1.2-2.4-1.7 1.7-.5 1.5-2.5-1.6-1.1 3.3-1.2-.2-.7-2 .5-.2-1.3 1-.8 2.3-.2.1-1-.8-1.6.6-1.6-.2-.8-3.6-1h-1.4l-1.7-1.3-1.7.4-3.1-1-.1-.6-1-1.2-1.9-.2-.4-.9.5-.5-1.8-1.7-2.3.3-.7-.1-.5.6-.8-.1-.9-1.8-.8-1 .4-.3 1.9.1.7-.6-.8-.8-1.6-.5v-.5l-1-.5-1.8-1.9.3-.8-.4-1.3-2.3-.7-1.1.4-.5-.7-2.4-.7-1.1-1.7-.4-1.4-1.2-.6.8-.9-1.2-2.6 1.2-1.6-.4-.5 2.1-1.5-2.5-1.3 3.8-3.5 1.6-1.6.4-1.4-3.5-1.8.4-1.8-2.3-2 .8-2.2-3-3 1.3-2-3.4-1.7-.2-1.8 1.5-.2 3-1 1.8-.9 3.6 1.5 5.5.6 8.3 2.9 1.9 1.3.7 1.7-1.7 1.4-3 .7-9.5-2-1.4.3 3.8 1.9.5 1.2.9 2.8 2.8.8 1.8.7-.1-1.3-1.6-1.2 1-1 5.4 1.7 1.5-.7-2-1.9 3.9-2.6 1.8.2 2.2.9.5-1.8-2.2-1.6.4-1.5-2-1.6 5.7.8 1.7 1.5-2.3.3.5 1.4 1.9.9 2.9-.6-.2-1.6 3.6-1.2 5.8-2.2 1.5.1-1.2 1.5 2.6.3 1-.9h3.6l2.3-1.1 3 1.5 1.4-1.7-2.8-1.4.5-.9 6.1.8 3.1.8 8.8 2.9.5-1.3-2.8-1.4-.4-.5-2.5-.3V45l-2.3-1.9-.5-.8 2-2.2-.3-2.3 1-.4 5.4.6 1.3 1.4-.3 1.9 1.7.8 1.8 1.8 1.8 3.4 3.1 1.6.3 1.7-1.7 3.7 2.5.4.3-.9 1.8-.7-.3-1.3.9-1.2-2.1-1.5-.2-1.7-2.2-.2-1.4-1.4-.2-2.5-3.8-2 2.1-1.7-1.7-1.7.9-.1 2 1.4 1 2.3 2.3.5-2.1-1.8 2.4-1 3.7-.1 4.6 1.4-3.3-2-2.3-2.6 2.8-.5 4.4.1 3.7-.3-2.6-1.2.7-1.6 1.9-.1 2.4-1.1 4.3-.3-.1-.6 4.4-.3 2.1.6 2.5-1.3 3.3.1-.7-1 .5-1 2.9-.9 3.9.8-1.7.5 4.4.4 1.9 1.1.9-.6h5.2l5.4 1.2 2.5.8 1.2 1.2-1.1.7-3.2 1.3-.6.7 2.7.4 3.4.6 1.1-.5 2.7 1.5.1-.6 2.5-.4 6.3.4 1.8 1.2 8.2.3-2.3-1.8 4.5.4h2.9l4.6 1.3 2.8 1.5.2 1 4.8 2 4.2 1-1.4-2.6 4.4 1.1 2.3-.7 4.7.8.4-.7 3.6.4-4.5-2.3 1-1.1 19 1.6 3.8 1.5 7.6 1.9 7-.5 4.4.4 3.1 1 2.4 1.9 3.4.7 1.9-.5 3.3-.1 4.3.5 3.3-.3 6.7 2.3 1.2-.8-4-1.7-.9-1.1 7.2.7 3.8-.1 7.4 1.2 4.4 1.1 15.7 10.4-1 1.1-2.9-.2 3.9 1.5 4.3 2.2 1.9.7 1.8 1.1.5.7-4.7-.6-3.1 2.1-1.4.3-.8 1.9-.9 1.7.8 1.3-5.4-1.9-2.9 2.1-2.2-1-.6 1.2-3.4-.4 1.5 1.8.6 2.7 1.3 1.2 3.2.6 4.3 4.1-2 .1 1.6 2.4 2.2 1.2-2.3 1.5 2.5 3.2-2.7.7 2.2 3-.8 2.7-2.7-2-5-4.2-7.6-6.4-3-3.9.1-1.7-1.3-1.3 2.6-.6-.1-3.6.3-2.8 1.2-2.2-3.1-3.8-2.2.2 1.5 2.2-1.7 3-5.7-3.3-4.3.9-.1 4.6 3.7 1.7-4 .7-3 .3-2-2-3.8-.4-1.2 1.4-7-.5-6.2.8-1.7 5.5-2.3 6.6 3.8.4 2.7 1.8 2.7.6.2-1.4 2.6.2 6 3.2 2.2 2.4.7 2.9 2.6 3.5 2.4 4.6-.5 4.3.7 2-.9 3.5-1 3.4-.4 1.8-2.2 1.7-1.5.1-2.4-1.5-1.9 2.2.2 1-.6-.5ZM659 25.2l-8.5.8-.6-2.8 1-.3 1.5.2 5.9 1.2Zm-95.1-4.7-2 .2-1.4.2v.3l-1.8.3-2-.5.5-.6h-3.7l3-.4h2.5l.6.5.7-.5 1.3-.3 2.7.5Zm84.8 3.4-3.4.3-5.5-.6-3.8-.8-3.2-1.6-2.7-.3 2.5-1.4 3-.4 4.4 1 6.5 1.9ZM561 253.4l1.1 1.7-.2 1.8-.8.4-1.4-.2-.8 1.7-1.6-.2.2-1.7.4-.2.1-1.8.8-.9.6.4ZM315.5 198.4l-.1.1-.1-.1.1-.2.1.1Zm-.2-.3-.2-.2-.2-.1-.1-.1v-.1l.1-.1.2.2.1.2h.1ZM319.1 208.4l-.2.3-.2-.2v-.4l.2-.3.1-.2.1-.1.1.3ZM318.3 210.4h-.1l-.2-.2v-.3l.2-.1.1-.1h.1v.5ZM27.3 292.4h-.8l-.4-.2H26l-.3-.2-.2-.2.2-.1h.4l.7.2.1.2h.1l.2.1Zm-2.7-1.8.4.3.2.4-.2.4-.2-.1-.4.1-.1-.1-.7-.6-.2-.2h.3l.5-.1ZM509.7 117.7l.2-.2.2.1-.1.2h-.2ZM592.6 200.7l-.4-1.3-.8-.9-.3-1.2-1.4-1.1-1.6-2.5-.9-2.5-1.9-2-1.2-.5-1.9-2.9-.5-2.1v-1.8l-1.7-3.3-1.3-1.2-1.4-.6-1-1.8.1-.6-.8-1.6-.8-.7-1.2-2.2-1.8-2.5-1.4-2h-1.3l.2-1.7.1-1 .2-1.2 2.9.4 1-.9.5-1.1 1.9-.4.3-1 .8-.5-2.8-3 4.9-1.5.4-.5 3.2.8 4 2.1 7.9 6.1 4.8.2 2.3.3.8 1.5 1.9-.1 1.3 2.6 1.3.7.6 1 1.9 1.3.3 1.3-.2 1 .4 1 .9.8.4 1 .5.7.8.6.7-.2.6 1.2.2.7 1.2 3 8 1.6.4-.7 1.4 2.2-1.2 6-7.6 3-7.5 1.2-2.3 1.3-1.7 3.2-1.2.5-.7-1-1 .1-2.6-.3-.5-.3-3 .1-.7.3-1.1-.8-.6 1.5.3 1.2Z" cursor="pointer"/><path fill="url(#noDataPatternForMapChart-World)" fill-opacity="1" stroke="#aaa" stroke-opacity="1" stroke-width=".34" d="m534.3 116.8-.5.7.4 1 1.3 1.3-.9 1-.3.9.3.4-.3.4h-1.1l-.9.2-.1-.2.3-.4.2-.7h-.3l-.6-.5-.4-.2-.3-.4-.5-.2-.4-.4-.4.1-.3 1-.5.2.2-.2-1-.7-.8-.3-.4-.4-.7-.5.5-.1.3-1.4-1.3-1.2.5-1.3h-.9l.8-1.1-.8-.8-.7-1.2 1.8-.8 1.4.2 1.4 1.1.4 1 1.5.7.3 1.2 1.5.9.7-.7.6.4-.5.5ZM627.8 264.2v.2h-.2v-.2l-.2-.1-.1-.2.2-.1ZM757.4 246.2l-1.1.4-.4-.2.2-.7.2-.1h.3l.4.1h.2v.2ZM523.7 101.3l.2.1.9-.3 1.3 1 1.3-.6 1.1.3 1.6-.5 2.4 1.2-.6.7-.3 1.2-.5.3-2.6-.9-.7.2-.5.7-1 .4-.3-.2-1.1.4-.9.1-.2.6-1.9.4-.9-.4-1.2-.7-.4-1 .2-.4.3-.6h1l.8-.3v-.3l.4-.1.1-.7.5-.1.3-.5ZM512.7 110l1.9.3 1.2-.7 2-.1.4-.5.4.1.6 1-1.8.8-.2 1.1-.8.3.1.9-.9-.1-.9-.5-.4.5-1.7-.1.6-.2-.7-1.3ZM606.9 225.9h-2.2l-8.8-3.6-1-1.1-1.1-1.4-1-1.7.5-1.1 1-1.6.8.6.6 1.2 1.2 1.3h1.4l2.4-.8 2.9-.3 2.3-1 1.3-.2.9-.5 1.5-.1.9-.1 1.2-.4 1.4-.3 1.2-1.1h1l.1.9-.2 1.7.1 1.6-.5 1.1-.7 3.3-1.1 3.3-1.6 3.9-2.2 4.4-2.2 3.4-3 4.1-2.7 2.4-3.9 3-2.5 2.3-2.9 3.7-.6 1.6-.6.7-1.6-2.5-.1-11 2.3-3.4.7-1h1.7l2.3-2.2 3.5-.1ZM522 336.2l1.3-1.5.9.8.4 1.3 1.2.2 1.6.6 1.3-.2 2.4-1.6.5-11.1.7.4 1.4 2.9-.3 1.8.5 1.1 1.9-.3 1.3-1.3 1.3-1 .7-1.4 1.3-.7 1.1.4 1.2.8 2.1.2 1.6-.7.4-1 .5-1.4 1.4-.3.8-1.1 1-2 2.4-2.3 3.8-2.2 1.1.1 1.2.5.9-.4 1.4.3 1 4.2.6 2.2-.7 3.4.2 1-1.3-.5-.8.2-.3.9-.8 1.1v1.1l1.4 1.6 1.6-.3.6-1.4h1.9l-.8 2.2-.5 2.5-.7 1.4-1.9 1.5-.5.5-1.3 1.5-.8 1.5-1.6 2.2-3.2 3.1-1.9 1.8-2 1.4-2.8 1.2-1.3.1-.4.9-1.5-.5-1.3.6-2.7-.6-1.5.4-1.1-.2-2.6 1.2-2.2.5-1.7 1.1-1.1.1-1-1.1h-.8l-1-1.4-.2.4-.3-.8.1-1.7-.7-2.1.9-.5v-2.3l-1.5-2.8-1.1-2.6Zm32.3 1.1-1-.9-1.3.6-1.4 1.2-1.5 1.9 1.7 2.3 1-.3.5-.9 1.5-.5.5-1 .9-1.5ZM797.2 133.6l3.9 3.5 1.6 2 1.6 3.4-.2 1.7-2 .6-1.5 1.2-2.2.3-1-1.7-.5-2.2-2.5-3.1 1.6-.5-2.9-2.6v-.3l1.2.1.3-1.3 1.7-.2.9-.2ZM570.1 221.5l.1 2.3-.4.9-1.4.1-.9 1.7 1.7.2 1.3 1.5.5 1.2 1.3.7 1.6 3.3-1.8 2-1.6 1.8-1.6 1.4H567l-2.1.7-1.7-.7-1.1.8-2.4-2-.6-1.3-1.5.7-1.2-.2-.7.5-1.2-.4-1.7-2.5-.4-.9-2-1.2-.7-1.8-1.1-1.3-1.9-1.6v-1l-1.5-1.2-1.8-1.2.8-.3.9-.6.7-2.7.7-1.4 1.9-.4.4.8 1.4 1.8.8.3.9-.6 1.9.1.4.7h2.6l.1-.7 1.4-.5.2-.9 1-.6 2.3 1.7 1.3-.3 1.3-2.2 1.4-1.6-.2-1.8-.7-.9 1.6-.2.1-.6 1.3.2-.3 2.2.4 2.2 1.4 1.2.3 1v1.5ZM458 123.8l.2-2.1-.9-1.3 3.5-2.2 2.9.6h3.3l2.5.5 2-.2 3.9.1 1 1.2 4.4 1.3.9-.6 2.7 1.3 2.8-.4.2 1.8-2.3 2-3.1.6-.2 1-1.5 1.6-1 2.5 1 1.7-1.5 1.3-.5 2-1.9.6-1.8 2.3-3.1.1-2.4-.1-1.6 1.1-1 1.1-1.2-.2-.9-1.1-.6-1.7-2.4-.5-.1-1 .9-1.1.4-.8-.8-.9.7-2-.9-1.8 1-.2.2-1.4.4-.5.1-2.3 1.1-.8-.6-1.5-1.4-.1-.5.4h-1.4l-.5-1.5-1.1.4ZM697.3 227.3l-.3 3.2-1.1.8-2.3.7-1.3-2.4-.7-4.3 1-4.9 1.9 1.6 1.3 2.2Z" cursor="pointer"/><path fill="url(#noDataPatternForMapChart-World)" fill-opacity="1" stroke="#aaa" stroke-opacity="1" stroke-width=".34" d="m570.1 221.5-.4-.1v-1.5l-.3-1-1.4-1.2-.4-2.2.3-2.2-1.3-.2-.1.6-1.6.2.7.9.2 1.8-1.4 1.6-1.3 2.2-1.3.3-2.3-1.7-1 .6-.2.9-1.4.5-.1.7h-2.6l-.4-.7-1.9-.1-.9.6-.8-.3-1.4-1.8-.4-.8-1.9.4-.7 1.4-.7 2.7-.9.6-.8.3-.2-.1-.9-.9-.2-.9.4-1.3v-1.2l-1.6-1.9-.3-1.3v-.7l-1-.9-.1-1.8-.6-1.1-.9.1.3-1.1.6-1.2-.3-1.3.8-.9-.5-.7.6-1.9 1.2-2.2 2.2.2-.5-11.9v-1.3h3l-.2-6H576.1l1 2.9-.5.6.5 3.1 1.2 3.6 1.1.7 1.4 1.1-1.2 1.7-1.9.5-.8 1-.1 2-1 4.4.3 1.2-.3 2.6-.9 3-1.6 1.5-1.1 2.3-.2 1.2-1.2.8-.7 3.2ZM503.7 74.5l.8-1.6 1.6-1.9.4-3.2-1.4-1.4-.5-3.6 1.1-2.5h2l.6-1-.8-.9 2.7-3.7 1.6-2.9 1-1.9h1.9l.3-1.4 3.8.4v-1.7l1.1-.1 2.9 1.3 3.3 1.7.9 4 .9 1-3.4.8-1.6 1.8.6 1.7-2.9 2.1-3.6 2.3-1 3.9 1.7 1.9 2.2 1.5-1.5 3.1-2.2.7-.2 4.7-1 2.6-2.7-.2-1 2.2-2.6.1-.9-2.6-2.1-3.2ZM502.5 107.1l.2.4-.3.3-.1.3.1.2-.1.1.2.1.1-.1.7.1v.3l1.3.1-.1 1.2-1 .5-1.8-.3-.4 1.1-1.2.1-.4-.4-1.3 1-1.1.1-1.1-.6-.8-1.3-1.1.4v-1.3l1.6-1.6-.1-.8 1.1.3.6-.5h2l.5-.6ZM578 149.3l-4.5 3.3-3-1.2v-.1l.2-.4-.1-1.3.4-1.6 1.2-1.1-.5-1.2-1.2-.2-.5-2.3.5-1.2.6-.7.5-.6V139l.8.6 2.7-.9 1.4.6h2l2.7-1.1h1.4l2.7-.5-.9 1.9-1.3.8.6 2.2-.5 3.6ZM796 176.4l-.5 4.9-.7 2.4-1.9-2.5-.7-2.2.9-3 1.6-2.3 1.4.9ZM654.1 128.7l-.6.9-2.8-.5.2 1.7 2.6-.2 3.4 1 4.5-.5 1.4 2.8.7-.3 1.7.7.3 1.2.8 1.7h-2.5l-1.8-.3-1.2 1.4-1 .3-.7.6-1.2-1-.5-2.5-.8-.1v-1l-1.5-.6-.8 1 .1 1.2-.3.5-1.5-.1-.4 1.4-1-.6-1.6 1-.8-.4.6-3-1.1-2.3-2-.7.3-1.3 2 .1.8-1.6.2-2 3-.7-.1 1.4.6.9ZM23.4 314.3l.1.4-.2-.2-.1-.1Zm-.8-.4.1-.1.1.1-.1.2-.1-.1-.5-.2.1-.1h.2Zm1.1-7.7-.1.2-.2-.2.1-.2.2.1.1.1ZM316.6 217.6l1.5-.4.6.1-.3 2.2-2.2.3-.5-.2.9-.9ZM504.2 158.6l-1.2-5.4-1.6-1.2v-.8l-2.2-1.8-.2-2.2 1.5-1.7.5-2.5-.5-2.9.5-1.5 2.6-1.2 1.8.3v1.6l2.1-1.1.2.5-1.2 1.5v1.4l.9.7-.2 2.7-1.6 1.5.5 1.6 1.3.1.7 1.4 1 .5-.1 2.3-1.2.9-.8.9-1.7 1.2.3 1.2-.1 1.3Z" cursor="pointer"/><path fill="url(#noDataPatternForMapChart-World)" fill-opacity="1" stroke="#aaa" stroke-opacity="1" stroke-width=".34" d="m581.2 124.8 2.6-.1 2.6 1.5.6 1v1.5l2 .7 1.1.9-1.5.8 1.4 3.5-.4.9 1.8 2.4-1.1.5-1-.7-3-.4-1 .4-2.7.5h-1.4l-2.7 1.1h-2l-1.4-.6-2.7.9-.8-.6v1.7l-.5.6-.6.7-1.1-1.4.8-1.1-1.5.2-2.2-.7-1.5 1.8-3.7.3-2.2-1.6-2.7-.1-.5 1.2-1.7.4-2.6-1.6-2.7.1-1.7-3-2-1.7.9-2.3-1.7-1.5 2.4-2.8 3.8-.2.7-2.2 4.7.4 2.7-2 2.7-.8 4-.1 4.6 2.1 3.7 1.2 2.8-.5 2.1.3Zm-37.5 2.2.5-.4.6-1.9-1.3-.7 2.4-1 2.1.4.4 1.2 2.3.9-.4.8-2.8.1-1 1-1.8 1.6-1-1.4ZM633.3 142.5l-.8-2.5-1.8-.1-3.5-2.7-2-.3-3.1-1.6-1.8-.2-1 .5-1.7-.1-1.4 1.8-2.1.5-.8-2.1-.3-3.1-2.2-1.1.2-2-1.7-.2v-2.5l2.5.7 1.9-.9-2.2-1.8-1.1-1.7-1.8.7.3 2.2-1.2-1.9.8-1 2.6-.6 1.9.8 2.3 2.4 1.2-.2h2.7l-.8-1.5 1.9-1.1 1.5-1.7 3.7 1.6.9 2.4 1.1.6 2.6-.2 1 .6 2 3.1 3.3 2 2 1.4 3 1.5 3.6 1.3.4 1.8-.8-.1-1.4-.8-.1 1.1-2 .6.1 2.4-1.2.9-1.9.5-.2 1.3-1.8.4ZM953.5 274.2l.2-.3.2.1-.2.4Zm1.1-1.7.1.1h-.1Zm1 2.9h.1v.3l-.3.2v.1l-.1.1v-.4l.2-.3Zm1.6 2.8v.1l-.1.2V278.2Zm-9 9.4h.4v.2l-.4-.1Zm2.5-15.7-.1-.2h.1Zm-2.5-4.9.1.1.1.1-.1-.1-.2-.1ZM561 253.4l-1.6 1-.6-.4v-2.2l.6-1.2.2-2.4.5-1.4 1.1-1.6 1-.8.8-1-1-.5.1-3.5 1.1-.8 1.7.7 2.1-.7h1.9l1.6-1.4 1.3 2.1.3 1.5 1.2 3.5-.9 2.2-1.3 1.9-.8 1.3v3.2l-5.4.2H562ZM552.4 93.7l.8.1.5-.6.7.1 2.3-.3 1.8 1.7-.5.5.4.9 1.9.2 1 1.2.1.6 3.1 1 1.7-.4 1.7 1.3h1.4l3.6 1 .2.8-.6 1.6.8 1.6-.1 1-2.3.2-1 .8.2 1.3-1.9.2-1.3 1-2.2.1-1.9 1.1.5 1.9 1.3.7 2.4-.2-.3 1.1-2.5.5-3 1.7-1.4-.6.3-1.4-2.8-.9.4-.5 2.1-1-.8-.7-3.8-.7-.4-1.1-2.1.3-.6 1.7-1.6 2.1-1.1-.5-1.1.5-1.1-.5.6-.4.2-1 .5-.9-.2-.5.5-.3.3.4 1.4.1.6-.2-.5-.3.1-.4-1-.8-.5-1.2-.9-.5v-1l-1.2-.8-1-.1-1.8-.9-1.5.3-.5.4h-1l-.5.7-1.7.3-.7.4-1.2-.7h-1.5l-1.5-.3-.9.6-.3-.8-1.4-.8.3-1.2.6-.7.5.1-.8-1.3 1.8-2.4 1.1-.3.2-.9-1.5-2.5 1.1-.1 1.1-.8h1.7l2.4.2 2.6.7h1.9l.9.4.8-.5.7.7 2-.1 1 .3-.1-1.5.5-.6ZM613.9 176.9l.4-.2.2.9 2-.5 2.2.1 1.5.1 1.6-2.1 1.8-1.9 1.4-1.9.6 1.1.6 2.3h-1.3v2l.5.4-1.2.6.1 1.3-.6 1.2v1.2l-.4.7-8-1.6-1.2-3ZM466.1 88.6l-1.7-.6-1.4.1.6-1.6-.4-1.5 1.8-.1 2.4 1.7Zm7.4-13.5-2.4 3.1 2.3-.4h2.3l-.6 2.3-2 2.5 2.3.2.2.3 1.9 3.3 1.5.5 1.4 3.3.7 1.1 2.7.6-.2 1.8-1.2.9.9 1.5-2 1.5-3.1-.1-3.9.8-1.1-.5-1.6 1.3-2.1-.3-1.6 1.1-1.2-.6 3.4-3 2.1-.6-3.6-.5-.6-1.2 2.4-.9-1.2-1.5.5-1.9 3.3.2.4-1.6-1.5-1.8-2.7-.5-.5-.8.8-1.3-.7-.8-1.2 1.4v-2.7l-1.1-1.5.9-2.9 1.8-2.3 1.7.3ZM72.4 192.4l-.5.6-.6-.5.3-.8-.2-1.1.2-.4.6-.4v-.6l.2-.3h.2l.8.5.5.3.3.4.4 1.1-.1.1-1.2.7Zm-.3-4.7-.9.3-.3-.7-.3-.2v-.2l.4-.3.8.3.6.5Zm-1.4-1.6-.2.4-1.3-.1.2-.4Zm-2.2-.4-.2.2-.2-.1-.9-.1-.1-.7-.1-.1.8-.4.2.2Zm-3.9-2-.4.3-.8-.5.2-.3.5-.3.6.1Zm255.2-69.6.1 1-3 1.4-2.8 1-2.8.9-1.9 1.8-.6.7-.5 1.5.3 1.6.9.1.1-1.1.6.7-.5.8-1.8.5h-1.2l-1.9.5-1.1.1-1.5.2-2.3.8 3.8-.5.5.5-3.7.9H299l.1-.3-1 .8.7.1-1.2 2.2-2.5 2.3.1-.8-.5-.1-.6-.8v1.6l.5.6-.3 1.1-1.1 1.2-2.1 2.4-.2-.1 1.3-2.1-.9-1.1.5-2.5-.9 1.3v1.9l-1.5-.5 1.4 1-.7 2.8.6.2v1.1l-.4 3-2.2 2.2-2.9.9-2.1 1.8-1.3.2-1.5 1.1-.7 1-3.2 2-1.8 1.4-1.6 1.8-.9 2.1v2.1l.3 2.6.7 2.1-.2 1.3.5 3.5-.4 2.1-.3 1.1-.9 1.9-.9.4-1.2-.4-.2-1.3-.9-.7-.9-2.6-.7-2.3-.2-1.2.9-2-.4-1.7-1.4-2.5-.9-.4-2.9 1.3-.4-.1-.9-1.4-1.5-.8-2.9.4-2.2-.3-2 .2-1.2.4.3.8-.4 1.3.4.6-.5.4-.9-.5-1.1.6-1.8-.1-1.6-1.6-2.3.4-1.7-.7-1.6.2-2.3.7-2.9 2.2-2.9 1.3-1.7 1.5-.9 1.3-.5 2.1-.2 1.5.3 1-1 .1-1.7-.7-1.8-.9-.4-1.4-.1-2.2-1.1-1.7-.5-1.7-.8-2.1-1.5-1.2-2.1.1-2.2 2.3-1.9-.9-1.1-.9-.2-1.6-.4-1.6-1.1-1.3-1-1-.6-1.1h-4.4l-.4 1.3h-7.1l-5.1-2.1-3.3-1.5.4-.6-3.3.4-3 .2.2-1.6-1-1.7-1.1-.4.1-.8-1.4-.2-.5-.8-2.3-.3-.4-.5.4-1.6-1.2-3-.2-4.2.4-.7-.6-1-.7-2.5.9-2.5-.5-1.6 1.8-2.5 1.3-2.6.6-2.2 2.5-2.8 1.9-2.7 1.9-2.7 2.1-4 .8-2.5.2-1.4.7-.6 2.7 1-.5 2.8 1.1-.8 1.1-2.4.8-2.4h64.4l.6-1.1h.8l-.4 1.6.4.5 1.6.2 2.1.4 1.9.9 2.1-.3 2.5.7h.8l2.4-.8 1.7 1 1.8 1.2 1.5 1 1.4.9-.1.8.5.3-.3.3h.6l.6-.3-.2.7.3.5h.6l.2.4-.5.5 1.9 1.4-.5 2.7-.6 2.6-1.4 1.7-1.7 1.7-.9 1-.2.3.1.4.7.5h.6l3.4-1.6 2.6-.5 3.7-1.4.2-.3.1-.9-.2-.6 1.3-.5h4.6l1.2-1.2.4-.2 3.3-2.1 1.3-.6h8l.5-.7.8-.2 1.2-.5 1.3-1.3 1.5-2.3 2.6-2.2.5.8 1.8-.5.7.8-1.4 4Zm-174-34.7-3.3 1.1-.4-.8 1.1-1.3 3-1 1.6-.4 1.3.2v.9Zm-18.4-7.8-1.8.4-.7-.5-.4-.7 2.6-.5 1.4.2Zm.6-10.5.6.5 1.6-.3.8.7 1.5.4-.5.2-2.3.6-.8-.6-.2-.5-2 .2-.2-.2Zm56.5 11.5.1 1.8 3.6-1.6 3-.9-.3 1.5.4 1.1.8 1.3-.6 2-.6 3.2 2.1 1.8-1.4 1.8-2.4 1.3-.3-1-1.2-.9 1.5-2.5-.7-2.3 1.2-2.6-1.9-.2-3.3-.1-1.8-.8-1.6-2.9-1.5-.5-2.7-1-3.2.2-2.8-1.2-1.2-1.2-3 .6-1.7 1.9-1.3.2-3.1.6-2.9.9-3 .6 1.5-1.7 3.9-2.7 3.2-.8.2-.7-4.4 1.5-3.5 1.9-5.3 1.9.1 1.4-4.2 2-3.6 1.2-3.1.8-1.9 1.3-5 1.4-2.1 1.4-3.8 1.2-1.3-.3-2.9.8-3.3 1-2.9 1-4.7.8.2-.5 3.9-1.3 3.1-.9 4-1.6 3.1-.3 2.3-1.1 4.9-1.7 1.1-.6 2.6-1 2.8-2.1 2.9-1.7-3.4.9-.2-.5-2.3 1 .2-1.4-1.7 1 .8-1.4-3.5 1.1h-1.3l1.7-1.6 1.6-1-.2-1-3.4.5-.2-1.3-.7-.7 1.9-1.5-.2-1.2 2.8-1.5 3.6-1.6 2.5-1.3 1.9-.2.9.4 3.3-1.3 1.2.2 2.6-.8 1.2-1.2-.5-.5 2.8-1h-1.3l-2.9.6-1.4.6-.8-.6-3.3.3-2.1-.7.6-1-.5-1.6 4.3-1.1 6.2-1.2h1.7l-2.1 1.3 4.4-.1.5-1.7-1.1-1 .4-1.2-.3-1.1-1.5-.9 3-1.3 3.5-.1 4.2-1.1 2.2-1.3 3.7-1.2 2.3-.3 5.3-1.1 1.4.2 4.9-1.3 2.1.5-.3 1.1 1.6-.5 3 .2-1 .6 2.3.4 2.3-.3 3 .8 3.3.3 1.1.3 3-.4 2 .7 1.6.4-11.5 9.6-16.8 15.3 2 .1 1.3.7ZM332.7 341.1l1.6-.3 3 2.3.9-.1 2.9 2 2.3 1.6 1.8 2.1-.9 1.4 1 1.7-.8 1.9-2.5 1.7-2-.6-1.3.3-2.5-1.3-1.7.1-1.9-1.6-.1-2 .4-.7-.6-3 .2-3.1Z" cursor="pointer"/><path fill="url(#noDataPatternForMapChart-World)" fill-opacity="1" stroke="#aaa" stroke-opacity="1" stroke-width=".34" d="m645.4 137.3-.4-1.8-3.6-1.3-3-1.5-2-1.4-3.3-2-2-3.1-1-.6-2.6.2-1.1-.6-.9-2.4-3.7-1.6-1.5 1.7-1.9 1.1.8 1.5h-2.7l-3-11 5.7-1.7.5.2 4.3 2.2 2.3 1.1 3.1 2.7 2.7-.5 4-.2 3.6 2.2.7 3h1.2l1.2 2.4 3.1.1 1.1 1.4h.9l.5-2.1 2.5-2.1 1.2-.6.9.3-1.5 2 2.2 1.1 1.5-.7 3.4 1.5-2.5 2.2-2-.3-1 .1-.6-.9.1-1.4-3 .7-.2 2-.8 1.6-2-.1-.3 1.3 2 .7 1.1 2.3-.6 3-2-.6ZM921.7 299.7l-.9.4-.6-1.4.3-.8Zm-1-4.7v2.5l-.6-.4-.6.2-.2-.9.4-2.3ZM761.9 185l-3 2.6-1.7 2.8-.3 2.1 2.5 3.2 3.1 3.9 2.6 1.9 1.9 2.4 1.9 5.6.2 5.3-2 2-2.9 1.9-1.9 2.6-3.2 2.8-1.1-2 .6-2-2.1-1.7 2.2-1.2 2.8-.3-1.3-1.8 4.2-2.3-.1-3.6-.8-2 .1-3-.9-2.2-2.3-2.1-2.1-2.6-2.7-3.6-3.4-1.8.6-1.1 1.5-.8-1.4-2.6h-3.2l-1.6-2.8-2-2.3 1.3-.8h2.1l2.5-.3 1.9-1.6 1.5 1.1 2.4.6-.1 1.7 1.5 1.2ZM446.3 166.8h11.4l-.1.6-.1 4.6-8.5-.2v7.7l-2.5.3-.7 1.5.5 4.4H436l-.6 1 .2-1.3.1-1.4 1.1-.8.9-1.6-.2-1 1-2.2 1.5-1.9.8-.4.8-1.8.1-1.6 1-1.9 1.7-1.1 1-1.7.4-.8ZM619.7 199.8l-1.8.8-.4 1.3v1.1l-2.6 1.2-4.1 1.4-2.3 2.2-1.1.1-.8-.1-1.5 1.2-1.7.6-2.2.1-.6.2-.6.8-.6.2-.4.8-1.3-.1-.9.4-1.8-.1-.8-1.8v-1.6l-.4-.9-.7-2.2-.8-1.3.5-.1-.3-1.4.3-.6-.2-1.3 1.1-1-.3-1.2.6-1.5 1.1.8.7-.3 3-.1.5.3 2.6.3 1-.1.7 1 1.2-.5 1.7-3.2 2.3-1.3 7.5-1.2 2.4 5ZM566.9 277.8l1.2 1.4.7 2.5-.5.9-.6 2.4.4 2.5-.9 1.1-.9 2.8 1.4.7-8.1 2.5.2 2.2-2 .4-1.6 1.2-.3 1-1 .3-2.4 2.4-1.5 2-.9.1-.8-.4-2.9-.3-.5-.2v-.3l-1-.7-1.7-.1-2.2.6-1.7-1.8-1.7-2.5.4-9.6h5.5l-.2-1 .4-1.1-.4-1.4.3-1.5-.2-.9h.9l.1 1 1.2-.1 1.7.3.9 1.3 2.1.5 1.6-1 .6 1.6 2 .4.9 1.3 1.1 1.7h2l-.1-3.3-.8.6-1.8-1.2-.7-.5.4-3.1.6-3.5-.6-1.4.8-1.9.7-.3 3.6-.6 1 .4 1.1.7 1.1.5 1.6.5Z" cursor="pointer"/><path fill="url(#noDataPatternForMapChart-World)" fill-opacity="1" stroke="#aaa" stroke-opacity="1" stroke-width=".34" d="m561.3 317.1-1.4-.3-.9.4-1.2-.5-1.1-.1-1.6-1.3-2-.5-.7-1.9.1-1.1-1.1-.3-2.9-3.3-.7-1.8-.5-.5-.9-2.4 2.9.3.8.4.9-.1 1.5-2 2.4-2.4 1-.3.3-1 1.6-1.2 2-.4.1 1.1 2.2-.1 1.2.7.5.7 1.3.2 1.3 1-.1 3.8-.7 2.1-.2 2.3.4.9-.4 1.7-.4.3-.8 2.2Z" cursor="pointer"/></g><path fill="#ffffd4" fill-opacity="1" stroke="#333" stroke-opacity="1" stroke-width=".2974184" d="m417.82 339.62.17.79-.26 1.31.35 1.23-.35.96.18.87h-4.82l-.35 8.4 1.5 2.19 1.48 1.57-4.29 1.14-5.5-.44-1.58-1.22-9.36.08-.35.18-1.31-1.14-1.5-.09-1.4.44-1.13.53-.17-1.67.35-2.36.87-2.36.09-1.14.79-2.36.6-1.14 1.32-1.75.79-1.13.26-1.93-.09-1.48-.7-.97-.61-1.57-.52-1.66.08-.53.7-1.05-.6-2.53-.53-1.75-1.14-1.67.26-.52.96-.35h.62l.87-.26h6.82l.62 2 .6 1.58.53.88.88 1.31 1.57-.17.7-.35 1.31.35.35-.7.62-1.5 1.4-.08.17-.52h1.14l-.18.96h2.8l.09 1.66.44.96-.35 1.66.08 1.58.8.96-.18 3.15.6-.17h.97l1.49-.35Zm-27.12-13.56-.61-2.01.96-1.14.7-.43.88.87-.88.61-.35.62-.09 1.13ZM368.66 294.22l-1.93.35-.61-1.84.09-6.03-.44-.61-.09-1.23-.78-.96-.8-.79.36-1.4.79-.26.43-1.14 1.14-.26.53-.79.78-.78h.79l1.84 1.48-.1.88.53 1.57-.52 1.05.26.79-1.14 1.57-.7.8-.43 1.65.08 1.75Z" cursor="pointer"/><path fill="#fec44f" fill-opacity="1" stroke="#333" stroke-opacity="1" stroke-width=".2974184" d="m233.5 390.44 2.46-3.58 2.27-2.54 1.31-1.05 1.75-1.49-.17-2.1-1.31-1.57-1.05.53.26-1.5.17-1.57-.17-1.48-.88-.44-.78.44-.88-.18-.35-.96-.44-2.45-.52-.79-1.58-.7-.87.53-2.45-.53-.17-3.58-.8-1.5.62-.52-.35-1.48.53-1.14.26-2.1-.7-1.66-1.31-.7-.35-1.05.26-1.49-4.46-.17-1.05-3.06h.61l-.09-1.14-.52-.79-.18-1.57-1.4-.7h-1.48l-.97-.8-1.57-.52-.96-.96-2.63-.44-2.7-2.36.08-1.75-.35-1.05.17-2-2.97.52-1.23.96-1.92 1.05-.52.79-1.14.08-1.75-.26-1.31.44-1.05-.26-.09-4.03-1.84 1.58-2-.1-.97-1.4-1.58-.17.44-1.13-1.31-1.58-1.05-2.36.52-.52v-1.05l1.4-.8-.35-1.39.62-.96.08-1.23 2.63-1.75 1.92-.52.26-.44 2.1.18.88-7.26.09-1.14-.35-1.49-1.05-.96v-1.93l1.3-.43.45.26.08-1.05-1.3-.26-.1-1.66 4.55.08.79-.87.7.79.44 1.57.43-.35 1.23 1.4 1.84-.18.43-.78 1.75-.62.97-.43.26-1.14 1.66-.7-.09-.61-1.92-.18-.35-1.66.17-1.84-1.05-.6.44-.27 1.75.35 1.84.61.61-.61 1.75-.44 2.62-.96.88-.96-.26-.79 1.13-.09.53.62-.26 1.13.78.44.44 1.22-.61.88-.44 2.27.61 1.32.09 1.22 1.49 1.22 1.13.18.27-.52.7-.1 1.05-.52.78-.7 1.32.27.52-.1 1.31.18.18-.52-.35-.53.17-.78.97.26 1.13-.26 1.31.52 1.05.61.7-.78.53.17.26.7 1.14-.17.87-1.05.79-1.93 1.4-2.36.79-.18.61 1.5 1.22 4.63 1.23.44.09 1.74-1.84 2.2.79.78 4.1.44.1 2.62 1.75-1.66 2.97.87 3.85 1.67 1.14 1.48-.35 1.49 2.7-.79 4.56 1.4 3.5-.09 3.4 2.2 3.07 2.88 1.75.79 2.01.08.87.88.88 3.32.35 1.58-.79 4.37-1.14 1.75-3.14 3.67-1.4 2.98-1.67 2.27-.52.09-.61 1.92.43 4.9-.43 4.11-.18 1.75-.7 1.05-.17 3.5-2.1 3.41-.26 2.8-1.75 1.14-.44 1.57h-2.45l-3.5.97-1.49 1.22-2.53.7-2.45 2.1-1.67 2.62-.17 2.02.52 1.48-.08 2.63-.35 1.31-1.4 1.4-1.84 4.64-1.66 2.1-1.31 1.22-.62 2.54-1.22 1.48-.88-1.48.8-1.23-1.58-1.83-2.01-1.4-2.54-1.75-.79.08-2.62-2Z" cursor="pointer"/><path fill="#ffffd4" fill-opacity="1" stroke="#333" stroke-opacity="1" stroke-width=".2974184" d="m430.68 322.65-.18-3.24-.52-1.13 1.4.17.7-1.49 1.22.18.18 1.05.52.61v.79l-.61.61-.88 1.31-.87.97ZM599.77 278.56l-.79-3.15 1.23-2.18 2.88-.53 2.19.44 2.1.96.79-1.75 2.18.96.7 1.75.09 3.15-3.67 2.02 1.13 1.57-2.45.26-1.92 1.05-1.93-.44-1.05-1.3Z" cursor="pointer"/><path fill="#fec44f" fill-opacity="1" stroke="#333" stroke-opacity="1" stroke-width=".2974184" d="m392.8 304.8-.26-.17-1.4.35-1.4-.35-1.14.18-3.76-.1.35-2.1-.96-1.74-1.05-.44-.44-1.14-.61-.43v-.7l.61-1.84 1.05-2.54.7-.08 1.4-1.5.87-.08 1.32 1.14 1.57-.96.26-1.05.44-1.05.35-1.31 1.31-1.14.44-1.84.44-.61.35-1.31.61-1.75 1.92-2.01.1-.88.25-.44-.96-1.05.09-.87.61-.18.96 1.75.18 1.75-.09 1.75 1.31 2.36h-1.3l-.62.18-1.05-.26-.53 1.22 1.4 1.58 1.05.43.27 1.05.78 1.84-.35.7-1.13 2.71-.62.44-.08 2.1.17 1.05-.17.78 1.13 1.4.18.97.87 1.3 1.05.88.18 1.23.17.79-.08 1.4-1.93-.62-1.84-.7Z" cursor="pointer"/><path fill="#ffffd4" fill-opacity="1" stroke="#333" stroke-opacity="1" stroke-width=".2974184" d="m397.87 291.16 1.93-.18.44-.7.35.1.6.6 2.9-1.05.96-1.04 1.22-.88-.26-.96.7-.26 2.19.17 2.18-1.22 1.66-2.9 1.14-1.04 1.49-.44.26 1.14 1.4 1.66v1.05l-.35 1.14.18.79.78.78 1.75 1.14 1.32 1.05v.87l1.66 1.4.96 1.14.61 1.58 1.75 1.05.35.78-.79.27h-1.48l-1.75-.35-.88.26-.35.61-.7.09-.96-.53-2.54 1.31-1.05-.26-.35.18-.7 1.57-1.75-.44-1.66-.26-1.48-.96-1.93-.96-1.22.87-.97 1.31-.17 1.84-1.49-.09-1.57-.43-1.4 1.4-1.23 2.45-.17-.8-.18-1.22-1.05-.87-.87-1.31-.18-.97-1.13-1.4.17-.78-.17-1.05.08-2.1.62-.44Z" cursor="pointer"/><path fill="#fee391" fill-opacity="1" stroke="#333" stroke-opacity="1" stroke-width=".2974184" d="m615.51 261.5-1.83 1.23-2.02-.79-.43-2.27.96-1.23 2.36-.7 1.31.1.7.95-.78 1.14Zm9.54-80.73 3.67 1.83 2.45 2.45h3.15l1.05-1.05 2.89-.7.52 2.28-.17.96 1.22 2.8.26 2.53-2.88-.43-1.14.87 1.92 2.28 1.58 3.06h-.96l.78 1.4-2.27-1.58v1.49l-2.62 1.14 1.13 1.3-1.92-.08-1.49-.79-.44 1.84-1.57 1.4-.88 1.66-2.62.8-.96 1.22-2.01.7.52-1.23-.87-.96.78-1.75-1.83-1.4-1.4.87-1.49 1.84-.53 1.75-2.1.09-.52 1.22 2.01 1.75 1.93.44.6 1.22 2.1.8 1.58-1.93 2.37 1.05 1.48.08.96 1.32-2.8.78-.43 1.4-1.49 1.32-.44 1.83 2.98 1.49 1.92 2.54 2.19 2.45 2.27 2 .7 2.02-1.22.7 1.05 1.4 1.57.79.35 2.18v2.1l-1.13.26-.88 2.8-.96 3.5-1.4 3.15-2.63 2.45-2.7 2.19-2.54.26-1.14 1.23-.96-.88-1.05 1.31-2.98 1.31-2.27.44-.35 2.8-1.23.09-.96-1.93.35-.96-3.15-.87-1.05.43-2.36-.7-1.31-1.04.09-1.5-2.1-.52-1.32-.96-1.66 1.4-2.18.26h-1.84l-1.14.7-1.05.35.79 2.98h-1.23l-.26-.62-.26-1.13-1.57.78-1.05-.52-1.84-.96.26-2.19-1.49-.52-.96-2.45-2.36.43-.18-3.06 1.67-2.27-.35-2.19-.53-2.01-1.14-.61-1.13-1.58-1.23.26-2.53-.43.52-1.05-1.49-1.66-1.3 1.05-2.02-.62-2.19 1.67-1.66 2-1.75.27-1.14-.7h-1.13l-1.75-.61-1.14.61-1.05 2.01-.61-2.1-1.23.53-2.7-.27-2.72-.6-2.01-1.14-1.84-.53-1.05-1.22-1.31-.44-2.62-1.66-2.02-.8-.78.62-3.5-1.84-2.54-1.66-1.31-2.97 1.66.35-.26-1.31-1.23-1.32-.35-2.18-3.15-3.06-3.93-1.14-1.14-2.01-2.01-1.23-.61-.7-.7-1.49-.27-1.05-1.48-.6-.62.25-1.22-2.44.44-.62-.53-.6 1.66-1.23 1.32-.53 2.45.35.26-1.66 2.62-.26.35-1.05 2.89-1.4.09-.61-.7-1.5 1.22-.7-3.67-4.45 3.76-1.05.79-.62-.44-4.63 4.46.87.7-1.13-1.05-2.63 1.57-.26.8-1.66.7-.18 1.3 1.75 2.37 1.4 3.4.96 2.37 2.02.52 3.06 1.23 1.13 2.71.44 2.97.35 3.24 1.58 1.49.35 2.01 2.36 1.92 1.57 2.37-.08 4.63.6 2.63-.34 2.27.35 3.85 1.57h2.54l1.4.79 1.75-1.4 3.06-.87 3.06-.1 2.01-.95.79-1.4 1.05-.88-.79-.79-1.22-1.05.17-1.66 1.31.26 2.45.53 1.31-1.4 2.63-.96.52-1.75 1.05-.7 2.8-.35 1.75.26-.26-.87-2.97-1.84-2.2-.79-.95.88-2.28-.35-.96.35-1.14-1.05-.17-2.63-.18-1.92 2.98.96 1.83-1.57-.78-1.14v-2.71l.52-.79-1.05-1.4-1.57-.61.7-1.23 2.1-.43 2.62-.1 3.5.7 2.45.97 3.15 2.54 1.57 1.13 1.84 1.5 2.54 2.53Z" cursor="pointer"/><path fill="#fec44f" fill-opacity="1" stroke="#333" stroke-opacity="1" stroke-width=".2974184" d="m186.7 311.2-.95-.7-1.14-.88-.7.43-2.01-.35-.53-1.13-.44.08-2.27-1.57-.35-.79.88-.17-.1-1.31.62-.97 1.14-.17.96-1.66.96-1.4-.79-.62.44-1.57-.44-2.36.53-.7-.26-2.28-.88-1.4.35-1.3.7.25.53-.78-.53-1.58.35-.35h1.14l1.84-1.83.96-.27.09-.87.6-2.19 1.4-1.22 1.4-.09.27-.53 1.75.18 1.92-1.31.97-.61 1.22-1.23.79.18.61.7-.52.87-1.58.44-.61 1.31-.96.79-.7.96-.44 1.84-.7 1.57 1.22.18.18 1.22.52.61.1 1.05-.27.96v.53l.61.26.53.88 2.97-.27 1.31.35 1.58 2.28.96-.26 1.66.08 1.31-.26.88.44-.53 1.4-.52.96-.26 1.84.43 1.75.62.78.08.62-1.22 1.3.87.62.62.88.7 2.62-.44.35-.44-1.57-.7-.8-.79.88-4.55-.08.1 1.66 1.3.26-.08 1.05-.44-.26-1.31.43v1.93l1.05.96.35 1.49-.1 1.14-.87 7.26-1.22-1.4-.7-.1 1.49-2.7-1.84-1.23-1.4.26-.87-.52-1.23.7-1.75-.26-1.4-2.8-1.05-.7-.79-1.23-1.57-1.22Z" cursor="pointer"/><path fill="#ffffd4" fill-opacity="1" stroke="#333" stroke-opacity="1" stroke-width=".2974184" d="m392.63 323.35-.88-.87-.7.43-.96 1.14-1.93-2.8 1.84-1.49-.87-1.75.78-.6 1.58-.36.17-1.13 1.23 1.22 2.1.17.7-1.3.26-1.76-.26-2-1.05-1.58.96-3.07-.53-.52-1.74.17-.7-1.3.17-1.14 2.97.08 1.84.7 1.93.62.08-1.4 1.23-2.45 1.4-1.4 1.57.43 1.49.1-.09 1.65-.7 1.4-.44 1.58-.35 2.36.18 1.49-.35.96-.09.96-.26.79-1.57 1.31-1.05 1.4-1.05 2.54.08 2.18-.6.8-1.32 1.3-1.4 1.67-.88-.44-.17-.79h-1.22l-.8.96Z" cursor="pointer"/><path fill="#fee391" fill-opacity="1" stroke="#333" stroke-opacity="1" stroke-width=".2974184" d="m169.65 289.06-1.22-.61-.44-.53.26-.43v-.62l-.61-.6-.88-.53-.78-.35-.1-.8-.6-.43.08.79-.52.61-.44-.79-.79-.26-.26-.52.09-.8.35-.78-.61-.44.52-.43.44-.35 1.49.7.52-.35.7.17.35.61.7.18.61-.61.44 1.48.88 1.05.96 1.14-.88.18-.08 1.05.52.43-.35.27v.52l-.17.53Z" cursor="pointer"/><path fill="#fec44f" fill-opacity="1" stroke="#333" stroke-opacity="1" stroke-width=".2974184" d="m355.71 297.55-1.05.08-1.66-.52h-1.49l-2.71.44-1.66.78-2.28.96-.43-.08.17-2.1.18-.35v-1.05l-1.05-1.14-.7-.17-.7-.7.52-1.14-.17-1.31.08-.79h.35l.18-1.14-.18-.52.18-.35.87-.35-.52-2.1-.53-1.05.18-.88.44-.26.35-.26.6.44h1.76l.44-.8.43.1.7-.27.35 1.14.53-.35.96-.44 1.05.62.35.87 1.05.53.79-.62 1.13-.17 1.58.7.61 3.76-.96 2.19-.61 3.06.96 2.19ZM434.96 304.98l-.7.88-.87.7-.96 1.4-.44 1.22-.18 2.1-.52 1.05v1.92l-.7.79-.09 1.57-.35.18-.17 1.49.52 1.13.18 3.24.35 2.36-.27 1.4.44 1.58 1.31 1.48 1.23 3.33-.88-.35-3.14.52-.62.27-.7 1.66.53 1.22-.53 3.06-.35 2.72.62.43 1.57 1.05.7-.52.09 2.88h-1.75l-.96-1.48-.8-1.14-1.74-.35-.53-1.4-1.4.88-1.83-.44-.79-1.14-1.49-.26-1.05.09-.08-.88h-.8l-1.04-.17-1.49.35h-.96l-.61.17.17-3.15-.79-.96-.08-1.58.35-1.66-.44-.96-.09-1.66h-2.8l.18-.96h-1.14l-.17.52-1.4.09-.62 1.49-.35.7-1.3-.35-.7.35-1.58.17-.88-1.31-.52-.88-.61-1.57-.62-2.01h-6.82l-.87.26H392l-.96.35-.35-.79.61-.35.1-1.13.34-.62.88-.61.6.26.8-.96h1.22l.17.79.88.44 1.4-1.67 1.31-1.3.61-.8-.08-2.18 1.05-2.54 1.05-1.4 1.57-1.31.26-.79.09-.96.35-.96-.18-1.49.35-2.36.44-1.58.7-1.4.09-1.66.17-1.84.97-1.3 1.22-.88 1.93.96 1.48.96 1.66.26 1.75.44.7-1.57.35-.18 1.05.26 2.54-1.3.96.52.7-.09.35-.61.88-.26 1.75.35h1.48l.8-.27 1.48 2.19 1.05.35.61-.44 1.05.18 1.31-.62.53 1.14 2.1 1.75-.1 3.06Z" cursor="pointer"/><path fill="#ffffd4" fill-opacity="1" stroke="#333" stroke-opacity="1" stroke-width=".2974184" d="m198.17 258.7.35-.43h1.75l1.3.7.62-.09.26.96h1.32l-.18.79.96.09 1.05.96-.96 1.05-1.05-.61-1.05.17-.7-.17-.52.52-.88.18-.26-.7-.79.43-1.14 1.75-.52-.43-.09-.7.18-.7-.53-.79.61-.52.27-.97Z" cursor="pointer"/><path fill="#fec44f" fill-opacity="1" stroke="#333" stroke-opacity="1" stroke-width=".2974184" d="m175.34 319.76 1.22-2-.52-1.15-.88 1.23-1.4-1.14.44-.78-.44-2.37.79-.43.44-1.58.87-1.75-.09-1.05 1.23-.61 1.66-1.05 2.27 1.57.44-.08.53 1.13 2 .35.7-.43 1.15.87.96.7.35 1.93-.7 1.75-2.54 2.8-2.71 1.04-1.4 2.28-.35 1.75-1.31 1.14-1.05-1.4-.96-.27-.97.18-.08-.96.7-.62Z" cursor="pointer"/><path fill="#ffffd4" fill-opacity="1" stroke="#333" stroke-opacity="1" stroke-width=".2974184" d="m384.49 308.13-.44-.44.79-2.97 3.76.09.09 3.14h-3.41Z" cursor="pointer"/><path fill="#ffffd4" fill-opacity="1" stroke="#333" stroke-opacity="1" stroke-width=".2974184" d="m388.16 321.25-2.36-2.62-1.57-2.19-1.4-2.71.09-.96.52-.8.61-1.92.44-1.92.79-.18h3.4l-.08-3.14 1.14-.18 1.4.35 1.4-.35.26.18-.17 1.13.7 1.31 1.74-.17.53.52-.96 3.07 1.05 1.57.26 2.01-.26 1.75-.7 1.31-2.1-.17-1.23-1.22-.17 1.13-1.58.35-.78.61.87 1.75ZM323.43 276.03l.26-1.14 2.54-.09.53-.61h.78l.88.61h.7l.79-.44.43.8-.96.52h-1.05l-.96-.53-.88.61h-.43l-.53.35Z" cursor="pointer"/><path fill="#fec44f" fill-opacity="1" stroke="#333" stroke-opacity="1" stroke-width=".2974184" d="m364.8 295.1-3.67 1.57-1.22.88-2.1.78-2.1-.78.09-1.05-.96-2.2.6-3.05.97-2.19-.61-3.76-.35-1.93.09-1.57 4.02-.09 1.05.18.7-.44 1.14.26-.18.79.96 1.4v1.92l.18 2.02.61.96-.52 2.36.17 1.31.61 1.75ZM154.17 274.54l-1.14-.44-1.4-.09-1.05-.52-1.14-1.05.18-.79.35-.61-.26-.52 1.3-2.2H154l.18-.87-.35-.17-.27-.53-.7-.6-.78-.88h1.05l.17-1.49h4.29l-.26 2.1-.53 2.97h.7l.7.44.18-.35.7.35-1.23.96-1.14.79-.17.44.09.52-.53.7-.61.18.09.26-.44.35-.88.61ZM342.76 290.46l-.7-.09-.43 1.14-.7-.09-.44-.52.18-1.05-.97-1.66-.61.35h-.52l-.62.17v-.96l-.35-.7.1-.7-.45-1.14-.7-.96h-1.83l-.53.52h-.7l-.35.62-.26.7-1.31 1.22-.96-1.57-.88-1.05-.61-.35-.61-.53-.18-1.14-.35-.6-.7-.45 1.05-1.3.7.08.61-.44h.53l.35-.35-.18-.87.27-.26.08-.97 1.05.1 1.66.6.53-.08.17-.27 1.32.18.26-.09.17.96h.35l.62-.35.35.09.7.61.96.27.61-.62.79-.35.52-.35.53.1.43.52.27.78.96 1.05-.44.7-.09.88.44-.27.35.35-.17.8.7.7-.44.25-.18.88.53 1.05.52 2.1-.87.35-.18.35.18.52-.18 1.14Z" cursor="pointer"/><path fill="#ffffd4" fill-opacity="1" stroke="#333" stroke-opacity="1" stroke-width=".2974184" d="m327.28 281.62-1.22-1.13-.97-.18-.52-.7v-.43l-.7-.53-.09-.52 1.23-.44.78.09.62-.35 4.28.08-.08.97-.27.26.18.87-.35.35h-.53l-.6.44-.7-.09Z" cursor="pointer"/><path fill="#fec44f" fill-opacity="1" stroke="#333" stroke-opacity="1" stroke-width=".2974184" d="m160.47 276.46-.35-.78-.7-.27.26-1.05-.26-.26-.53-.17-.96.26-.09-.35-.7-.35-.44-.53-.6-.26.52-.7-.1-.52.18-.44 1.14-.79 1.23-.96.17.09.61-.44.62-.09.17.27.44-.18 1.05.26 1.05-.08.78-.27.27-.35.7.18.52.17.61-.08.53-.18.96.35h.44l.61.53.61.6.79.36.52.79-.78-.1-.35.36-.79.35H168l-.53.35-.43-.09-.35-.44-.27.09-.35.61h-.26l-.09.53-.87.7-.44.35-.26.35-.61-.53-.62.7-.43-.09-.62.1v1.3h-.35l-.34.62Z" cursor="pointer"/><path fill="#993404" fill-opacity="1" stroke="#333" stroke-opacity="1" stroke-width=".2974184" d="M642.28 337.78h-.96l-2.89-1.83 2.19-.53 1.14.79.78.87Zm10.24-3.58.17.52v.79l-1.75 2.01-2.01.53-.26-.27.26-.87 1.14-1.66Zm-16.27-2.1.78.7 1.4-.18.53 1.14-2.71.52-1.67.35-1.22-.08.87-1.49h1.32Zm11.63 0-.53 1.49-3.5.7-3.06-.27.1-.96 1.83-.61 1.4.79 1.57-.18Zm-32.98-3.5 4.46.26.53-1.05 4.28 1.23.7 1.75 3.5.52 2.71 1.49-2.7 1.05-2.54-1.05-2.1.09-2.37-.27-2.1-.43-2.7-1.05-1.67-.27-.96.35-4.2-1.05-.35-1.13-2.1-.18 1.75-2.54 2.8.18 1.84.96.96.26Zm60.8-1.49-1.32 1.84-.08-2.01.43-.97.53-.87.52.79Zm-16.97-7.26-.97.88-1.57-.44-.44-1.14 2.36-.17Zm7.52-.96.7 2.01-1.84-1.05-2.01-.26-1.31.17-1.58-.08.62-1.4 2.88-.1Zm24.58-1.31-.44 8.66-.7 8.57-1.83-2.19-2.37-.52-.6.79-2.98.08 1.22-2.18 1.49-.7-.35-2.9-1.05-2.18-4.37-2.27-1.84-.18-3.41-2.45-.7 1.23-.96.26-.44-.96v-1.14l-1.66-1.31 2.53-.96 1.66.08-.17-.7h-3.41l-.96-1.57-2.02-.52-.96-1.32 3.15-.6 1.14-.88 3.76 1.13.35.97.52 4.28 2.37 1.58 2.1-2.8 2.7-1.66h2.02l2.01.96 1.66.96Zm-36.65-10.59-1.84 2.63-1.75.52-2.27-.52-3.85.17-2.01.35-.35 2.01 2 2.28 1.32-1.14 4.37-.87-.26 1.13-.96-.35-1.05 1.58-2.1.96 2.1 3.41-.44.88 1.93 3.06-.1 1.75-1.3.78-.88-.96 1.23-2.1-2.28.97-.52-.7.35-1.05-1.66-1.5.26-2.62-1.58.8.1 3.14-.1 3.76-1.48.35-.97-.78.8-2.45-.27-2.54h-.96l-.7-1.75 1.05-1.75.35-2.1 1.22-4.02.53-1.05 1.92-1.93 1.84.7 2.97.44 2.63-.18 2.27-1.92Zm8.05.79-.1 2.27-1.22-.26-.35 1.66.97 1.4-.7.27-.88-1.67-.7-3.4.44-2.1.7-.97.17 1.49 1.4.26Zm-44.35-2.36.35 1.83 1.66 1.5 1.48-.53 1.5.17 1.3-1.4 1.14-.17 2.19.7 1.92-.53 1.14-3.67.87-.96.62-2.98h2.7l2.02.44-1.22 2.36 1.83 2.54-.44 1.22 2.72 2.45-2.8.26-.79 1.84.18 2.36-2.28 1.84-.17 2.62-1.05 4.03-.27-.96-2.7 1.22-.88-1.66-1.66-.09-1.14-.87-2.8.96-.79-1.31-1.49.17-1.92-.35-.26-3.5-1.14-.7-1.14-2.27-.35-2.36.27-2.37Zm-9.36 20.73-2.63.09-1.84-2.19-2.88-2.19-.96-1.57-1.67-2.19-1.13-1.92-1.67-3.68-2.1-2.27-.7-2.19-.87-2.1-2.1-1.66-1.31-2.27-1.84-1.5-2.54-2.88-.26-1.3 1.58.08 3.58.52 2.19 2.54 1.84 1.84 1.3 1.05 2.28 2.88h2.37l2 1.84 1.4 2.19 1.76 1.22-.97 2.1 1.4.96.8.1.34 1.83.79 1.48 1.75.18 1.05 1.66-.7 3.33Z" cursor="pointer"/><path fill="#ffffd4" fill-opacity="1" stroke="#333" stroke-opacity="1" stroke-width=".2974184" d="m344.43 299.2-.62.1-2.45-1.32-2.1-2-1.92-1.4-1.57-1.76.52-.79.18-.78 1.05-1.4 1.05-1.31h.52l.61-.35.97 1.66-.18 1.05.44.52.7.09.43-1.14.7.09-.08.79.17 1.3-.52 1.15.7.7.7.17 1.05 1.14v1.05l-.18.35ZM477.04 343.64l.52 1.14.53 1.75.17 3.15.53 1.23-.35 1.3-.44.8-.7-1.58-.44.79.27 1.92-.27 1.14-.7.61-.26 2.19-1.13 3.15-1.4 3.58-1.75 4.99-1.23 3.67-1.22 3.07-1.93.6-2.1 1.15-1.22-.7-1.66-.88-.53-1.4v-2.36l-.7-2.1v-1.92l.53-1.93 1.05-.44.08-.87 1.23-2.01.35-1.67-.53-1.22-.26-1.66-.09-2.45.97-1.49.35-1.66 1.13-.09 1.31-.52.88-.53h1.05l1.4-1.48 2.01-1.67.7-1.3-.17-1.15.96.35 1.31-1.83.17-1.58.8-1.22Z" cursor="pointer"/><path fill="#993404" fill-opacity="1" stroke="#333" stroke-opacity="1" stroke-width=".2974184" d="m599.86 294.3.6.27 1.4 1.58 1.06 1.83.26 1.75-.18 1.23.18.87.26 1.58.88.7.96 2.36.09.7-.35.26-.97.35-.35-.18-2.36-2-2.8-2.1-.35-1.4-1.4-1.76-.43-2.18-.88-1.4.18-1.93-.62-1.13.44-.44 1.93 1.14.26 1.3 1.49-.25Zm36.91 5.52-2.01-.44h-2.71l-.62 2.98-.87.96-1.14 3.67-1.92.53-2.19-.7-1.14.17-1.3 1.4-1.5-.17-1.48.52-1.66-1.49-.35-1.83 1.66.96 1.83-.52.44-2.2.96-.52 2.72-.6 1.66-2.02 1.05-1.66 1.13 1.3.44-.87 1.14.1v-1.67l.09-1.31 1.66-1.84 1.05-2.1h.96l1.23 1.31.17 1.14 1.57.79 2.02.79-.1 1.05-1.57.08.44 1.31Z" cursor="pointer"/><path fill="#fec44f" fill-opacity="1" stroke="#333" stroke-opacity="1" stroke-width=".2974184" d="M159.77 261.94h-.44l-1.05 1.66-.44-.35-.26.18v.35h-4.29l-.17 1.49h-1.05l.78.87.7.61.27.53.35.17-.18.88h-2.97l-1.31 2.19.26.52-.35.61-.18.79-2.27-2.89-1.14-.87-1.75-.7-1.31.26-2.01.96-1.14.27-1.57-.7-1.67-.53-2-1.22-1.67-.35-2.45-1.23-1.75-1.22-.44-.7-1.3-.18-2.2-.87-.78-1.14-2.19-1.57-.87-1.67-.35-1.22.78-.26-.08-.8.6-.69.18-.88-.6-1.22v-1.05l-.53-1.31-1.58-2.63-1.92-2-.79-1.67-1.66-1.05-.26-.7.7-1.57-1.05-.62-.97-1.3-.08-1.85-1.14-.26-.96-1.4-.7-1.22.08-.88-.6-1.92-.18-2.01.35-1.05-1.23-1.05-.79.08-1.04-.7-.7 1.05v1.32l-.44 1.92.44 1.14 1.13 1.84.18.6.26.18.09.88h.43v1.66l.44.7.26.96 1.14 1.31.09 2.45.44 1.14.35 1.22-.1 1.4 1.06.1.7 1.22.61 1.13-.17.53-1.14.96h-.35l-.35-1.66-1.23-1.49-1.3-1.22-1.06-.7.44-1.93v-1.4l-.87-.87-1.23-1.14-.44.35-.35-.7-1.22-.7-.96-1.49.26-.17.87.09 1.05-.97.44-1.13-1.22-1.93-1.05-.7-.35-1.66-.27-1.75-.35-2.1-.08-2.36 2.62-.17 2.89-.35-.35.52 2.88 1.31 4.47 1.84h6.21l.35-1.14h3.85l.52.96.87.88.97 1.14.35 1.4.17 1.4.96.78 1.67.79 1.92-2.01 1.84-.09 1.31 1.05.7 1.84.44 1.48.96 1.5.09 1.92.35 1.22 1.57.79 1.49.61.87-.09-1.3 2.28-.7 1.92-.8 3.5-.43 1.31.17 1.49.53 1.22.17 2.1 1.23 1.93.26 1.49.79 1.3 2.27.7.79 1.14 2.18-.78 1.75-.26 1.75-.44 1.58-.44 1.57-1.14.79-1.48.44-2.2.52-.78 1.66-.7 2.45-.61 2.01.09 1.5-.27.43.62-.26 1.22-1.4 1.58-.79 1.66.35.44-.53 1.13-.78 2.01-.53-.6Z" cursor="pointer"/><path fill="#ffffd4" fill-opacity="1" stroke="#333" stroke-opacity="1" stroke-width=".2974184" d="m163.7 281.54-.7-.88-.96-1.05-.44-.87-.96-.88-1.05-1.13.26-.44.35.44.27-.27.7-.08.34-.62h.35v-1.3l.62-.1.43.1.62-.7.6.52.27-.35.44-.35.87-.7.1-.53h.25l.35-.61.27-.09.35.44.43.09.53-.35h.61l.79-.35.35-.35.78.09-.17.26-.17.52.08.96-.61.97-.35 1.05-.17 1.13.08.7v1.14l-.35.26-.35 1.14.1.7-.53.7.08.7.35.44-.6.6-.7-.17-.36-.6-.7-.18-.52.35-1.5-.7Z" cursor="pointer"/><path fill="#d95f0e" fill-opacity="1" stroke="#333" stroke-opacity="1" stroke-width=".2974184" d="m382.13 298.16-2.36.96-.97-.18-.87.62-1.84-.09-1.22-1.57-.79-1.93-1.66-1.75h-3.76l.08-4.2-.08-1.75.43-1.66.7-.79 1.14-1.57-.26-.79.52-1.05-.52-1.57.09-.88.08-2.36.7-1.05.35-1.49.53-.6 2.54-.27 2.27.96.87.96 1.23.1 1.05-.62 2.8 1.31 1.22-.09 1.31-1.05 1.4.1.62-.45 1.3.18 1.76.79 1.84-1.5.52.1 1.57 2.88h.44l.96 1.05-.26.44-.09.88-1.92 2-.61 1.76-.35 1.3-.44.62-.44 1.84-1.3 1.14-.36 1.3-.44 1.06-.26 1.05-1.57.96-1.32-1.14-.87.09-1.4 1.49-.7.08-1.05 2.54Z" cursor="pointer"/><path fill="#ffffd4" fill-opacity="1" stroke="#333" stroke-opacity="1" stroke-width=".2974184" d="m181.37 291.68-.79-.78-.43-1.4.61-.7-.53-.18-.43-.87-1.14-.7-.96.17-.53.88-.96.7-.52.09-.27.52 1.05 1.4-.7.35-.35.44-1.05.08-.35-1.57-.35.44-.7-.09-.43-1.14-.97-.17-.6-.26H170l-.09.6-.26-.43.18-.52.17-.53v-.52l.35-.27-.52-.43.08-1.05.88-.18.78.88-.08.6.96.1.26-.18.53.61 1.22-.17.96-.7 1.5-.53.78-.78 1.31.17-.09.26 1.23.1 1.05.43.7.79.87.78-.35.35.53 1.58-.53.78-.7-.26Z" cursor="pointer"/><path fill="#fec44f" fill-opacity="1" stroke="#333" stroke-opacity="1" stroke-width=".2974184" d="m724.77 328.77-.7.27-.96-1.05-.88-1.67-.35-2 .35-.27.18.79.7.61.96 1.66 1.05.88Zm-8.83-3.58-1.23.26-.44.7-1.3.61-1.23.7-1.23-.09-1.84-.7-1.3-.78.26-.79 2 .35 1.32-.18.44-1.22.35-.09.17 1.4 1.31-.17.7-.96 1.4-.97-.17-1.48 1.4-.1.44.45-.18 1.48Zm-26.25 9.62.7-8.57.44-8.66 3.94 1.83 4.2 1.5 1.57 1.4 1.22 1.3.18 1.58 3.85 1.57.44 1.4-2.2.35.36 1.75 1.92 1.75 1.32 2.8 1.3-.09-.17 1.14 1.75.44-.79.52 2.37 1.05-.35.79-1.58.17-.52-.7-1.93-.26-2.27-.35-1.66-1.75-1.14-1.4-1.05-2.36-2.89-1.14-2 .8-1.5.87.1 1.92-1.93.87-1.23-.43Zm29.13-12.16-.79.7-.35-1.57-.43-1.05-1.05-.88-1.23-1.05-1.66-.79.61-.7 1.32.8.7.52.96.7.87 1.05.88.87Z" cursor="pointer"/><path fill="#ffffd4" fill-opacity="1" stroke="#333" stroke-opacity="1" stroke-width=".2974184" d="m219.42 369.45.62-3.15-.1-1.4.88-2.36 3.94-.79 2.1.09 2.27 1.31.18.79.79 1.49.17 3.58 2.45.53.87-.53 1.58.7.52.79.44 2.45.35.96.88.18.78-.44.88.44.17 1.48-.17 1.58-.26 1.49-.18 2.36-1.75 2-1.75.45-2.53-.44-2.37-.7 1.67-4.02-.44-1.14-2.45-1.05-2.98-1.93-1.92-.43Z" cursor="pointer"/><path fill="#fee391" fill-opacity="1" stroke="#333" stroke-opacity="1" stroke-width=".2974184" d="m202.45 357.12-.52 1.4-1.14.6-2.45-1.48-.26-1.05-4.81-2.71-4.46-2.89-1.84-1.57-1.14-2.19.27-.79-2.2-3.4-2.62-4.9-2.44-5.25-1.05-1.23-.8-1.92-1.92-1.75-1.66-1.05.7-1.14-1.22-2.54.7-1.83 1.75-1.67.35 1.05-.7.62.08.96.97-.18.96.27 1.05 1.4 1.31-1.14.35-1.75 1.4-2.28 2.71-1.05 2.54-2.8.7-1.74-.35-1.93.61-.26 1.57 1.22.8 1.23 1.04.7 1.4 2.8 1.75.26 1.23-.7.87.52 1.4-.26 1.84 1.23-1.49 2.7.7.1 1.22 1.4-2.1-.18-.26.44-1.92.52-2.63 1.75-.08 1.23-.62.96.35 1.4-1.4.79v1.05l-.52.52 1.05 2.36 1.31 1.58-.44 1.13 1.58.18.96 1.4 2.01.09 1.84-1.58.09 4.03 1.05.26 1.3-.44 2.28 4.29-.43.87v1.84l.08 2.27-.78 1.32.52.96-.44.87 1.14 2.28ZM655.84 288.54l.35 1.74.26 1.5-.61 2.44-1.05-2.71-.96 1.31.87 2.01-.61 1.23-2.8-1.58-.79-1.92.62-1.23-1.58-1.22-.61 1.05-1.14-.09-1.66 1.49-.44-.79.79-2.19 1.4-.78 1.22-.96.88 1.13 1.75-.7.26-1.13 1.66-.1-.35-2 2.01 1.22.27 1.31Zm-5.95-4.9-.79.87-.52 1.66-.7.8-1.58-1.85.44-.7.44-.7.17-1.66 1.23-.17-.18 1.75 1.4-2.54Zm-12.5 2.53-2.9 2.54.97-1.84 1.57-1.66 1.23-1.84.96-2.62.61 2.19-1.4 1.4Zm7.17-6.82 1.48.88h1.49l.09 1.04-.97 1.14-1.4.79-.26-1.23.09-1.3Zm8.3-.7.97 2.97-1.84-.7.09.88.79 1.66-1.05.53-.27-1.84-.7-.09-.6-1.66 1.4.26-.1-1.05-1.66-2 2.19.08Zm-9.44-2.36-.35 2.27-1.14-1.3-1.49-2.02 2.02.09Zm-2.63-14.35 1.5.79.6-.7.35.61-.17 1.14 1.05 1.92-.26 2.2-1.23.87v2.1l.79 2.1 1.31.26.96-.27 3.06 1.4-.08 1.5.87.6-.09 1.23-1.92-1.31-1.05-1.4-.53.96-1.66-1.58-2 .44-1.23-.61v-1.05l.6-.7-.78-.61-.17.96-1.32-1.49-.52-1.22-.44-2.45 1.05.79-.44-4.12.35-2.36Z" cursor="pointer"/><path fill="#ffffd4" fill-opacity="1" stroke="#333" stroke-opacity="1" stroke-width=".2974184" d="m377.84 309.62.26.35-.17.43-.35.27-.18-.44.1-.26ZM323.7 274.89l-.88-2.01-1.14-.97 1.05-.52 1.14-1.84.61-1.4.79-.78 1.14.17 1.13-.52 1.23-.1 1.14.8 1.48.7 1.4 1.92 1.49 1.84.09 1.66.43 1.49.88.78.17.97-.17.87-.26.09-1.32-.18-.17.27-.53.08-1.66-.6-1.05-.1-4.28-.08-.62.35-.78-.1-1.23.45-.35-2.1 2.1.08.53-.35h.43l.88-.6.96.52h1.05l.96-.53-.43-.79-.8.44h-.7l-.87-.61h-.78l-.53.61ZM335.77 292.82l-.62-.17-1.66-1.05-1.22-1.4-.35-.97-.35-1.92 1.31-1.22.26-.7.35-.62h.7l.53-.52h1.83l.7.96.44 1.14-.09.7.35.7v.96l.62-.17-1.05 1.3-1.05 1.4-.18.8ZM738.24 338.4l.53.87h-1.58l-.7-1.57 1.31.6Zm-2.71-1.58h-.96l-1.4-.26-.44-.35.26-1.05 1.49.35.7.61Zm2.01-.7-.44.44-1.48-2.28-.35-1.57h.78l.7 2.1Zm-3.85-3.41v.53l-1.66-1.05-1.22-.97-.8-.87.36-.26 1.05.6 1.75 1.23Zm-5.25-2.54-.43.1-.97-.62-.87-1.05.17-.44 1.32 1.14ZM229.48 295l2.72.53.26-.52 1.92-.18 2.45.7-1.22 2.28.08 1.83.88 1.58-.44 1.14-.17 1.22-.62 1.05-1.3-.52-1.14.26-.97-.26-.17.78.35.53-.18.52-1.3-.17-1.4-2.36-.27-1.5h-.7l-1.05-1.83.44-1.4-.1-.61 1.5-.7ZM441.35 313.3l.44.25 8.4 5.34.08 1.57 3.33 2.63-1.14 3.23.09 1.5 1.48.95.1.7-.7 1.58.08.79-.18 1.3.8 1.67.87 2.62.87.53-1.92 1.57-2.54.97H450l-.88.78-1.57.09-.61.26-2.8-.7-1.75.18-.53-3.59-.78-1.22-.44-.7-2.27-.53-1.32-.79-1.4-.43-.96-.44-.96-.61-1.23-3.33-1.3-1.48-.45-1.58.27-1.4-.35-2.36.96-.17.87-.97.88-1.3.61-.62v-.79l-.52-.61-.18-1.05.7-.35.18-1.57-.97-1.5.88-.25h2.54Z" cursor="pointer"/><path fill="#fe9929" fill-opacity="1" stroke="#333" stroke-opacity="1" stroke-width=".2974184" d="m599.77 278.56-2.19-1.13h-1.92l.08-2.02h-2l.08 2.9-.88 3.84-.6 2.36.34 1.84 1.49.09 1.14 2.45.52 2.27 1.4 1.49 1.4.35 1.23 1.3-.7 1.15-1.5.26-.25-1.31-1.93-1.14-.44.44-.96-1.05-.44-1.23-1.3-1.49-1.23-1.3-.26 1.57-.53-1.49.18-1.66.43-2.54.96-2.71 1.05-2.45-1.13-2.36-.09-1.23-.44-1.48-1.75-2.1-.7-1.31.8-.53.52-2.27-1.14-1.75-1.75-1.93-1.4-2.27.87-.53.62-2.8 1.57-.17 1.23-1.14 1.22-.61 1.05.87.44 1.58 1.57.09-.17 2.8.35 2.36 2.27-1.58.7.44 1.31-.09.35-.87 1.75.17 2.1 2.1.53 2.63 2.1 2.27.17 2.27-.61 1.23-2.19-.44-2.88.53-1.23 2.18Z" cursor="pointer"/><path fill="#fee391" fill-opacity="1" stroke="#333" stroke-opacity="1" stroke-width=".2974184" d="m366.73 294.57-1.92.53-.53-.88-.6-1.75-.18-1.31.52-2.36-.61-.96-.18-2.02v-1.92l-.96-1.4.18-.79h2l-.34 1.4.79.79.78.96.1 1.23.43.6-.09 6.04ZM197.2 279.7l-.08.61-1.4.35.7 1.14-.18 1.4-1.05 1.49.7 2.1 1.05-.18.61-1.84-.7-.96v-2.01l2.98-1.05-.26-1.22.87-.88.7 1.84 1.66.08 1.4 1.5.1.87h2l2.54-.27 1.22 1.14 1.75.35 1.4-.79v-.7l2.89-.17h2.8l-2.01.79.78 1.22 1.84.18 1.66 1.3.27 2.1h1.22l.88.62-1.84 1.49-.26.96.78 1.05-.6.44-1.5.43.1 1.23-.7.7 1.57 2.01.26.79-.88.96-2.62.96-1.75.44-.61.61-1.84-.61-1.75-.35-.44.26 1.05.61-.17 1.84.35 1.66 1.92.18.09.61-1.66.7-.26 1.14-.97.43-1.75.62-.43.78-1.84.18-1.23-1.4-.7-2.62-.6-.88-.88-.61 1.22-1.31-.08-.62-.62-.78-.43-1.75.26-1.84.52-.96.53-1.4-.88-.44-1.3.26-1.67-.08-.96.26-1.58-2.28-1.31-.35-2.97.27-.53-.88-.61-.26v-.53l.26-.96-.09-1.05-.52-.61-.18-1.22-1.22-.18.7-1.57.44-1.84.7-.96.96-.79.61-1.31Z" cursor="pointer"/></g></g><g><g class="numericColorLegend"><path stroke="#333" stroke-width=".3" d="M179.5 537.8v-3M223.26 537.8v-3M301.76 537.8v-3M380.26 537.8v-3M458.76 537.8v-3M537.26 537.8v-3M615.76 537.8v-3"/><path fill="url(#noDataPattern)" stroke="#333" stroke-width=".3" d="M155.74 537.8h47.52v10h-47.52z"/><path fill="#ffffd4" stroke="#333" stroke-width=".3" d="M223.26 537.8h78.5v10h-78.5z"/><path fill="#fee391" stroke="#333" stroke-width=".3" d="M301.76 537.8h78.5v10h-78.5z"/><path fill="#fec44f" stroke="#333" stroke-width=".3" d="M380.26 537.8h78.5v10h-78.5z"/><path fill="#fe9929" stroke="#333" stroke-width=".3" d="M458.76 537.8h78.5v10h-78.5z"/><path fill="#d95f0e" stroke="#333" stroke-width=".3" d="M537.26 537.8h78.5v10h-78.5z"/><path fill="#993404" stroke="#333" stroke-width=".3" d="M615.76 537.8h73.5l5 5-5 5h-73.5z"/><text x="155.74" y="521.3" fill="#111" dy=".71em" font-size="13.5">No data</text><text x="210.03" y="521.3" fill="#111" dy=".71em" font-size="13.5">0 ha</text><text x="271.52" y="521.3" fill="#111" dy=".71em" font-size="13.5">50,000 ha</text><text x="346.24" y="521.3" fill="#111" dy=".71em" font-size="13.5">100,000 ha</text><text x="424.74" y="521.3" fill="#111" dy=".71em" font-size="13.5">500,000 ha</text><text x="503.04" y="521.3" fill="#111" dy=".71em" font-size="13.5">1 million ha</text><text x="581.54" y="521.3" fill="#111" dy=".71em" font-size="13.5">5 million ha</text></g></g></g></g><g class="SourcesFooter" style="fill:#5b5b5b"><g class="markdown-text-wrap"><text x="16" y="580.9" style="font-size:13.5px;line-height:1.2"><tspan x="16" y="580.9"><tspan style="font-weight:700">Data source:</tspan> Food and Agriculture Organization of the United Nations (2023)</tspan></text></g><text x="604.8" y="580.9" font-size="13.5"><tspan x="604.77" y="580.89"><a href="https://ourworldindata.org/land-use" style="fill:#5b5b5b" target="_blank">OurWorldInData.org/land-use</a> | <a href="https://creativecommons.org/licenses/by/4.0/" style="fill:#5b5b5b" target="_blank">CC BY</a></tspan></text></g></svg>