<svg xmlns="http://www.w3.org/2000/svg" width="850" height="600" style="font-family:Lato,&quot;Helvetica Neue&quot;,Helvetica,Arial,&quot;Liberation Sans&quot;,sans-serif;font-size:18px;background-color:#fff;text-rendering:geometricPrecision;-webkit-font-smoothing:antialiased" version="1.1" viewBox="0 0 850 600"><defs><style>@import url(/fonts.css);</style></defs><defs><pattern id="noDataPattern" width="4" height="4" patternTransform="rotate(-45 2 2)" patternUnits="userSpaceOnUse"><path stroke="#ccc" stroke-width=".7" d="M-1 2h6"/></pattern></defs><path fill="#fff" d="M0 0h850v600H0z" class="background-fill"/><g class="HeaderView"><g transform="translate(769 16)"><svg xmlns="http://www.w3.org/2000/svg" width="65" height="36" fill="none" className="owidLogo" viewBox="0 0 65 36"><path fill="#002147" d="M0 0h64.8v36H0z"/><path fill="#CE261E" d="M0 33.3h64.8V36H0z"/><path fill="#fff" d="M13.8 10.57c0 .64-.11 1.23-.32 1.77a4.2 4.2 0 0 1-.9 1.4 4.08 4.08 0 0 1-1.38.94c-.54.22-1.14.33-1.8.33-.65 0-1.25-.11-1.8-.33a4.15 4.15 0 0 1-1.39-.93 4.2 4.2 0 0 1-.9-1.4A4.83 4.83 0 0 1 5 10.56c0-.63.1-1.22.32-1.76a4.18 4.18 0 0 1 .9-1.4 4.08 4.08 0 0 1 1.38-.93 4.68 4.68 0 0 1 1.8-.34c.66 0 1.26.11 1.8.34a4.08 4.08 0 0 1 2.28 2.33c.21.54.32 1.13.32 1.76Zm-1.66 0c0-.47-.06-.9-.2-1.27a2.67 2.67 0 0 0-.53-.97 2.33 2.33 0 0 0-.87-.6A2.94 2.94 0 0 0 9.4 7.5c-.42 0-.8.07-1.14.21-.34.14-.63.35-.87.61a2.74 2.74 0 0 0-.55.97 3.96 3.96 0 0 0-.19 1.27c0 .48.06.9.2 1.29a2.42 2.42 0 0 0 1.42 1.56c.33.14.71.2 1.13.2.43 0 .8-.06 1.14-.2a2.37 2.37 0 0 0 1.4-1.56 4.01 4.01 0 0 0 .2-1.29Zm3.96-1.81v3.9c0 .39.09.68.26.89.18.2.44.3.79.3.25 0 .5-.06.72-.17a2.58 2.58 0 0 0 .63-.47V8.76H20v6.15h-.91c-.2 0-.32-.09-.38-.27l-.1-.49a4.65 4.65 0 0 1-.4.35 2.58 2.58 0 0 1-.43.27 2.35 2.35 0 0 1-.5.17 2.35 2.35 0 0 1-.57.07c-.34 0-.64-.06-.9-.17a1.82 1.82 0 0 1-.64-.49 2.16 2.16 0 0 1-.4-.73 3.23 3.23 0 0 1-.14-.95V8.76h1.48Zm5.23 6.15V8.76h.87c.15 0 .26.02.32.08s.1.15.12.29l.09.74c.22-.38.47-.68.77-.9.3-.22.63-.33 1-.33.3 0 .55.07.75.21l-.19 1.11c-.01.07-.04.13-.08.16a.28.28 0 0 1-.16.04 1.01 1.01 0 0 1-.25-.04 1.65 1.65 0 0 0-.41-.04c-.3 0-.57.08-.8.25-.21.17-.4.42-.55.75v3.83h-1.48Zm6.02-8.67h1.35a.57.57 0 0 1 .35.1c.1.06.16.15.2.26l1.47 5.2a10.12 10.12 0 0 1 .19.9 5.97 5.97 0 0 1 .22-.9l1.7-5.2a.57.57 0 0 1 .2-.25.54.54 0 0 1 .34-.11h.48a.57.57 0 0 1 .34.1.5.5 0 0 1 .2.26l1.69 5.2c.08.25.16.53.22.85a31.71 31.71 0 0 1 .19-.86l1.47-5.19c.03-.1.1-.18.19-.25a.56.56 0 0 1 .34-.11h1.27l-2.7 8.67h-1.45L33.7 9l-.08-.25a9.5 9.5 0 0 1-.07-.28 4.04 4.04 0 0 1-.15.53L31.5 14.9h-1.46l-2.7-8.67Zm15.42 2.42c.46 0 .88.07 1.25.22s.7.36.96.63.47.6.61 1 .22.83.22 1.31c0 .5-.08.93-.22 1.32a2.85 2.85 0 0 1-.61 1 2.65 2.65 0 0 1-.96.64 3.35 3.35 0 0 1-1.25.22 3.4 3.4 0 0 1-1.25-.22 2.71 2.71 0 0 1-.97-.63 2.92 2.92 0 0 1-.62-1 3.8 3.8 0 0 1-.21-1.33c0-.48.07-.92.21-1.31a2.75 2.75 0 0 1 1.58-1.63 3.4 3.4 0 0 1 1.26-.22Zm0 5.2c.51 0 .9-.17 1.13-.51.25-.35.38-.85.38-1.52s-.13-1.17-.38-1.51c-.24-.35-.62-.53-1.13-.53-.52 0-.9.18-1.15.53-.25.35-.37.85-.37 1.51s.12 1.17.37 1.52c.25.34.63.51 1.15.51Zm3.95 1.05V8.76h.87c.15 0 .26.02.32.08s.1.15.12.29l.1.74c.21-.38.47-.68.76-.9.3-.22.63-.33 1-.33.3 0 .56.07.76.21l-.2 1.11c0 .07-.03.13-.07.16a.28.28 0 0 1-.17.04 1.01 1.01 0 0 1-.24-.04 1.65 1.65 0 0 0-.42-.04c-.3 0-.57.08-.79.25-.22.17-.4.42-.56.75v3.83h-1.48ZM52.96 6v8.91h-1.48V6h1.48Zm5.77 8.91c-.19 0-.32-.09-.38-.27l-.12-.6a3.68 3.68 0 0 1-.4.4 2.5 2.5 0 0 1-.98.5 2.37 2.37 0 0 1-.6.06c-.33 0-.64-.07-.92-.2a2.1 2.1 0 0 1-.73-.61 3.03 3.03 0 0 1-.46-1 5.07 5.07 0 0 1-.17-1.34c0-.45.07-.88.19-1.27s.3-.73.53-1.02c.24-.29.51-.51.84-.67a2.38 2.38 0 0 1 1.09-.25 2.1 2.1 0 0 1 1.54.6V6h1.48v8.91h-.9Zm-1.97-1.08c.3 0 .57-.07.78-.2.22-.12.42-.3.62-.54v-2.76a1.45 1.45 0 0 0-.56-.43 1.6 1.6 0 0 0-.63-.13c-.23 0-.43.04-.61.13a1.21 1.21 0 0 0-.47.38c-.12.17-.22.39-.28.65a4.3 4.3 0 0 0-.02 1.84c.06.25.14.45.25.61.1.16.24.27.4.34.15.07.33.1.52.1Zm-40.43 6.93v6.15h-1.48v-6.15h1.48Zm.22-1.8a.84.84 0 0 1-.07.36.96.96 0 0 1-.21.3 1 1 0 0 1-.3.2.96.96 0 0 1-.38.07.95.95 0 0 1-.36-.07 1.02 1.02 0 0 1-.5-.5.96.96 0 0 1 0-.73 1 1 0 0 1 .2-.3.93.93 0 0 1 .3-.2.9.9 0 0 1 .73 0 .91.91 0 0 1 .3.2.94.94 0 0 1 .3.67Zm1.22 7.95v-6.15h.9c.2 0 .32.09.38.27l.1.48a2.93 2.93 0 0 1 .84-.61 2.3 2.3 0 0 1 1.07-.24c.34 0 .63.06.9.18.25.1.47.27.64.48.18.2.3.45.4.73.09.29.13.6.13.95v3.91h-1.48V23c0-.38-.08-.67-.26-.87-.17-.21-.43-.32-.78-.32-.26 0-.5.06-.72.18a2.58 2.58 0 0 0-.64.47v4.45h-1.48Zm16.45-4.34c0 .64-.1 1.22-.32 1.76-.21.53-.5.99-.9 1.37a4 4 0 0 1-1.38.9 4.87 4.87 0 0 1-1.8.31h-3.3v-8.67h3.3a4.79 4.79 0 0 1 1.8.32 4 4 0 0 1 1.39.9c.38.37.68.83.9 1.36.2.53.31 1.12.31 1.75Zm-1.65 0c0-.47-.06-.9-.2-1.27a2.68 2.68 0 0 0-.54-.96 2.33 2.33 0 0 0-.86-.6 2.94 2.94 0 0 0-1.14-.22h-1.69v6.1h1.69c.42 0 .8-.06 1.14-.2.34-.14.63-.34.86-.6a2.75 2.75 0 0 0 .55-.96 4.01 4.01 0 0 0 .19-1.29Zm7.41 4.34h-.67a.75.75 0 0 1-.33-.06c-.07-.04-.13-.13-.17-.25l-.14-.44c-.15.14-.3.26-.46.37a2.8 2.8 0 0 1-.46.26c-.16.08-.33.13-.51.17a3.07 3.07 0 0 1-1.32-.05 1.62 1.62 0 0 1-.57-.32 1.45 1.45 0 0 1-.37-.52 1.85 1.85 0 0 1-.13-.73c0-.23.06-.46.18-.68.12-.23.33-.44.61-.62.29-.18.67-.33 1.14-.45a8.01 8.01 0 0 1 1.75-.2v-.36c0-.42-.08-.72-.26-.92-.17-.2-.42-.3-.76-.3a1.84 1.84 0 0 0-1.01.28l-.33.19a.66.66 0 0 1-.33.08.43.43 0 0 1-.26-.08.61.61 0 0 1-.17-.2l-.27-.46c.7-.65 1.56-.98 2.56-.98.36 0 .68.06.96.18a1.99 1.99 0 0 1 1.16 1.25c.1.29.16.6.16.96v3.88ZM37.1 26c.15 0 .3-.01.42-.04a1.81 1.81 0 0 0 .69-.33c.1-.09.22-.19.32-.3v-1.04c-.43.02-.79.06-1.08.12a2.8 2.8 0 0 0-.7.2.92.92 0 0 0-.37.3.66.66 0 0 0-.11.36c0 .26.07.45.22.56.16.11.36.17.61.17ZM43.22 27c-.53 0-.94-.15-1.23-.45-.29-.3-.43-.72-.43-1.25v-3.44h-.63a.31.31 0 0 1-.2-.08c-.06-.05-.09-.13-.09-.23v-.6l.99-.15.31-1.68a.3.3 0 0 1 .11-.2.36.36 0 0 1 .22-.06h.77v1.94h1.62v1.06h-1.62v3.33c0 .2.05.35.14.45a.49.49 0 0 0 .39.17.73.73 0 0 0 .39-.1l.12-.07a.2.2 0 0 1 .11-.04.16.16 0 0 1 .11.04c.03.02.06.05.09.1l.44.71c-.21.18-.46.32-.74.41a2.77 2.77 0 0 1-.87.14Zm7.2-.1h-.66a.75.75 0 0 1-.33-.06c-.08-.04-.14-.13-.18-.25l-.13-.44c-.16.14-.31.26-.47.37a2.8 2.8 0 0 1-.46.26c-.16.08-.33.13-.5.17a3.07 3.07 0 0 1-1.33-.05 1.62 1.62 0 0 1-.57-.32 1.45 1.45 0 0 1-.36-.52 1.85 1.85 0 0 1-.14-.73c0-.23.06-.46.18-.68.13-.23.33-.44.62-.62.28-.18.66-.33 1.13-.45a8.01 8.01 0 0 1 1.76-.2v-.36c0-.42-.1-.72-.27-.92-.17-.2-.42-.3-.75-.3a1.84 1.84 0 0 0-1.02.28l-.33.19a.66.66 0 0 1-.33.08.43.43 0 0 1-.25-.08.61.61 0 0 1-.18-.2l-.27-.46c.7-.65 1.56-.98 2.56-.98.36 0 .68.06.96.18a1.99 1.99 0 0 1 1.17 1.25c.1.29.15.6.15.96v3.88ZM47.54 26c.16 0 .3-.01.42-.04a1.88 1.88 0 0 0 .69-.33l.33-.3v-1.04c-.44.02-.8.06-1.09.12a2.8 2.8 0 0 0-.7.2.92.92 0 0 0-.37.3.66.66 0 0 0-.11.36c0 .26.08.45.23.56.15.11.36.17.6.17Z"/></svg></g><a href="/grapher/land-natural-share" rel="noopener" style="font-family:&quot;Playfair Display&quot;,Georgia,&quot;Times New Roman&quot;,&quot;Liberation Serif&quot;,serif" target="_blank"><text x="16" y="40" fill="#5b5b5b" font-size="24.75" font-weight="600"><tspan x="16" y="40.01">Share of land defined as natural habitat</tspan></text></a><text x="16" y="63.9" fill="#5b5b5b" style="font-size:14.625px;line-height:1.2"><tspan x="16" y="63.9">Natural ecosystems include forest, grassland, savanna, and shrublands, and other classes such as peatlands and</tspan><tspan x="16" y="81.4">marshes. It is total land minus land that is used by humans for agriculture – either croplands or pasture – or for</tspan><tspan x="16" y="99">infrastructure and urban environments.</tspan></text></g><g style="pointer-events:none"><g class="LineChart"><defs><clipPath id="boundsClip-4665"><path d="M38.14 108.35h838V561.8h-838z"/></clipPath></defs><path fill="none" d="M16 118.35h818V551.8H16z"/><g class="DualAxisView"><g class="HorizontalAxis"><path stroke="#999" stroke-width="1" d="M48.1 531.3v5M702.6 531.3v5M105 531.3v5M247.3 531.3v5M389.6 531.3v5M531.9 531.3v5"/><text x="48.14" y="549.8" fill="#5b5b5b" font-size="13.5" text-anchor="start">1780</text><text x="702.61" y="549.8" fill="#5b5b5b" font-size="13.5" text-anchor="end">2010</text><text x="105" y="549.8" fill="#5b5b5b" font-size="13.5" text-anchor="middle">1800</text><text x="247.3" y="549.8" fill="#5b5b5b" font-size="13.5" text-anchor="middle">1850</text><text x="389.6" y="549.8" fill="#5b5b5b" font-size="13.5" text-anchor="middle">1900</text><text x="531.9" y="549.8" fill="#5b5b5b" font-size="13.5" text-anchor="middle">1950</text></g><g class="VerticalAxis"><text x="43.14" y="531.3" fill="#5b5b5b" dy=".32em" font-size="13.5" text-anchor="end">0%</text><text x="43.14" y="477" fill="#5b5b5b" dy=".32em" font-size="13.5" text-anchor="end">10%</text><text x="43.14" y="422.7" fill="#5b5b5b" dy=".32em" font-size="13.5" text-anchor="end">20%</text><text x="43.14" y="368.4" fill="#5b5b5b" dy=".32em" font-size="13.5" text-anchor="end">30%</text><text x="43.14" y="314.2" fill="#5b5b5b" dy=".32em" font-size="13.5" text-anchor="end">40%</text><text x="43.14" y="259.9" fill="#5b5b5b" dy=".32em" font-size="13.5" text-anchor="end">50%</text><text x="43.14" y="205.6" fill="#5b5b5b" dy=".32em" font-size="13.5" text-anchor="end">60%</text><text x="43.14" y="151.3" fill="#5b5b5b" dy=".32em" font-size="13.5" text-anchor="end">70%</text></g><g class="AxisGridLines horizontalLines"><path stroke="#999" stroke-width="1" d="M48.14 531.3h654.47"/><path stroke="#ddd" stroke-dasharray="3,2" stroke-width="1" d="M48.14 477h654.47M48.14 422.7h654.47M48.14 368.4h654.47M48.14 314.2h654.47M48.14 259.9h654.47M48.14 205.6h654.47M48.14 151.3h654.47"/></g></g><g clip-path="url(#boundsClip-4665)"><g class="LineLabels" style="cursor:default"><g class="legendMark"><text x="706.6" y="182" fill="#be5915" font-size="13.5" font-weight="400"><tspan x="706.61" y="182">Germany</tspan></text></g><g class="legendMark"><text x="706.6" y="199.6" fill="#2c8465" font-size="13.5" font-weight="400"><tspan x="706.61" y="199.59">France</tspan></text></g><g class="legendMark"><text x="706.6" y="267.4" fill="#6d3e91" font-size="13.5" font-weight="400"><tspan x="706.61" y="267.44">World</tspan></text></g><g class="legendMark"><text x="706.6" y="282.9" fill="#c15065" font-size="13.5" font-weight="400"><tspan x="706.61" y="282.94">United Kingdom</tspan></text></g></g><g class="Lines"><g><path fill="none" stroke="#ddd" stroke-linecap="round" stroke-linejoin="round" stroke-width="1" d="m48.1 124.3 28.5 1.5 28.4 1.1 28.5 2.1 28.5 2 28.4 2.9 28.5 3.3 28.4 4.5 28.5 4.3 28.4 4.4 28.5 8.2 28.4 10.5 28.5 9.9 28.5 13.4 28.4 13.4 28.5 11.4 28.4 14.3 28.5 11.1 28.4 28.1h28.5l28.4.1 28.5 1.8 28.5-3.1 28.4-3.1"/></g><g><path fill="none" stroke="#ddd" stroke-linecap="round" stroke-linejoin="round" stroke-width="1" d="m48.1 281 28.5 1.9 28.4 1.8 28.5-2.6 28.5-2.7 28.4 4.3 28.5 3.5 28.4 1.7 28.5-.7 28.4 1.4 28.5 4.3 28.4 3.2 28.5 10 28.5 9.3 28.4-18.3 28.5-1 28.4-1 28.5-15.3 28.4.5 28.5-13.9 28.4-20.3 28.5-32.2 28.5-34.9 28.4-3"/></g><g><path fill="none" stroke="#ddd" stroke-linecap="round" stroke-linejoin="round" stroke-width="1" d="m48.1 266.9 28.5.8 28.4.7 28.5 8.3 28.5 6.5 28.4 3.7 28.5 5.5 28.4 4.8 28.5.3 28.4-.8 28.5 2.1 28.4.5 28.5-.4 28.5-.4 28.4-12.2 28.5.9 28.4-9.3 28.5-5.3 28.4 11.1 28.5-29.8 28.4-10.1 28.5-27.2 28.5-21.8 28.4-.2"/></g><g><path fill="none" stroke="#ddd" stroke-linecap="round" stroke-linejoin="round" stroke-width="1" d="m48.1 186.7 28.5 2 28.4 1.4 28.5-.9 28.5 11 28.4 6.7 28.5 11.6 28.4 2.2 28.5 12.7 28.4 15.8 28.5 18.1 28.4 17.8 28.5 19.8 28.5 20 28.4 15.9L475 358l28.4 19.3 28.5-5.7 28.4-9.4 28.5-21.1 28.4-17.8 28.5-12.7 28.5-18.9 28.4-17.7"/></g><g><path fill="none" stroke="#fff" stroke-linecap="butt" stroke-linejoin="round" stroke-width="2.5" d="m48.1 124.3 28.5 1.5 28.4 1.1 28.5 2.1 28.5 2 28.4 2.9 28.5 3.3 28.4 4.5 28.5 4.3 28.4 4.4 28.5 8.2 28.4 10.5 28.5 9.9 28.5 13.4 28.4 13.4 28.5 11.4 28.4 14.3 28.5 11.1 28.4 28.1h28.5l28.4.1 28.5 1.8 28.5-3.1 28.4-3.1"/><path fill="none" stroke="#6D3E91" stroke-linecap="butt" stroke-linejoin="round" stroke-width="1.5" d="m48.1 124.3 28.5 1.5 28.4 1.1 28.5 2.1 28.5 2 28.4 2.9 28.5 3.3 28.4 4.5 28.5 4.3 28.4 4.4 28.5 8.2 28.4 10.5 28.5 9.9 28.5 13.4 28.4 13.4 28.5 11.4 28.4 14.3 28.5 11.1 28.4 28.1h28.5l28.4.1 28.5 1.8 28.5-3.1 28.4-3.1"/><g><circle cx="48.1" cy="124.3" r="1.8" fill="#6D3E91"/><circle cx="76.6" cy="125.8" r="1.8" fill="#6D3E91"/><circle cx="105" cy="126.9" r="1.8" fill="#6D3E91"/><circle cx="133.5" cy="129" r="1.8" fill="#6D3E91"/><circle cx="162" cy="131" r="1.8" fill="#6D3E91"/><circle cx="190.4" cy="133.9" r="1.8" fill="#6D3E91"/><circle cx="218.9" cy="137.2" r="1.8" fill="#6D3E91"/><circle cx="247.3" cy="141.7" r="1.8" fill="#6D3E91"/><circle cx="275.8" cy="146" r="1.8" fill="#6D3E91"/><circle cx="304.2" cy="150.4" r="1.8" fill="#6D3E91"/><circle cx="332.7" cy="158.6" r="1.8" fill="#6D3E91"/><circle cx="361.1" cy="169.1" r="1.8" fill="#6D3E91"/><circle cx="389.6" cy="179" r="1.8" fill="#6D3E91"/><circle cx="418.1" cy="192.4" r="1.8" fill="#6D3E91"/><circle cx="446.5" cy="205.8" r="1.8" fill="#6D3E91"/><circle cx="475" cy="217.2" r="1.8" fill="#6D3E91"/><circle cx="503.4" cy="231.5" r="1.8" fill="#6D3E91"/><circle cx="531.9" cy="242.6" r="1.8" fill="#6D3E91"/><circle cx="560.3" cy="270.7" r="1.8" fill="#6D3E91"/><circle cx="588.8" cy="270.7" r="1.8" fill="#6D3E91"/><circle cx="617.2" cy="270.8" r="1.8" fill="#6D3E91"/><circle cx="645.7" cy="272.6" r="1.8" fill="#6D3E91"/><circle cx="674.2" cy="269.5" r="1.8" fill="#6D3E91"/><circle cx="702.6" cy="266.4" r="1.8" fill="#6D3E91"/></g></g><g><path fill="none" stroke="#fff" stroke-linecap="butt" stroke-linejoin="round" stroke-width="2.5" d="m48.1 281 28.5 1.9 28.4 1.8 28.5-2.6 28.5-2.7 28.4 4.3 28.5 3.5 28.4 1.7 28.5-.7 28.4 1.4 28.5 4.3 28.4 3.2 28.5 10 28.5 9.3 28.4-18.3 28.5-1 28.4-1 28.5-15.3 28.4.5 28.5-13.9 28.4-20.3 28.5-32.2 28.5-34.9 28.4-3"/><path fill="none" stroke="#BE5915" stroke-linecap="butt" stroke-linejoin="round" stroke-width="1.5" d="m48.1 281 28.5 1.9 28.4 1.8 28.5-2.6 28.5-2.7 28.4 4.3 28.5 3.5 28.4 1.7 28.5-.7 28.4 1.4 28.5 4.3 28.4 3.2 28.5 10 28.5 9.3 28.4-18.3 28.5-1 28.4-1 28.5-15.3 28.4.5 28.5-13.9 28.4-20.3 28.5-32.2 28.5-34.9 28.4-3"/><g><circle cx="48.1" cy="281" r="1.8" fill="#BE5915"/><circle cx="76.6" cy="282.9" r="1.8" fill="#BE5915"/><circle cx="105" cy="284.7" r="1.8" fill="#BE5915"/><circle cx="133.5" cy="282.1" r="1.8" fill="#BE5915"/><circle cx="162" cy="279.4" r="1.8" fill="#BE5915"/><circle cx="190.4" cy="283.7" r="1.8" fill="#BE5915"/><circle cx="218.9" cy="287.2" r="1.8" fill="#BE5915"/><circle cx="247.3" cy="288.9" r="1.8" fill="#BE5915"/><circle cx="275.8" cy="288.2" r="1.8" fill="#BE5915"/><circle cx="304.2" cy="289.6" r="1.8" fill="#BE5915"/><circle cx="332.7" cy="293.9" r="1.8" fill="#BE5915"/><circle cx="361.1" cy="297.1" r="1.8" fill="#BE5915"/><circle cx="389.6" cy="307.1" r="1.8" fill="#BE5915"/><circle cx="418.1" cy="316.4" r="1.8" fill="#BE5915"/><circle cx="446.5" cy="298.1" r="1.8" fill="#BE5915"/><circle cx="475" cy="297.1" r="1.8" fill="#BE5915"/><circle cx="503.4" cy="296.1" r="1.8" fill="#BE5915"/><circle cx="531.9" cy="280.8" r="1.8" fill="#BE5915"/><circle cx="560.3" cy="281.3" r="1.8" fill="#BE5915"/><circle cx="588.8" cy="267.4" r="1.8" fill="#BE5915"/><circle cx="617.2" cy="247.1" r="1.8" fill="#BE5915"/><circle cx="645.7" cy="214.9" r="1.8" fill="#BE5915"/><circle cx="674.2" cy="180" r="1.8" fill="#BE5915"/><circle cx="702.6" cy="177" r="1.8" fill="#BE5915"/></g></g><g><path fill="none" stroke="#fff" stroke-linecap="butt" stroke-linejoin="round" stroke-width="2.5" d="m48.1 266.9 28.5.8 28.4.7 28.5 8.3 28.5 6.5 28.4 3.7 28.5 5.5 28.4 4.8 28.5.3 28.4-.8 28.5 2.1 28.4.5 28.5-.4 28.5-.4 28.4-12.2 28.5.9 28.4-9.3 28.5-5.3 28.4 11.1 28.5-29.8 28.4-10.1 28.5-27.2 28.5-21.8 28.4-.2"/><path fill="none" stroke="#2C8465" stroke-linecap="butt" stroke-linejoin="round" stroke-width="1.5" d="m48.1 266.9 28.5.8 28.4.7 28.5 8.3 28.5 6.5 28.4 3.7 28.5 5.5 28.4 4.8 28.5.3 28.4-.8 28.5 2.1 28.4.5 28.5-.4 28.5-.4 28.4-12.2 28.5.9 28.4-9.3 28.5-5.3 28.4 11.1 28.5-29.8 28.4-10.1 28.5-27.2 28.5-21.8 28.4-.2"/><g><circle cx="48.1" cy="266.9" r="1.8" fill="#2C8465"/><circle cx="76.6" cy="267.7" r="1.8" fill="#2C8465"/><circle cx="105" cy="268.4" r="1.8" fill="#2C8465"/><circle cx="133.5" cy="276.7" r="1.8" fill="#2C8465"/><circle cx="162" cy="283.2" r="1.8" fill="#2C8465"/><circle cx="190.4" cy="286.9" r="1.8" fill="#2C8465"/><circle cx="218.9" cy="292.4" r="1.8" fill="#2C8465"/><circle cx="247.3" cy="297.2" r="1.8" fill="#2C8465"/><circle cx="275.8" cy="297.5" r="1.8" fill="#2C8465"/><circle cx="304.2" cy="296.7" r="1.8" fill="#2C8465"/><circle cx="332.7" cy="298.8" r="1.8" fill="#2C8465"/><circle cx="361.1" cy="299.3" r="1.8" fill="#2C8465"/><circle cx="389.6" cy="298.9" r="1.8" fill="#2C8465"/><circle cx="418.1" cy="298.5" r="1.8" fill="#2C8465"/><circle cx="446.5" cy="286.3" r="1.8" fill="#2C8465"/><circle cx="475" cy="287.2" r="1.8" fill="#2C8465"/><circle cx="503.4" cy="277.9" r="1.8" fill="#2C8465"/><circle cx="531.9" cy="272.6" r="1.8" fill="#2C8465"/><circle cx="560.3" cy="283.7" r="1.8" fill="#2C8465"/><circle cx="588.8" cy="253.9" r="1.8" fill="#2C8465"/><circle cx="617.2" cy="243.8" r="1.8" fill="#2C8465"/><circle cx="645.7" cy="216.6" r="1.8" fill="#2C8465"/><circle cx="674.2" cy="194.8" r="1.8" fill="#2C8465"/><circle cx="702.6" cy="194.6" r="1.8" fill="#2C8465"/></g></g><g><path fill="none" stroke="#fff" stroke-linecap="butt" stroke-linejoin="round" stroke-width="2.5" d="m48.1 186.7 28.5 2 28.4 1.4 28.5-.9 28.5 11 28.4 6.7 28.5 11.6 28.4 2.2 28.5 12.7 28.4 15.8 28.5 18.1 28.4 17.8 28.5 19.8 28.5 20 28.4 15.9L475 358l28.4 19.3 28.5-5.7 28.4-9.4 28.5-21.1 28.4-17.8 28.5-12.7 28.5-18.9 28.4-17.7"/><path fill="none" stroke="#C15065" stroke-linecap="butt" stroke-linejoin="round" stroke-width="1.5" d="m48.1 186.7 28.5 2 28.4 1.4 28.5-.9 28.5 11 28.4 6.7 28.5 11.6 28.4 2.2 28.5 12.7 28.4 15.8 28.5 18.1 28.4 17.8 28.5 19.8 28.5 20 28.4 15.9L475 358l28.4 19.3 28.5-5.7 28.4-9.4 28.5-21.1 28.4-17.8 28.5-12.7 28.5-18.9 28.4-17.7"/><g><circle cx="48.1" cy="186.7" r="1.8" fill="#C15065"/><circle cx="76.6" cy="188.7" r="1.8" fill="#C15065"/><circle cx="105" cy="190.1" r="1.8" fill="#C15065"/><circle cx="133.5" cy="189.2" r="1.8" fill="#C15065"/><circle cx="162" cy="200.2" r="1.8" fill="#C15065"/><circle cx="190.4" cy="206.9" r="1.8" fill="#C15065"/><circle cx="218.9" cy="218.5" r="1.8" fill="#C15065"/><circle cx="247.3" cy="220.7" r="1.8" fill="#C15065"/><circle cx="275.8" cy="233.4" r="1.8" fill="#C15065"/><circle cx="304.2" cy="249.2" r="1.8" fill="#C15065"/><circle cx="332.7" cy="267.3" r="1.8" fill="#C15065"/><circle cx="361.1" cy="285.1" r="1.8" fill="#C15065"/><circle cx="389.6" cy="304.9" r="1.8" fill="#C15065"/><circle cx="418.1" cy="324.9" r="1.8" fill="#C15065"/><circle cx="446.5" cy="340.8" r="1.8" fill="#C15065"/><circle cx="475" cy="358" r="1.8" fill="#C15065"/><circle cx="503.4" cy="377.3" r="1.8" fill="#C15065"/><circle cx="531.9" cy="371.6" r="1.8" fill="#C15065"/><circle cx="560.3" cy="362.2" r="1.8" fill="#C15065"/><circle cx="588.8" cy="341.1" r="1.8" fill="#C15065"/><circle cx="617.2" cy="323.3" r="1.8" fill="#C15065"/><circle cx="645.7" cy="310.6" r="1.8" fill="#C15065"/><circle cx="674.2" cy="291.7" r="1.8" fill="#C15065"/><circle cx="702.6" cy="274" r="1.8" fill="#C15065"/></g></g></g></g></g></g><g class="SourcesFooter" style="fill:#5b5b5b"><text x="16" y="580.9" style="font-size:13.5px;line-height:1.2"><tspan x="16" y="580.9"><tspan style="font-weight:700">Data source:</tspan> Calculated by Our World in Data based on Taylor &amp; Rising (2021)</tspan></text><text x="604.8" y="580.9" font-size="13.5"><tspan x="604.77" y="580.89"><a href="https://ourworldindata.org/land-use" style="fill:#5b5b5b;text-decoration:underline" target="_blank">OurWorldInData.org/land-use</a> | <a href="https://creativecommons.org/licenses/by/4.0/" style="fill:#5b5b5b;text-decoration:underline" target="_blank">CC BY</a></tspan></text></g></svg>